<svg width="181" height="48" viewBox="0 0 181 48" fill="none" xmlns="http://www.w3.org/2000/svg">
<path d="M74.0809 39.4906C74.2447 39.4906 74.1889 39.3895 74.3022 39.3564C74.3753 39.447 74.5095 39.4923 74.6489 39.5237C74.3335 39.515 74.0374 39.5307 74.0809 39.4906Z" fill="#3D8BFF"/>
<path d="M74.9604 39.5447C75.0057 39.5378 75.0546 39.5307 75.0859 39.5203V39.5516C75.0493 39.5481 75.0005 39.5482 74.9604 39.5447Z" fill="#3D8BFF"/>
<path d="M141.719 37.3147H141.89V37.3513H141.719V37.3147Z" fill="#3D8BFF"/>
<path d="M138.2 38.1735C138.299 38.1839 138.4 38.1944 138.503 38.1961L137.458 38.2711C137.658 38.1143 137.916 38.1439 138.2 38.1735ZM138.503 38.1961L138.805 38.1753C138.719 38.191 138.634 38.1961 138.549 38.1961C138.535 38.1961 138.519 38.1961 138.503 38.1961Z" fill="#3D8BFF"/>
<path d="M136 37.7816L136.336 37.6841C136.453 37.7816 136.169 37.8147 136.169 37.8809L136 37.7816Z" fill="#3D8BFF"/>
<path d="M134.432 38.3721L134.655 38.3025L134.432 38.4052V38.3721Z" fill="#3D8BFF"/>
<path d="M131.57 38.1091V38.1754L131.064 38.2712L131.57 38.1091Z" fill="#3D8BFF"/>
<path d="M131.174 31.0099C131.174 31.1074 130.895 31.1075 130.73 31.1789C130.843 31.1075 130.953 30.9471 131.174 31.0099Z" fill="#3D8BFF"/>
<path d="M130.73 37.881C130.784 37.881 130.953 37.8461 130.895 37.9106L130.559 37.9473L130.73 37.881Z" fill="#3D8BFF"/>
<path d="M130.843 38.0725C130.843 38.2084 130.559 38.2415 130.451 38.3408C130.388 38.1753 130.73 38.2084 130.843 38.0725Z" fill="#3D8BFF"/>
<path d="M129.552 37.9473C129.664 37.9473 129.718 38.0082 129.777 38.0082L129.495 38.0726C129.495 38.0082 129.495 37.9751 129.552 37.9473Z" fill="#3D8BFF"/>
<path d="M128.43 34.0028C128.542 34.0028 128.709 33.968 128.822 34.0342C128.765 34.0673 128.665 34.0917 128.582 34.0917C128.5 34.0917 128.43 34.0673 128.43 34.0028Z" fill="#3D8BFF"/>
<path d="M126.746 34.0343C126.953 34.0605 127.162 34.0204 127.362 33.9803C127.648 33.9246 127.918 33.8671 128.15 34.003C127.939 34.0953 127.678 34.1301 127.43 34.1301C127.153 34.1301 126.894 34.0866 126.746 34.0343Z" fill="#3D8BFF"/>
<path d="M126.522 34.5273C126.575 34.4611 126.801 34.2642 126.911 34.3949C127.028 34.4297 127.028 34.4941 127.136 34.5603L126.522 34.6248V34.5273Z" fill="#3D8BFF"/>
<path d="M125.57 34.0674L125.85 33.935C126.018 33.9002 126.41 33.9681 126.41 34.0674H125.57Z" fill="#3D8BFF"/>
<path d="M125.009 38.1091V38.0725C125.127 38.062 125.27 38.0638 125.415 38.0656C125.669 38.0673 125.929 38.0708 126.071 38.0081V38.1422C125.934 38.1684 125.826 38.1788 125.732 38.1788C125.483 38.1788 125.333 38.1091 125.009 38.1091Z" fill="#3D8BFF"/>
<path d="M125.455 32.6875H125.733V32.7519H125.455V32.6875Z" fill="#3D8BFF"/>
<path d="M123.887 38.5674L124.556 38.5029L124.669 38.5987C124.547 38.6196 124.361 38.6457 124.197 38.6457C124.058 38.6457 123.937 38.6266 123.887 38.5674Z" fill="#3D8BFF"/>
<path d="M122.091 37.2868C122.204 37.1893 122.424 37.2868 122.537 37.1892C122.537 37.2345 122.277 37.3513 122.152 37.3513C122.103 37.3513 122.075 37.3339 122.091 37.2868Z" fill="#3D8BFF"/>
<path d="M121.64 38.2085H122.147V38.2729H121.64V38.2085Z" fill="#3D8BFF"/>
<path d="M68.6924 37.125L68.8056 37.0884L68.9729 37.125H68.6924Z" fill="#3D8BFF"/>
<path d="M111.715 40.6703C111.6 40.7016 111.49 40.7015 111.378 40.6371C111.12 40.6981 110.866 40.5883 110.605 40.4768C110.293 40.3444 109.974 40.2137 109.638 40.374C109.075 40.2765 108.516 40.2121 108.072 39.949C107.711 40.1581 107.465 40.0117 107.211 39.8671C107.03 39.7609 106.844 39.6563 106.612 39.6841C106.572 39.9002 106.274 39.8479 106.007 39.7957C105.864 39.7678 105.732 39.7417 105.655 39.7539C105.377 39.5204 104.591 39.6197 104.253 39.6528C104.11 39.55 103.919 39.5971 103.73 39.6442C103.554 39.686 103.378 39.7294 103.246 39.6528C102.805 39.7799 102.405 39.7208 102 39.6598C101.577 39.5971 101.148 39.5343 100.662 39.6841C100.52 39.6963 100.382 39.6423 100.253 39.5883C100.025 39.4943 99.8105 39.4002 99.5945 39.6528C98.7827 39.55 98.0614 39.5971 97.3698 39.6442C96.7217 39.686 96.098 39.7294 95.4482 39.6528C95.2078 39.5117 94.889 39.5308 94.5771 39.5482C94.3001 39.5639 94.0301 39.5797 93.8211 39.4908C93.7061 39.5204 93.5964 39.6197 93.4849 39.4908C93.1765 39.564 92.9012 39.5291 92.6434 39.4925C92.335 39.4525 92.0493 39.4106 91.7462 39.5518C91.3054 39.4054 90.8647 39.4455 90.4117 39.4856C90.0615 39.5152 89.7026 39.5466 89.3333 39.4908C88.8298 39.6372 88.3124 39.5623 87.788 39.4769C87.7898 39.4943 87.7811 39.5134 87.7898 39.5326C87.7271 39.5204 87.6556 39.5239 87.579 39.5291C87.4065 39.5396 87.2132 39.55 87.0703 39.3741C86.7776 39.3445 86.4867 39.3357 86.1905 39.3897C85.5773 39.6528 84.7358 39.5883 83.9484 39.5883C80.5303 39.4542 77.6122 39.4229 74.3022 39.3236L74.3022 39.3564C73.8405 39.3129 73.3614 39.2957 72.8805 39.2818L72.4973 40.2155C72.4085 40.219 72.3475 40.1511 72.2935 40.0866C72.2377 40.0187 72.1907 39.9524 72.1367 39.9559C72.5461 39.8218 72.1767 39.5047 72.2725 39.2608C71.8823 39.2486 71.4973 39.2277 71.121 39.1929C70.6054 39.3253 70.1507 39.7312 69.8528 40.1911L69.7918 40.1371C69.3702 39.7364 69.0705 39.4733 69.3301 38.9037C69.2482 38.9089 69.1489 38.9264 69.0479 38.942C69.0984 38.9525 69.1489 38.9507 69.1977 38.9629C68.8057 38.996 68.2988 39.0935 67.9608 38.9629C67.5061 39.0517 66.9138 39.0465 66.3232 39.0396C65.6054 39.0343 64.8911 39.0292 64.4295 39.1912L60.3929 39.1598L60.2239 39.0936C60.2239 38.6964 61.1177 39.0291 60.8981 38.6685H60.278L60.5602 38.5361C60.1525 38.28 59.7205 38.3637 59.3128 38.4473C58.8755 38.5379 58.4679 38.6285 58.1508 38.3027C58.0863 38.4664 57.9226 38.4595 57.7309 38.456C57.5742 38.4508 57.4017 38.4472 57.2501 38.5361C57.4052 38.8619 57.7327 38.7852 58.062 38.7085C58.3268 38.6476 58.5898 38.5867 58.7658 38.733C58.2031 39.2922 56.8006 39.2277 55.7937 39.2573C55.4575 39.3566 55.062 39.3236 54.7275 39.1912C54.677 39.1982 54.6265 39.1981 54.5759 39.2033C54.5115 39.2747 54.4557 39.3445 54.4331 39.4142L54.3774 39.2207C51.8391 39.5134 49.1753 39.28 46.7067 39.7834C45.4158 39.6197 44.2938 39.6197 42.8914 39.6528C42.4838 39.8392 42.1196 39.7765 41.7625 39.7155C41.4733 39.665 41.1894 39.6162 40.8897 39.6964C41.0134 39.8079 41.1214 39.9299 41.1963 40.057C41.0395 40.4943 40.8984 40.2957 40.7486 40.0988C40.6545 39.9751 40.5552 39.8514 40.4489 39.8828C40.2747 39.8915 40.097 39.9002 40.1719 40.1824L39.8828 40.1981C39.4751 40.3689 39.1772 40.0744 39.118 39.7556C38.8392 39.9315 38.5831 39.9176 38.3322 39.841L37.8009 39.8688C37.7974 39.8235 37.8323 39.7521 37.8758 39.6824C37.726 39.6337 37.5727 39.6075 37.4124 39.6197C37.3288 39.6511 37.2086 39.6894 37.0814 39.7173C37.0553 39.7312 37.0292 39.7347 37.0013 39.7539C36.5257 39.6703 35.9664 39.6964 35.3915 39.719C34.8184 39.7434 34.2278 39.7678 33.6964 39.6841C33.6093 39.8165 33.5083 39.7678 33.4107 39.719C33.3114 39.6702 33.2121 39.6215 33.1302 39.7539C32.9247 39.665 32.6877 39.6807 32.4595 39.6929C32.2539 39.7033 32.0571 39.7137 31.8968 39.6528C31.5832 39.9193 31.2853 39.848 30.9717 39.7765C30.6686 39.7086 30.3498 39.6372 29.9909 39.8811C29.7121 39.8149 29.4839 39.7834 29.2069 39.6841L29.2627 40.05C28.5885 39.8514 27.9718 39.9803 27.4631 40.2765C26.5119 40.3741 25.7279 40.1145 25.0554 39.9804C24.8864 40.3741 24.0484 40.1807 24.0484 40.5726C23.5955 40.5413 23.0346 40.3741 22.7558 40.6703L22.5868 40.4751C22.5311 40.4751 22.4753 40.4751 22.4178 40.5047C22.2419 40.4524 22.0171 40.4716 21.8081 40.4908C21.4771 40.5204 21.1826 40.5483 21.1826 40.3096C20.9022 40.3096 20.6757 40.6058 20.5119 40.7016C20.3795 40.4699 20.1304 40.5361 19.8673 40.6023C19.6827 40.6459 19.4928 40.6911 19.3342 40.6371C19.1618 40.374 18.5503 40.4438 18.3221 40.2765L17.7611 40.5726C17.0904 40.5413 16.9771 39.8514 16.1339 40.1145C16.1949 39.8148 15.6304 40.05 15.4597 39.8514C15.8012 39.4542 14.9562 39.3566 14.6775 39.0622L14.62 39.0936C14.3482 39.0082 14.2402 38.9002 14.1914 38.7835C14.1392 38.8114 14.0922 38.8374 14.0434 38.8636C13.749 38.5988 13.0103 38.8358 13.2647 38.1337C13.0417 37.7713 12.803 37.8967 12.573 38.0222C12.4127 38.111 12.2577 38.1981 12.1148 38.1232C12.0905 37.6354 11.7977 37.5727 11.5556 37.3079C10.911 36.9926 10.1636 36.963 9.66363 37.3985C9.20545 37.3445 9.1898 37.01 9.22464 36.6546C8.99816 36.5971 8.89012 36.7347 8.71765 36.8114L7.10965 35.5675C6.68805 35.7138 6.47726 35.4159 6.29956 35.118C6.07483 34.74 5.90062 34.3602 5.41457 34.8933C5.08182 33.9995 4.03655 34.8828 3.98951 33.9072C3.73342 33.4299 3.27176 33.3201 2.9843 33.4003C2.97211 33.125 2.66547 32.6512 2.88324 32.4944C2.80832 32.0206 2.95815 31.6581 2.54526 31.4665C2.9686 30.6913 1.62017 30.0554 2.38497 29.2523C2.08706 27.8603 1.72991 26.4196 2.18113 25.0085C1.99123 24.7402 2.17943 23.8865 1.61672 24.1252C1.35888 23.4475 1.20555 22.8238 1.35015 22.1164C1.21949 21.7785 0.623705 21.4527 0.641127 21.8081C0.0522841 21.4806 0.533094 20.6235 0 20.4406L0.712528 19.5712C0.451208 18.951 1.1411 18.984 1.23866 18.7018C1.11322 18.43 0.885002 18.4423 0.780474 18.6548C0.283965 17.8465 0.398928 16.7995 0.184645 15.8326C0.386733 15.6131 0.571422 15.627 0.773509 15.6427C0.839711 15.6461 0.909375 15.6514 0.980803 15.6479C1.17592 14.9493 1.95468 15.6008 1.85538 14.7716C2.09057 14.9057 2.55919 15.0155 2.74734 15.3622C3.40065 14.6967 2.02438 14.8308 2.39719 14.1131L2.74038 14.0956C2.83794 13.7472 2.13761 13.5033 2.58359 13.2054C2.83272 13.6131 3.24036 14.9162 3.7752 14.1235C4.05394 13.9684 4.55742 13.742 4.4285 13.3918L5.15671 14.1897L5.5226 13.4841C4.57836 12.897 5.83267 12.8361 5.63058 12.148C5.78389 12.0278 5.87621 12.1201 5.9668 12.2124C6.03997 12.2891 6.11314 12.364 6.21418 12.3292C6.48247 11.9616 5.97029 12.0625 5.95287 11.7193L6.12534 11.7106C6.53126 11.7559 6.5609 12.3796 6.45986 12.5939L6.51388 12.5922C6.5644 12.5121 6.62536 12.5086 6.56438 12.4459C7.05218 12.9111 7.12184 13.3396 7.43891 13.9476L7.15319 13.9616C7.28211 14.2316 7.18808 14.6583 7.53477 14.7089C7.69853 14.5555 7.39887 14.2942 7.51036 14.2193L7.57305 14.2838C7.75597 14.5521 7.53821 14.7734 7.55215 15.0521C7.68978 14.9894 7.80827 15.0939 7.91628 15.1949C8.07133 15.343 8.20723 15.4894 8.36054 15.1549C8.6236 14.6549 8.08176 14.1915 7.83786 13.85L8.01209 13.8413C8.15146 13.2124 8.5417 12.9824 8.28212 12.3622C8.3849 12.1566 8.20372 11.8797 8.4842 11.7403L8.84482 12.0591L8.89884 11.9877C8.91975 11.7351 9.01903 11.7612 9.14447 11.7873C9.22635 11.803 9.31693 11.8187 9.40578 11.7629C9.51205 11.6131 9.55908 11.4668 9.60786 11.263C10.3012 11.364 9.68974 10.6288 10.141 10.4058C9.72981 10.2037 9.99464 9.8466 10.1601 9.62535C10.5905 10.2299 10.958 9.58876 11.472 9.42151C11.5295 9.49294 11.5939 9.63401 11.7054 9.55039C11.7211 10.6201 12.2037 10.3675 12.6253 10.1149C12.8413 9.98773 13.0381 9.85875 13.1549 9.90405C12.965 9.42496 13.4319 9.61141 13.465 9.18982C14.1932 8.73164 14.1932 9.98598 14.7176 10.1062C14.6096 10.2456 14.5102 10.4703 14.3325 10.4023C14.0643 10.7612 14.0956 11.3919 14.343 11.8675C14.4493 12.8413 15.5347 12.7211 16.0573 12.9058C16.1026 12.6166 15.9179 12.4145 15.8517 12.2072C15.8308 11.796 15.6392 11.317 15.4528 11.0487C15.3953 10.9842 15.2141 10.8465 15.383 10.7716L15.5642 10.8989C15.9353 10.3257 16.3029 9.68454 16.8726 9.51381C17.39 9.55388 17.5817 9.96683 17.7768 10.4459C18.3378 10.2072 18.2942 9.30999 18.329 8.81C18.5991 8.52081 19.1286 8.71419 19.2732 8.14277C19.5624 8.26124 19.8499 8.24733 20.0415 8.59053L20.1374 8.31003L20.451 8.70718C20.6618 8.41624 21.2297 8.2577 21.0903 7.70022C21.1826 7.21416 22.761 7.83962 21.9649 6.9006C22.6931 6.44242 22.6217 4.9825 23.3569 4.66892C24.1774 5.0487 25.153 5.06793 25.7627 5.80486C25.9962 5.89893 26.0989 5.70208 26.2035 5.50521C26.3097 5.30835 26.416 5.1115 26.6512 5.20557C26.5624 4.18816 27.1129 4.25088 27.7069 4.31185C28.0031 4.34321 28.3132 4.37275 28.5589 4.26996C28.8899 3.98773 29.2731 3.61318 29.6756 3.67067C29.862 3.94071 30.2104 3.99131 30.247 3.64462C30.5153 4.11152 30.6912 3.98955 30.8515 3.8676C30.9926 3.75959 31.1215 3.65332 31.2957 3.93555C31.6825 3.64113 32.3828 3.81709 32.8428 3.86239C32.8358 3.71953 32.7208 3.72467 32.6599 3.66196L33.3132 4.04177L33.4664 3.68811C33.9473 2.89892 34.1511 3.52263 34.6808 3.7735C34.5727 3.97907 34.5814 4.18816 34.7121 4.39373L35.0344 4.03305C35.4525 4.35883 35.3776 5.19506 35.787 5.31701L35.7818 5.25257L35.9525 5.24385C36.0727 5.30483 36.0204 5.44244 36.1406 5.58007L36.3027 5.29436C36.3811 5.53303 36.4438 5.46163 36.5326 5.38846C36.5919 5.33794 36.6633 5.28913 36.7591 5.33966C36.8689 6.31177 37.8026 5.56616 37.78 6.19158C37.9786 5.87974 38.0343 5.96686 38.1093 6.05048C38.1737 6.12365 38.2556 6.19684 38.4577 6.02262L38.1894 6.39021C38.2469 6.46512 38.3828 6.79438 38.4838 6.57661L38.4804 6.51909C38.9438 6.49992 38.5065 7.00867 38.8619 7.19333C38.9838 7.39716 39.3863 7.37625 39.4925 7.09402L39.611 7.36751C40.1145 6.99643 40.4211 7.3937 40.7747 7.58708L40.7207 7.66715L40.9663 7.925C41.1562 8.63579 41.5517 8.69855 41.9245 8.83095C42.1266 8.58879 42.3566 8.64103 42.6057 8.69155C42.8043 8.73336 43.0151 8.77517 43.2346 8.6689V8.55917C43.3478 8.63233 43.4629 8.58526 43.5639 8.53822C43.712 8.47027 43.8357 8.40058 43.8914 8.70197C43.9925 8.54169 44.1963 8.54519 44.3879 8.54694C44.6283 8.55042 44.8513 8.55396 44.8287 8.23166C45.2015 8.23166 45.5761 7.76301 45.9071 8.08705C46.1806 7.58009 46.8408 7.47379 47.3077 7.39887C47.4018 7.28912 47.7293 7.36575 47.5899 7.10965C47.623 7.09571 47.6579 7.09923 47.6893 7.09923C47.7433 7.10272 47.7938 7.10618 47.8251 7.0365C47.8251 6.49295 48.9959 6.78392 49.1353 6.53131L49.6039 6.49293L49.5568 6.35012C49.7432 6.38497 49.8826 6.31354 49.8826 6.13236C49.9924 6.23514 50.1648 6.21592 50.3251 6.1985C50.508 6.17933 50.6771 6.16024 50.7276 6.31355V6.17064C50.8321 6.2351 50.8913 6.22465 50.9366 6.21593C50.9889 6.20548 51.0254 6.19334 51.1056 6.31355C51.3355 6.28045 51.1491 5.9529 51.3826 6.02432C51.5916 6.26822 51.8756 6.19153 52.1753 6.11662C52.4122 6.05739 52.6561 5.99822 52.8861 6.09578V6.06271C53.3024 6.17072 53.8651 6.38497 54.2902 6.31355C54.3338 6.64107 54.8947 6.67765 55.1299 6.56789C54.8947 7.25604 55.9749 6.82046 56.1613 7.32742C56.454 7.49641 56.67 7.44936 56.8982 7.40058C57.1055 7.35702 57.3215 7.3135 57.6142 7.43545C57.3285 7.68806 57.8459 7.54524 57.8929 7.6881C58.0794 7.6881 58.0358 7.54521 57.9853 7.43545C58.2187 7.28911 58.501 7.36574 58.7362 7.14623C58.7362 7.18107 58.6891 7.28909 58.785 7.32742C59.0184 7.03648 59.487 6.82045 59.9086 6.92846V6.82054H60.095C60.1874 6.92855 60.5654 6.89196 60.7518 6.82054V6.89188C60.8494 6.81697 60.9191 6.85011 60.9992 6.88146C61.0724 6.91282 61.1525 6.94241 61.2657 6.89188C61.2657 6.92847 61.217 6.96688 61.3128 7.00173L61.4086 6.92846V7.00173C61.642 7.14632 61.8267 7.10967 62.1089 7.0365C62.1089 7.10967 62.1089 7.14626 62.0601 7.18111L62.4364 7.54519V6.96685C62.4364 7.00169 62.4365 7.07481 62.4835 7.10965C62.6229 7.03648 62.6228 6.96679 62.811 6.92846C62.6716 7.2194 63.2326 7.18114 63.3285 7.3658L63.5584 7.18111L63.5149 7.14623C63.6751 6.94763 63.9225 6.95633 64.1612 6.96504C64.4034 6.97375 64.6385 6.98256 64.7796 6.78396C64.9643 6.67769 65.1542 6.82046 65.2936 6.89188C65.3371 6.78736 65.4138 6.80128 65.4817 6.81522C65.5549 6.82916 65.6193 6.8431 65.6193 6.7107C65.7221 6.85007 65.8232 6.84839 65.926 6.84839C66.0113 6.84839 66.0984 6.84658 66.1855 6.92846C66.2761 6.78561 66.3353 6.82915 66.3928 6.87445C66.4503 6.91974 66.5113 6.96513 66.6054 6.82054L66.5601 6.78396C66.6664 6.83274 66.7813 6.79089 66.8963 6.74908C67.0287 6.7003 67.1559 6.65152 67.2604 6.74908C67.3057 6.71075 67.4033 6.64104 67.4921 6.67763C67.588 7.07483 68.2883 7.0365 68.5705 7.0365C68.7134 7.14625 68.5217 7.39887 68.8057 7.39887C68.5705 7.7264 68.1489 7.61669 67.8702 7.79613C67.919 8.05396 67.9852 7.96677 68.0775 7.88141C68.1559 7.80824 68.2552 7.73682 68.3823 7.86748C68.4311 8.01382 68.3824 8.12365 68.3388 8.23166C68.2883 8.5226 68.6176 8.37451 68.8057 8.52259C68.5217 8.77694 68.0531 9.28043 67.5392 9.17068C67.2605 9.35534 67.635 9.42673 67.6821 9.60791C67.9608 9.60791 68.0531 9.39017 68.1489 9.28041L68.3388 9.35527C68.3824 9.4267 68.4747 9.57304 68.2883 9.57304L68.7134 9.93371C69.4137 9.93371 69.7412 9.64103 70.351 9.71595C70.4938 9.64103 70.7726 9.67932 70.7726 9.49988C70.7726 9.31696 70.4416 9.0626 70.1158 9.10092L70.2116 9.06264L69.9294 8.84839H70.2587C70.6332 8.74037 70.6768 8.30481 70.8196 8.12363C70.4939 8.0522 70.0688 8.01385 69.8353 7.83441C69.8876 7.80653 69.9468 7.80998 70.0008 7.81346C70.0949 7.81869 70.1803 7.82398 70.2116 7.6881L71.1471 7.65322C71.4294 7.32744 72.2203 7.3989 72.5043 6.96685C72.3963 6.99821 72.3074 6.9407 72.2255 6.88146C72.1297 6.81178 72.0426 6.74214 71.9416 6.82054C71.7116 6.78395 71.3336 6.7107 71.4729 6.49293L71.8945 6.45986V6.17064L71.9903 6.28048L72.0861 6.17064C72.2203 5.95287 71.8475 6.06262 71.8945 5.95287C72.3196 5.91454 72.5548 5.91453 72.9258 5.8762V6.13236C73.2081 6.24211 73.5826 6.64101 73.9102 6.49293V6.67763C73.9572 6.67763 73.9572 6.6411 74.006 6.60277L74.1454 6.92846C74.3318 6.92846 74.3753 6.71078 74.5182 6.60277L74.7534 6.7107C74.6105 6.78387 74.567 6.85709 74.567 6.96685C74.6732 6.95117 74.7604 6.99122 74.8457 7.03129C74.9816 7.094 75.114 7.15678 75.3143 7.00173C75.5495 7.25608 75.9241 7.03648 76.1575 7.32742C76.2969 7.28909 76.6279 7.28917 76.6715 7.47384C77.1872 7.50694 77.8909 7.61669 78.2655 7.47384C78.5913 7.47384 78.4554 7.68804 78.6384 7.76295C78.7725 7.62358 78.9188 7.67585 79.0704 7.72638C79.2341 7.78387 79.4049 7.83963 79.5774 7.65322C79.6732 7.8675 79.8596 7.65322 80.0442 7.65322C80.1993 7.77343 80.3422 7.7456 80.492 7.71946C80.6575 7.69159 80.8299 7.66194 81.0285 7.83441L81.1714 7.76295C81.8247 8.01382 81.8717 7.90588 82.5721 8.23166C82.6156 8.31354 82.7254 8.28393 82.8195 8.25431C82.9345 8.21773 83.0251 8.18286 82.9502 8.3414C83.1366 8.3414 83.3247 8.37451 83.4641 8.30482V8.44943H83.4153C83.3247 8.48427 83.3247 8.59229 83.4153 8.63062H82.5721C82.4954 8.43202 82.3613 8.46333 82.2167 8.49643C82.1 8.52082 81.9763 8.54699 81.8717 8.44943C80.2812 8.30483 78.8735 8.16196 77.2342 7.90586C77.1419 7.97729 76.8126 8.01388 77.0007 8.12363L76.8126 8.08705C76.7203 8.26998 76.3927 8.3745 76.5321 8.55917H76.5791L76.6715 8.84839C76.9537 8.84839 77.2342 8.77688 77.5164 8.91973L77.2342 9.20896L77.5652 9.28041C77.6175 8.99819 77.8422 9.06782 78.0634 9.1375C78.2115 9.1828 78.3596 9.22991 78.4554 9.17068C78.5234 9.0226 78.6314 9.07486 78.7446 9.12538C78.8544 9.17416 78.9694 9.22462 79.06 9.10092L78.9659 8.95631C79.2481 8.70196 79.6261 8.44943 80.0913 8.44943C80.0442 8.63061 79.9502 8.77688 79.8091 8.91973C79.9502 9.10092 79.9989 9.24726 80.1871 9.35527C81.0285 9.28036 81.3578 8.77693 82.154 8.77693C82.4798 8.81003 82.8073 9.20896 83.0407 8.99119C83.3717 9.17063 83.5111 9.46506 83.8386 9.60791C84.1052 9.52603 84.3891 9.58349 84.687 9.64098C84.91 9.68628 85.1417 9.72988 85.3839 9.71595C85.7567 9.64103 86.5529 9.64101 87.0703 9.39015C86.4135 8.63057 84.7776 9.06259 84.0268 8.70197L84.3073 8.63062C84.4449 8.73689 84.6051 8.65151 84.7532 8.56788C84.91 8.47903 85.0564 8.39193 85.1522 8.52259C85.2062 8.47729 85.302 8.47901 85.3943 8.4825C85.532 8.48773 85.6696 8.49122 85.6696 8.3414C86.4605 8.3414 87.0703 8.4128 87.9152 8.26994C88.0075 8.16193 88.241 8.08707 88.3804 8.23166C88.5685 8.08707 88.7079 8.05214 88.802 7.86748C88.8943 7.83438 89.1295 7.68807 89.2253 7.83441C89.6068 7.66368 89.8455 7.79087 90.0998 7.91979C90.281 8.01038 90.4692 8.10099 90.7253 8.08705V8.44943C90.4431 8.70204 90.1591 8.77687 89.741 8.95631C90.0197 9.46502 88.5685 9.39015 88.8943 9.82568C88.241 9.85878 87.5389 9.85873 87.2132 10.404C87.6783 10.6218 88.1504 10.3309 88.6156 10.2943L88.525 10.1863C88.6347 10.0329 88.8647 10.0382 89.072 10.0434C89.2079 10.0452 89.3368 10.0487 89.4117 10.0052C89.2723 10.1515 88.8943 10.2612 88.802 10.404L89.3159 10.5121C89.4309 10.3518 89.5772 10.3588 89.7323 10.3605C89.8925 10.3675 90.0633 10.3727 90.2079 10.1863C90.8159 10.3657 90.4431 9.8257 90.8612 9.71595C91.4256 9.46508 91.849 9.39014 92.4064 9.74902C92.6399 9.45111 92.8594 9.56083 93.0946 9.66884C93.2863 9.75595 93.4883 9.84312 93.7183 9.71595C93.9518 9.7473 94.2043 9.67586 94.4448 9.60791C94.7374 9.52081 95.0145 9.43546 95.22 9.53476C95.3594 9.53476 95.5946 9.4999 95.6381 9.39015C95.7461 9.202 95.9448 9.20547 96.166 9.20896C96.3315 9.2107 96.5075 9.21416 96.6695 9.1375V9.20896C96.9047 9.3553 97.1381 9.39017 97.3733 9.28041C97.7914 9.28041 97.6084 9.641 97.8907 9.74902C98.1015 9.52776 98.2653 9.61144 98.4447 9.69681C98.5841 9.76475 98.7322 9.82915 98.9186 9.74902V9.64098C99.1416 9.74551 99.3645 9.67586 99.5823 9.60791C99.8227 9.53126 100.054 9.45461 100.276 9.60791C100.53 9.46854 100.715 9.53474 100.922 9.59919C101.095 9.6532 101.284 9.70718 101.54 9.64098C101.54 10.249 101.837 10.0713 102.164 9.89533C102.462 9.73505 102.79 9.57486 102.948 10.0052C102.948 9.74907 103.556 9.67932 103.696 9.49988C103.274 9.24727 102.76 9.24726 102.805 8.91973C102.995 8.70197 103.044 8.48428 103.37 8.41285V8.44943C103.509 8.48427 103.931 8.3745 103.978 8.12363C104.108 7.95464 104.3 7.97729 104.474 7.99646C104.669 8.02259 104.84 8.047 104.866 7.79613L105.1 7.97732C105.281 8.05571 105.349 7.94248 105.387 7.8275C105.42 7.73168 105.432 7.6358 105.474 7.65322C105.603 7.37448 105.79 7.4581 105.985 7.53998C106.145 7.60618 106.31 7.6741 106.459 7.54519C106.319 7.18108 106.88 7.256 106.929 7.0365L107.164 7.14623C106.929 6.24206 108.098 6.20551 108.8 5.80656C108.847 5.80656 108.847 5.87626 108.847 5.91459L109.457 5.8762C109.457 5.83614 109.436 5.81527 109.411 5.80656C109.525 5.49123 109.751 5.49825 110.007 5.50521C110.162 5.5087 110.328 5.51393 110.488 5.44599C110.779 5.3885 111.009 5.44945 111.227 5.51042C111.427 5.56617 111.62 5.62538 111.845 5.58879C112.218 5.48078 111.939 5.1898 111.985 5.15496C112.094 5.26123 112.222 5.20379 112.337 5.14805C112.417 5.10798 112.49 5.06963 112.549 5.08531L112.502 4.939C112.688 4.75956 112.828 5.01045 112.924 5.04703C113.155 4.9756 113.065 4.75951 113.11 4.75951H113.577V4.57662C113.72 4.40937 113.84 4.48082 113.958 4.54876C114.049 4.60103 114.14 4.65332 114.239 4.60629C114.077 4.72824 113.929 4.85714 114.047 5.01045C114.234 4.97561 114.281 4.75958 114.373 4.6115C114.469 4.79268 114.798 4.82927 114.983 4.79269C115.03 5.23345 115.281 5.22643 115.559 5.2212C115.831 5.21772 116.133 5.21422 116.295 5.62537C116.763 5.51561 116.997 6.06271 117.279 6.06271C117.279 6.06271 117.136 6.31354 117.328 6.35012C117.371 6.28044 117.467 6.31355 117.558 6.31355C118.075 6.09578 117.746 5.69683 117.701 5.37453C117.838 4.93726 118.131 5.05044 118.434 5.16368C118.634 5.23859 118.842 5.31358 119.011 5.22822V5.18983C119.16 5.17415 119.221 5.24034 119.275 5.30829C119.34 5.38668 119.396 5.46683 119.572 5.4076C119.666 5.44593 119.336 5.51561 119.525 5.62537C119.572 5.55394 119.617 5.58879 119.711 5.58879C119.993 5.62538 120.556 5.87622 120.324 6.17064C121.213 6.38492 121.678 6.78387 122.335 7.32742L122.617 7.10965C123.178 7.03648 123.601 6.96679 123.976 7.14623C124.772 6.82045 123.88 7.54521 124.303 7.65322C124.415 7.6236 124.504 7.66715 124.575 7.71245C124.687 7.78039 124.76 7.84834 124.819 7.65322C124.911 7.58005 125.146 7.61661 125.146 7.76295C125.425 7.86748 125.659 7.68804 125.707 7.54519C125.897 7.54519 126.037 7.47378 126.176 7.65322C126.268 7.28911 126.643 7.54519 126.876 7.54519C126.925 7.61661 126.876 7.65325 126.786 7.6881L127.019 7.79613C126.876 7.86756 127.019 7.97726 127.112 8.05218C127.207 7.99294 127.342 7.99817 127.476 8.00688C127.673 8.01733 127.871 8.02604 127.957 7.83441C128.052 7.7264 127.814 7.61663 127.629 7.65322C127.443 7.47378 127.723 7.28912 127.394 7.18111C127.488 7.03651 127.207 6.74908 127.629 6.74908V6.89188C127.77 6.89188 127.957 7.1097 128.188 6.96685C128.518 7.00169 128.235 7.21947 128.378 7.3658C128.47 7.47382 128.753 7.3275 128.845 7.25607C128.8 7.3275 128.845 7.43551 128.753 7.47384C128.807 7.60276 128.897 7.57479 129 7.5504C129.07 7.53298 129.146 7.51557 129.223 7.54519C129.406 7.72637 129.078 7.72636 128.988 7.86748C128.892 8.05214 129.171 8.12365 129.267 8.23166L129.357 8.12363C129.549 8.12363 129.406 8.26998 129.549 8.30482C130.392 8.30482 131.516 8.41283 132.451 8.30482C132.125 8.44942 131.794 8.3745 131.559 8.55917L131.659 8.74035C131.42 9.06265 130.859 8.81001 130.718 9.20896C130.969 9.28735 131.207 9.21772 131.448 9.14803C131.653 9.0888 131.861 9.0278 132.077 9.06264C132.322 8.65673 132.972 8.70553 133.326 8.65327C133.244 8.7125 133.268 8.84134 133.199 8.91973C133.092 8.93541 133.005 8.91633 132.92 8.89368C132.819 8.86929 132.72 8.84309 132.594 8.88316C132.348 9.32218 132.608 9.1898 132.932 9.05914C133.167 8.96506 133.439 8.86924 133.577 8.99119C133.622 8.70199 134.183 8.55919 133.855 8.23166C134.138 8.23166 134.418 8.0139 134.608 8.19509H134.279C133.904 8.19509 133.995 8.55914 134.138 8.6689C134.418 8.52256 134.932 8.37445 135.167 8.4842C135.446 8.51382 135.85 8.48424 136.143 8.32396C136.092 8.3588 136.066 8.40065 136.153 8.44943C136.385 8.41285 136.667 8.16196 136.899 8.3414C136.993 8.31701 137.103 8.32222 137.213 8.32396C137.436 8.33267 137.664 8.33966 137.791 8.12363C137.709 8.0191 137.596 8.04695 137.472 8.07482C137.38 8.09747 137.28 8.11841 137.183 8.08705L137.226 7.97732L137.413 8.05218C137.462 8.01385 137.65 7.97723 137.554 7.86748H137.742V8.05218L138.211 7.6881L138.542 7.90586C138.446 7.83444 138.868 7.61669 138.632 7.47384H138.775C138.775 7.71251 138.96 7.69506 139.097 7.67938C139.167 7.67067 139.223 7.66371 139.239 7.6881L139.427 7.58006C139.427 7.50689 139.334 7.47378 139.334 7.43545C139.265 7.41629 139.23 7.43547 139.2 7.45289C139.169 7.47205 139.146 7.48952 139.099 7.47384L139.239 7.3658C139.474 7.3658 139.378 7.58003 139.617 7.54519C139.617 7.50686 139.662 7.47378 139.662 7.43545L139.753 7.54519L139.944 7.39887C139.988 7.61664 139.848 7.68807 139.662 7.83441L139.801 7.97732C140.031 7.70206 140.19 7.81355 140.362 7.9233C140.509 8.01738 140.664 8.10972 140.88 7.97732V8.08705C140.831 8.30482 140.552 8.23165 140.366 8.30482C140.314 8.61143 140.092 8.58176 139.838 8.55215C139.615 8.52602 139.368 8.49988 139.195 8.70197C139.376 8.96329 139.683 8.89715 139.989 8.83095C140.15 8.79785 140.312 8.76299 140.456 8.77693C140.505 8.77693 140.831 8.91979 140.925 8.74035C141.169 8.90586 141.428 8.85531 141.697 8.80479C141.89 8.76646 142.087 8.72989 142.286 8.77693C142.986 8.48425 143.925 8.23162 144.486 7.83441L144.671 7.97732C145.049 8.05223 145.235 7.68807 145.514 7.61664C145.514 7.47379 145.284 7.43546 145.139 7.39887C145.188 7.28912 145.284 7.10967 145.092 7.0365C144.906 7.0365 144.766 7.10974 144.721 7.21949L144.766 7.25607C144.857 7.25607 145.002 7.28918 145.049 7.21949L145.002 7.39887C144.486 7.39887 144.486 7.7264 143.925 7.61664C143.968 7.58006 144.064 7.54527 144.016 7.47384C144.251 7.43551 144.531 7.28909 144.437 7.10965C144.298 7.07481 144.251 7.14626 144.204 7.18111V7.10965C144.11 7.1985 143.911 7.1532 143.695 7.10965C143.479 7.06436 143.245 7.01906 143.082 7.10965V7.0365C143.407 6.96681 143.876 6.96679 144.204 6.7107L144.111 6.60277C143.968 6.71078 143.876 6.60268 143.733 6.7107C143.81 6.46157 143.989 6.47729 144.162 6.49123C144.315 6.50516 144.465 6.51911 144.531 6.35012C144.857 6.17068 145.235 6.13234 145.566 6.24209V6.17064C145.984 6.24206 145.61 6.53129 145.657 6.67763L145.984 6.7107C145.984 6.64101 146.031 6.60274 145.935 6.56789C146.218 6.45988 146.266 5.95296 146.732 6.28048C147.057 6.28048 147.249 5.91459 147.388 5.69682C147.763 5.87626 148.231 5.95296 148.512 5.84494C148.465 5.9878 148.185 6.13236 148.373 6.31355H148.512L148.465 6.45986C148.608 6.53129 148.698 6.64104 148.887 6.67763C149.157 6.37449 149.409 6.44415 149.704 6.51558C149.867 6.5539 150.045 6.59402 150.247 6.56789C150.434 6.45988 150.387 6.17066 150.712 6.24209C150.712 6.28042 150.712 6.31354 150.765 6.35012L150.338 6.53131C150.338 6.67765 150.386 6.85703 150.622 6.92846C150.808 6.85703 150.808 6.71079 150.995 6.78396C151.176 7.18291 151.571 7.11839 151.975 7.05393C152.303 7.00341 152.637 6.95111 152.867 7.14623C153.014 6.91627 153.125 6.97899 153.244 7.04171C153.35 7.0992 153.463 7.15503 153.618 7.00173C153.711 7.18117 154.085 7.54524 154.367 7.3658C154.697 7.83444 155.446 7.61668 155.677 8.08705C155.763 8.05569 155.827 8.12184 155.888 8.18456C156.057 8.04693 156.177 7.85356 156.228 7.71245C156.526 7.79433 156.778 7.77521 157.007 7.75604C157.271 7.73339 157.501 7.71077 157.726 7.85015C157.794 7.99126 157.805 8.19326 157.634 8.26643L157.874 8.53301C158.108 8.05392 158.299 8.24382 158.501 8.4372C158.662 8.59051 158.831 8.74559 159.029 8.55395L158.777 8.14628L158.832 8.07312C159.311 8.4651 159.869 8.22638 160.325 8.13405C160.658 7.91106 160.294 7.51557 160.285 7.30477C160.907 7.13056 160.672 5.75255 161.418 5.78391C161.536 5.98774 161.554 6.33273 161.864 6.662C161.914 6.59405 161.966 6.45639 162.027 6.45465L162.021 6.31174L161.958 6.31525L162.439 5.60102C162.785 5.5836 162.987 5.0087 163.31 5.69161C163.44 4.98431 163.641 5.24391 163.874 5.5C164.036 5.68119 164.216 5.86056 164.399 5.71596C165.857 6.19157 163.909 5.11668 164.912 4.4268L164.993 4.97728C165.137 4.73512 165.19 4.78912 165.299 4.84139C165.35 4.86578 165.414 4.89017 165.505 4.88668L165.552 4.60629C165.709 4.32232 166.17 4.36584 166.404 4.42159L166.4 4.35534L167.25 5.29085C167.468 5.00165 167.695 4.99124 168.029 4.83097C168.132 5.29437 168.308 5.07482 168.5 4.85531C168.712 4.61142 168.945 4.36935 169.132 5.05575C169.332 4.4913 169.437 4.20723 169.761 3.78041C169.839 3.07484 170.815 2.95299 171.141 2.66031L171.332 3.07139L171.782 2.90594C171.83 2.70211 171.707 2.57493 171.642 2.42511C171.986 2.34148 171.792 1.93727 171.892 1.64633C172.071 1.78048 172.517 1.4808 172.449 1.20729C172.519 1.04004 172.674 1.10632 172.837 1.17252C173.034 1.24917 173.245 1.3258 173.353 1.01919C173.822 1.14114 173.714 0.102786 174.228 0L174.674 0.954752C175.066 0.72479 175.191 0.928626 175.484 1.13594L175.383 1.34318L175.501 1.47035L175.56 1.40241L175.351 1.89898C175.651 2.26657 175.914 2.14112 176.156 2.01743C176.405 1.88677 176.634 1.75787 176.86 2.17076C176.925 2.05055 177.02 2.05923 177.097 2.06794C177.196 2.08013 177.263 2.09057 177.186 1.81008C177.209 1.86235 177.285 1.84324 177.364 1.82582C177.494 1.7962 177.632 1.76657 177.54 2.07145C177.655 2.06622 177.71 1.99482 177.818 1.85719L177.668 2.34323C177.567 2.62546 177.965 2.60629 178.137 2.59758C178.761 3.55575 177.194 4.3223 177.458 5.08361L177.287 5.09052C177.285 5.01387 177.226 4.95118 177.224 4.88498C177.177 5.2456 177.052 5.15851 176.919 5.07489C176.797 4.99649 176.67 4.91813 176.601 5.19164C176.661 5.2561 176.665 5.324 176.721 5.25257C176.665 5.324 176.555 5.40763 176.616 5.547C176.555 5.40763 176.44 5.46862 176.329 5.47385C176.047 5.63064 175.494 6.00164 175.811 6.55216C175.405 6.57306 175.607 7.18634 175.388 7.40759L175.33 7.34316C175.29 7.7665 174.609 7.86749 174.984 8.47027C175.151 8.52776 175.334 8.51558 175.512 8.50164C175.886 8.47377 176.24 8.44595 176.391 9.10273L176.764 8.5261C177.04 8.3031 177.236 8.48593 177.397 8.6706C177.553 8.85527 177.677 9.03821 177.811 8.82393C178.282 9.15319 178.651 8.4354 178.942 8.42146C179.343 8.4023 180.045 7.5365 180.376 8.41976L180.16 8.70718C180.55 9.73504 179.492 9.16367 179.597 10.134C179.088 10.2926 179.181 10.9877 178.782 11.0853L179.015 11.2071C178.846 11.2838 178.75 11.641 178.992 11.8309C178.421 12.0034 178.7 12.9005 178.836 13.3709C178.553 13.4615 178.681 13.7316 178.336 13.749C178.339 13.8187 178.289 13.8954 178.407 13.9476L177.834 14.0434L178.04 14.6654C177.773 15.1009 178.154 15.9127 177.834 16.3517L178.121 16.3396L178.137 16.7489C178.25 16.7437 178.297 16.5399 178.351 16.4719C178.363 16.4563 178.351 16.451 178.355 16.4441C178.573 16.8587 177.914 17.1357 178.397 17.3692L178.506 17.2942L178.539 17.9946C178.193 17.8674 178.271 18.2855 178.043 18.3639L178.339 18.5607L178.036 19.3308C177.999 19.7541 178.506 19.606 178.411 20.0207C178.418 20.1931 178.266 20.1879 178.148 20.1809C178.121 20.1809 178.097 20.1792 178.076 20.1809C178.008 20.6077 177.801 20.5537 177.587 20.5015C177.379 20.451 177.165 20.3987 177.069 20.7872C177.2 21.1269 177.376 21.1949 177.339 21.5398C177.217 21.5729 177.135 21.5677 177.066 21.5625C176.97 21.5537 176.893 21.5451 176.764 21.6339L177.083 22.167C177.325 22.5746 176.947 22.9492 176.972 23.437C176.409 24.9282 174.888 24.3795 174.44 25.7906C174.275 25.9317 173.931 25.9474 173.81 25.7541C173.32 26.2593 173.057 26.8916 172.914 27.5293L172.303 26.7279L172.196 26.8672C172.653 27.9665 171.207 27.6895 171.656 28.7139C171.299 28.4526 170.932 27.9143 170.588 27.9317C171.02 27.4213 170.076 26.9126 170.574 26.5328C170.393 25.5921 170.061 26.0449 169.674 26.4961C169.404 26.8115 169.108 27.1269 168.818 26.9736C168.693 26.7001 168.447 26.4927 168.43 26.1495C167.395 26.1321 168.55 27.3324 167.815 27.646C168.186 28.1146 168.804 27.8742 169.116 28.4143C169.085 28.9717 168.561 28.8638 168.416 29.3603C169.203 30.153 167.794 29.6006 168.003 30.348C167.223 30.74 166.555 31.3393 165.583 31.3863C165.374 31.8724 164.181 32.0658 164.909 32.8724C165.055 33.4996 164.81 34.3446 164.365 34.5676C164.202 34.794 163.789 34.5936 163.641 35.1006L163.627 34.8219C163.639 34.8202 163.656 34.8236 163.674 34.8271C163.735 34.8376 163.815 34.848 163.85 34.7347C163.777 34.5762 163.653 34.5866 163.536 34.5988C163.456 34.604 163.378 34.6128 163.327 34.5605C163.109 34.7034 162.775 34.9996 163.024 35.409C162.858 35.6773 162.829 35.5326 162.761 35.388C162.719 35.3009 162.662 35.2138 162.554 35.2191C162.346 35.3079 162.196 35.3689 162.057 35.4212C162.071 35.4316 162.068 35.4386 162.081 35.4508C161.52 35.5117 161.125 35.7766 160.85 36.0396L160.622 35.9734C160.446 36.0413 160.308 36.1581 160.193 36.2888L160.257 36.3741L159.989 36.6651C159.951 36.6807 159.93 36.6807 159.9 36.6859C159.86 36.7591 159.822 36.8288 159.787 36.8897C159.512 36.8601 159.346 36.9594 159.188 37.057C159.021 37.1615 158.864 37.2661 158.604 37.219C158.515 37.2208 158.47 37.2434 158.395 37.2521C158.392 37.4403 158.437 37.6371 158.608 37.8549C158.575 38.4333 158.27 38.4107 157.965 38.3845C157.679 38.3636 157.393 38.3392 157.338 38.8166C156.831 39.0605 156.987 39.9542 156.301 39.9211L155.974 39.1023C155.334 39.2957 155.596 38.381 155.284 38.1057C155.106 38.1197 154.927 38.1389 154.745 38.1616C154.493 38.2887 154.132 38.3636 153.871 38.428L153.749 38.2225C153.646 38.219 153.542 38.2277 153.446 38.2086L153.554 38.0727C153.308 38.0187 153.13 38.0745 152.928 38.1302C152.761 38.1755 152.576 38.2225 152.324 38.2086C152.174 37.9803 152.008 38.0588 151.836 38.1389C151.683 38.2086 151.524 38.2766 151.367 38.1424C151.066 38.2992 150.731 38.2661 150.374 38.2347C150.066 38.2069 149.742 38.179 149.407 38.2713C149.247 38.2574 149.111 38.3166 148.979 38.3741C148.831 38.4386 148.686 38.5048 148.509 38.4699C148.122 38.4699 147.165 38.5675 147.106 38.7661C146.566 38.8044 146.078 38.9333 145.571 39.0221C145.528 39.2068 145.463 39.3915 145.127 39.2748C145.097 39.2103 145.096 39.1458 145.106 39.0813C144.918 39.097 144.732 39.1075 144.528 39.0936C144.185 39.2242 143.829 39.2974 143.479 39.3549C143.418 39.3811 143.364 39.3984 143.298 39.4298C143.294 39.4141 143.294 39.409 143.293 39.395C142.094 39.5605 140.869 39.4298 139.702 39.5518C139.813 39.3897 139.477 39.4907 139.366 39.3897C139.157 39.3897 138.85 39.5622 138.899 39.6388L138.695 39.4542C138.469 39.4908 138.244 39.4908 138.244 39.6841C138.244 39.6841 138.244 39.4908 138.019 39.5518C137.963 39.5883 137.963 39.6197 137.963 39.6841H137.57C137.181 39.6841 136.784 39.5883 136.503 39.5518C135.496 39.7173 134.824 39.5517 133.927 39.8514C133.601 39.7277 133.26 39.7974 132.929 39.8671C132.631 39.9298 132.338 39.9925 132.073 39.9158C131.122 39.9158 129.944 40.0135 129.049 40.1807C126.354 40.2417 123.772 40.4437 121.192 40.3096C120.688 40.4437 120.127 40.5726 119.455 40.5047C118.725 40.8723 117.939 40.4071 117.098 40.374C117.044 40.212 117.493 40.1145 117.324 39.949L116.312 39.8514V39.9158C116.312 39.9489 116.368 39.9804 116.425 39.949C116.483 40.0135 116.708 40.1807 116.425 40.1807C115.922 40.2765 115.472 40.05 115.025 39.949L114.965 40.1807C114.901 40.1912 114.838 40.1894 114.781 40.1876C114.687 40.1841 114.608 40.1824 114.577 40.2416L114.798 40.5726C114.126 40.6057 113.284 41.165 112.556 40.7347C112.443 40.8044 112.328 40.8358 112.387 40.902L111.715 40.6703ZM120.016 40.2765C120.176 40.3706 120.437 40.287 120.605 40.1946C120.535 40.2243 120.434 40.1929 120.335 40.1633C120.263 40.1406 120.194 40.1197 120.138 40.1197C120.065 40.1197 120.016 40.1563 120.016 40.2765ZM121.026 40.1475L121.357 40.2416V40.1145L121.026 40.1475ZM117.769 39.8514C118.164 39.9803 118.613 39.8149 118.443 40.1807C118.631 40.2521 118.767 40.1912 118.91 40.1302C119.021 40.0814 119.136 40.0343 119.286 40.05C119.133 39.8497 118.828 39.7992 118.511 39.7992C118.246 39.7992 117.972 39.834 117.769 39.8514ZM142.169 39.2922C142.282 39.4821 142.942 39.1336 143.247 39.1301C143.242 38.9437 143.298 38.841 143.397 38.78C142.963 38.9368 142.937 39.2643 142.169 39.2922ZM118.052 38.2713C118.164 38.5988 118.779 38.8637 119.345 38.9961C120.213 39.2086 120.896 38.7661 121.617 38.5553C121.655 38.4473 121.723 38.3566 121.835 38.381C121.878 38.381 121.946 38.4211 122.007 38.4716C122.281 38.435 122.566 38.449 122.876 38.5674C123.49 38.503 123.997 38.7329 124.333 38.8636C124.455 38.8392 124.578 38.8462 124.702 38.8532C124.916 38.8653 125.131 38.8793 125.342 38.733C125.234 38.3724 126.523 38.503 126.239 37.9752C126.366 37.9874 126.495 37.9385 126.624 37.888C126.831 37.8078 127.04 37.7277 127.249 37.9106L127.42 38.3027C127.754 38.3027 128.092 38.1093 128.43 38.3027L128.596 38.1093C128.822 38.1424 128.822 38.3027 128.822 38.4699C128.988 38.503 129.049 38.3723 129.157 38.341C129.195 38.3479 129.214 38.3566 129.244 38.3636C129.46 38.0796 130.026 37.9838 130.366 37.8915C130.12 38.172 129.892 38.1824 129.688 38.3096C129.873 38.3897 130.27 38.395 129.885 38.5674L129.718 38.6964C130.11 38.6685 130.559 38.7329 130.895 38.5361L131.065 38.5988C131.294 38.611 131.538 38.6076 131.784 38.6058C132.322 38.6006 132.868 38.5971 133.254 38.733L133.422 38.6685C133.138 38.6354 133.085 38.4054 133.195 38.2713C133.322 38.3619 133.449 38.3219 133.571 38.2835C133.695 38.2435 133.812 38.2034 133.922 38.2975C134.272 38.1285 134.27 37.5744 134.669 37.5013C134.348 37.5326 134.033 37.5535 133.758 37.5187C130.169 37.7452 126.688 37.7121 123.383 37.7121L123.551 37.5501C123.268 37.5187 123.157 37.5187 122.822 37.5187C122.876 37.5814 122.707 37.5814 122.707 37.6145C122.768 37.6267 122.833 37.6249 122.892 37.6249C122.993 37.6214 123.087 37.6198 123.157 37.6842C122.483 37.8149 121.64 37.8462 120.798 37.8148C120.798 37.6214 120.535 37.6494 120.303 37.6581C120.274 37.8567 120.371 38.111 120.16 38.1755L120.46 38.4473L119.96 38.8184C120.282 38.463 119.997 38.1371 120.131 37.6563C120.042 37.6458 119.974 37.6197 119.96 37.5501C120.464 37.5501 120.631 37.55 121.026 37.3149C121.241 37.51 121.554 37.4926 121.901 37.4769C122.087 37.4699 122.284 37.4595 122.483 37.4856C122.707 37.4159 123.157 37.287 123.098 37.1249C122.446 37.2138 121.876 37.1824 121.314 37.1528C120.894 37.1302 120.478 37.1076 120.032 37.1355C120.045 37.179 120.056 37.212 120.056 37.212L119.718 37.2957C119.688 37.2365 119.688 37.2034 119.692 37.1738C119.554 37.1894 119.429 37.1877 119.286 37.219C118.946 37.1563 118.671 36.9908 118.333 37.1249L118.164 37.1894L118.052 37.1249C118.018 37.2208 117.943 37.2139 117.864 37.2034C117.814 37.1999 117.76 37.1929 117.714 37.219C117.995 37.6476 118.946 37.3845 119.455 37.6145L119.174 37.7452C119.005 38.0727 117.324 37.6842 118.052 38.2713ZM70.4259 39.0378C70.8545 39.0047 71.4729 39.0588 71.6611 38.6964L71.0496 38.5361L71.6611 38.4699C71.6088 38.4333 71.6088 38.4054 71.5513 38.4054L71.8336 38.1755C71.0583 38.3271 70.6454 37.97 70.1506 37.7888C70.1472 37.7992 70.1402 37.801 70.135 37.8114C70.1332 37.8027 70.135 37.7904 70.1298 37.7835C69.8771 37.6929 69.6071 37.6476 69.2517 37.7452C69.2517 37.8149 69.3667 37.8149 69.3667 37.8811C69.1402 37.8811 68.8057 38.1755 68.5218 38.0082C68.4364 38.0204 68.3475 38.0187 68.2656 38.0187C68.1332 38.0152 68.0096 38.0134 67.9085 38.0727L67.9608 38.341C67.8336 38.4281 67.6489 38.4159 67.4747 38.4037C67.2656 38.3898 67.0688 38.3758 67.0096 38.5361L66.9538 38.4054C66.8406 38.5361 66.3946 38.4699 66.5078 38.6964C67.2291 38.9386 67.9817 38.8253 68.6925 38.888C68.5966 38.8323 68.5217 38.7382 68.513 38.5204C68.6559 38.0936 69.1263 38.1476 69.3493 38.1371L69.3597 38.3376L69.2378 38.3445C69.2099 38.3532 69.1768 38.3636 69.1454 38.3723C69.0392 38.4333 68.9416 38.6563 69.0949 38.7817C69.4312 38.6127 69.7587 38.2521 70.0914 38.0239L70.4259 39.0378ZM48.6684 38.8967C48.5569 38.8967 48.8391 38.8967 48.8391 38.9629C48.8896 38.9315 48.7816 38.8305 48.9488 38.7991C49.231 39.0622 49.8495 38.8967 50.407 38.8967L50.6317 38.7991C50.0133 38.6964 49.2885 38.6354 48.6143 38.733C48.5952 38.7295 48.583 38.726 48.5778 38.726C48.5377 38.726 48.8652 38.8375 48.6684 38.8967ZM145.132 38.956C145.144 38.9229 145.15 38.8898 145.16 38.855C145.115 38.841 145.068 38.8305 145.031 38.7991C145.085 38.766 145.202 38.7329 145.202 38.6685C145.024 38.5047 144.737 38.5675 144.51 38.6424C144.463 38.7138 144.411 38.7887 144.36 38.8409C144.453 38.8078 144.545 38.7609 144.639 38.733L144.697 38.6964C144.928 38.7435 144.979 38.9229 145.132 38.956ZM145.221 38.9542C145.275 38.9489 145.333 38.942 145.423 38.8967C145.35 38.8967 145.254 38.8845 145.167 38.8567C145.185 38.9002 145.205 38.9298 145.221 38.9542ZM48.1631 38.8636C48.2764 38.8636 48.3896 38.7661 48.2764 38.733H48.1631V38.8636ZM145.705 38.7991C145.934 38.895 146.146 38.8427 146.36 38.7904C146.423 38.7765 146.486 38.7608 146.549 38.7486L145.705 38.7991ZM133.812 38.6964L134.936 38.5674C134.542 38.5361 134.935 38.341 134.824 38.2713L136.897 38.1424V38.1093C137.009 38.0082 137.181 38.1424 137.293 38.1424C137.009 38.47 136.284 38.3027 135.833 38.4699C135.939 38.6145 136.362 38.5744 136.746 38.5361C136.965 38.5117 137.169 38.4891 137.293 38.503C137.681 38.341 137.796 38.4054 138.134 38.503C139.645 38.3723 141.104 38.0083 142.561 38.1755C142.66 37.963 142.815 38.0222 142.974 38.0814C143.087 38.1215 143.198 38.1633 143.294 38.1093C143.354 37.9124 143.655 37.841 143.986 37.7661C143.779 37.6477 143.543 37.5623 143.498 37.24C143.15 37.2295 142.794 37.2243 142.507 37.1563C142.111 37.287 141.608 37.2504 141.216 37.1894C141.216 37.2504 141.104 37.287 141.047 37.3149C140.768 37.2521 140.517 37.2783 140.266 37.3009C140.012 37.3271 139.758 37.3515 139.477 37.287C138.636 37.3149 138.134 37.3148 137.345 37.3514C137.197 37.395 137.038 37.3933 136.876 37.3915C136.665 37.3915 136.444 37.3898 136.226 37.4856C135.768 37.3881 135.256 37.4438 134.765 37.4925C134.768 37.6145 134.775 37.6824 134.833 37.7521C134.803 37.7625 134.779 37.7835 134.747 37.7992L135.608 37.7452C135.275 37.9978 134.911 37.9403 134.636 37.8601C134.458 37.9699 134.312 38.1145 134.176 38.273C134.181 38.273 134.183 38.2713 134.188 38.2713C134.192 38.2696 134.197 38.2696 134.206 38.2713L134.319 38.341L134.01 38.4594C133.955 38.5204 133.902 38.5814 133.843 38.6319L133.841 38.6127L133.812 38.6964ZM129.103 38.6964H129.362C129.334 38.6459 129.305 38.6006 129.275 38.5622C129.192 38.6284 129.075 38.6842 129.103 38.6964ZM129.456 38.5832C129.514 38.5797 129.584 38.5831 129.606 38.5674C129.606 38.5343 129.573 38.489 129.538 38.4455C129.51 38.4803 129.484 38.5344 129.456 38.5832ZM133.812 38.5361H133.836V38.5257L133.812 38.5361ZM143.404 38.4054C143.679 38.4733 143.949 38.449 144.207 38.402C144.214 38.3898 144.214 38.3706 144.221 38.3584L143.404 38.4054ZM57.8703 38.341L57.8146 38.3027H57.5881L57.8703 38.341ZM115.472 37.9752C115.751 38.1424 115.864 38.0448 116.143 38.0082C116.056 37.9194 115.978 37.8898 115.896 37.8898C115.77 37.8898 115.641 37.9578 115.472 37.9752ZM52.9871 37.8811C52.9331 37.9107 53.0463 37.9473 53.0986 37.9752L53.6596 37.8811C53.5777 37.848 53.4505 37.8306 53.3233 37.8306C53.1962 37.8306 53.0707 37.848 52.9871 37.8811ZM50.8565 37.9106H51.1352V37.8811H50.8565V37.9106ZM118.835 37.6842C118.946 37.7121 119.119 37.6842 119.174 37.7452C119.134 37.7016 119.063 37.6702 118.962 37.6702C118.924 37.6702 118.882 37.6738 118.835 37.6842ZM52.6143 37.4385C52.6596 37.4106 52.7049 37.3811 52.7537 37.3637C52.6805 37.3637 52.6126 37.3479 52.5446 37.334C52.414 37.3061 52.2763 37.2765 52.0881 37.3514V37.4159C52.1996 37.4159 52.1997 37.4856 52.3164 37.5187V37.4856C52.4122 37.578 52.508 37.5082 52.6143 37.4385ZM75.2533 37.5187H75.945C75.938 37.5082 75.931 37.4996 75.9241 37.4891L75.3109 37.3845L75.2533 37.5187ZM74.3806 37.3915C74.4398 37.4717 74.7795 37.4629 74.9746 37.5187C74.9241 37.4577 74.8561 37.3915 74.7743 37.3497C74.6419 37.3776 74.5112 37.3898 74.3806 37.3915ZM69.3667 37.4159C69.4555 37.4298 69.5339 37.4071 69.6088 37.3845C69.7221 37.3497 69.8231 37.3148 69.9259 37.4159C69.9851 37.4037 70.0391 37.4037 70.0984 37.3915C70.1158 37.2852 70.1385 37.1824 70.1768 37.0744C69.473 36.9873 68.7622 36.9298 68.0427 36.9891C68.02 37.0187 67.9956 37.0449 67.9817 37.0815C67.9399 37.0536 67.9172 37.0222 67.8859 36.9926L67.5148 37.0239C67.5775 37.348 67.8754 37.2852 68.196 37.2243C68.4573 37.1737 68.7378 37.125 68.9137 37.287C68.9503 37.287 69.0095 37.2835 69.0757 37.2835C69.2256 37.2835 69.4032 37.3009 69.3667 37.4159ZM64.1542 37.2957C64.2326 37.3375 64.2988 37.3793 64.3197 37.4159C64.9347 37.4159 65.2152 37.0605 65.8284 37.0239C65.7169 37.0239 65.6611 36.9594 65.5531 36.9263C65.3981 36.9141 65.1925 36.9351 64.9765 36.9543C64.7378 36.9769 64.4869 37.0012 64.2849 36.9803C64.2134 37.0378 64.1682 37.1407 64.1542 37.2957ZM13.1113 37.3759C13.2925 37.2626 13.465 37.2521 13.6305 37.2974C13.4528 37.0344 13.2507 36.7836 13.5016 36.4003C13.5016 36.1041 12.9981 35.8079 12.4929 35.6459C12.4929 35.2818 12.2089 34.9891 12.3779 34.625C12.4929 34.625 12.5991 34.6582 12.7141 34.6582C12.918 34.4352 12.6845 34.2539 12.4232 34.0797C12.3396 34.24 12.2821 34.4107 12.2281 34.4856C12.4319 35.1755 11.6619 34.7138 11.7507 35.341C10.9894 35.0344 11.1723 36.416 10.7769 36.578C11.0086 36.6337 11.202 37.0553 11.4232 36.902C11.573 37.0344 11.8013 37.0344 12.0556 37.0326C12.0783 37.0326 12.1026 37.0326 12.1253 37.0326C12.4545 37.0326 12.8186 37.0536 13.1113 37.3759ZM47.6544 37.1894V37.3514L48.8391 37.287C48.8391 37.2504 48.8896 37.219 48.9488 37.1894C49.6422 37.3619 50.4174 37.3097 51.2014 37.2539C51.7432 37.2173 52.292 37.179 52.8199 37.219C53.4575 37.0152 54.2258 37.0222 54.9627 37.0309C55.5219 37.0379 56.062 37.0449 56.5219 36.9595H56.7484L56.6909 37.0884C57.1212 37.1424 57.7536 37.0187 58.278 37.003C58.386 36.9438 58.501 36.8968 58.6107 36.8375C58.5776 36.7243 58.5323 36.6702 58.4836 36.6441C58.2884 36.6389 58.0968 36.6441 57.9226 36.6946L57.5306 36.6302L57.5567 36.6075C57.2275 36.6563 56.8999 36.6581 56.5724 36.7016C56.4975 36.733 56.4087 36.7505 56.3041 36.7592C56.1752 36.7923 56.0463 36.8288 55.9157 36.9003C55.8826 36.8532 55.8721 36.8044 55.8581 36.7557C55.4121 36.7295 54.9801 36.7313 54.5533 36.7504C54.5481 36.801 54.5324 36.8341 54.5341 36.9003C54.5028 36.8375 54.4714 36.8079 54.4366 36.7574C53.5655 36.8061 52.6945 36.9054 51.6962 36.9263C50.968 36.8601 51.1352 36.3671 50.3495 36.4351C50.2851 36.6215 50.0969 36.719 49.8565 36.7748C49.7886 36.834 49.7188 36.8933 49.6561 36.9368C49.522 36.8584 49.3286 36.9542 49.1248 37.0518C48.8007 37.2051 48.4454 37.3601 48.2398 36.8218C48.0725 36.8183 47.9123 36.8184 47.7729 36.8288C47.5429 36.7644 47.8286 36.5988 47.4367 36.5988C47.6283 36.672 47.6231 36.7226 47.5464 36.7679L47.5935 36.9595L47.0795 37.0605C47.0969 37.0396 47.1283 36.9908 47.1666 36.9385C47.1283 36.9629 47.0969 36.9891 47.0969 37.0239H46.9332C47.0377 37.125 47.0969 37.287 47.3217 37.3149C47.3652 37.2365 47.4506 37.1808 47.569 37.1808C47.5952 37.1808 47.6248 37.1842 47.6544 37.1894ZM70.459 37.3445C70.783 37.3149 71.1001 37.3166 71.4189 37.3201C71.7726 37.3235 72.1297 37.3271 72.5078 37.287C71.959 37.287 71.412 37.2243 70.8649 37.1563C70.7221 37.1755 70.5879 37.2295 70.459 37.3445ZM127.42 37.1894C128.15 37.0605 128.652 37.0884 129.378 36.9595C128.821 36.8602 128.258 36.9124 127.662 36.9664C127.247 37.0012 126.814 37.0379 126.354 37.0239C126.46 37.1511 126.648 37.1232 126.845 37.0936C126.929 37.0831 127.014 37.0709 127.094 37.0709C127.218 37.0709 127.333 37.097 127.42 37.1894ZM61.4016 36.9909C61.487 37.0414 61.6003 37.0814 61.7292 37.1023C61.663 36.9699 61.656 36.8584 61.6804 36.7609C61.0706 36.7522 60.3529 36.7417 59.7727 36.7939C59.7466 36.7922 59.7135 36.7853 59.6873 36.7835C59.3964 36.8393 59.0881 36.8671 58.785 36.9055C58.6996 36.9333 58.6578 36.9786 58.6107 37.0187C58.6404 37.0222 58.6787 37.0187 58.7065 37.0239C59.1578 36.9595 59.7727 36.8288 60.278 36.8897C60.3929 37.0099 60.6003 36.9804 60.818 36.9508C60.9156 36.9368 61.0149 36.9246 61.1089 36.9246C61.2152 36.9246 61.3145 36.9403 61.4016 36.9909ZM48.0534 36.5988V36.6302L48.4297 36.5448L48.4332 36.5396L48.0534 36.5988ZM126.467 34.4612C126.204 34.6128 125.923 34.6425 125.641 34.6494L125.718 35.2016C126.249 35.1685 126.754 35.0727 127.192 34.855C127.474 34.9212 127.646 35.2173 127.927 34.9891C128.033 34.8549 128.15 34.956 128.261 34.9891C128.43 34.9211 128.932 34.8881 129.214 34.8236C129.157 34.6947 128.596 34.5954 128.261 34.5605C127.976 34.5954 127.754 34.7888 127.364 34.7243C127.192 34.625 127.192 34.5605 127.249 34.4299C127.868 34.3288 128.822 34.3288 129.378 34.4299C129.777 34.395 129.324 34.1999 129.495 34.0344H129.214C129.324 33.8027 130.559 33.8707 130.225 33.5397L130.169 33.5745L129.944 33.4456C130.451 33.2748 131.064 32.6564 131.794 32.8864C131.941 32.7104 132.152 32.7278 132.35 32.7453C132.53 32.7609 132.697 32.7766 132.803 32.6564C133.085 33.0814 133.535 32.6877 134.094 32.6877C133.422 32.4247 132.467 32.5536 131.852 32.6564C128.875 32.5222 125.904 32.6216 122.822 32.6216C122.65 32.7853 121.753 32.5868 121.974 32.9526C121.563 32.8254 121.484 33.0501 121.293 33.132C121.831 33.1076 122.533 33.1494 123.157 33.1494C123.333 33.3776 123.666 33.3167 124 33.2575C124.195 33.2226 124.39 33.1877 124.556 33.2103V33.3462C124.669 33.3462 124.728 33.3463 124.786 33.2749C124.843 33.3463 124.951 33.3776 124.894 33.4456C124.723 33.4734 124.505 33.4508 124.289 33.4281C124.014 33.4002 123.739 33.3706 123.551 33.4456H123.437C123.437 33.5431 123.615 33.5884 123.772 33.5989L124.183 33.5257L124.187 33.5902L123.99 33.6006C123.983 33.7069 123.925 33.8985 123.66 33.8707C122.822 33.6424 122.258 33.8393 121.471 34.003C122.145 33.9682 123.213 33.8706 124.166 34.003C124.728 34.0675 125.009 34.1669 125.399 34.3951C125.408 34.3829 125.418 34.3846 125.429 34.3741C125.5 34.2818 125.596 34.247 125.702 34.247C125.943 34.247 126.239 34.4177 126.467 34.4612ZM121.866 34.855C122.676 34.9281 123.709 35.1338 124.73 35.1982C124.782 34.6825 125.446 34.9264 125.497 34.6528C125.037 34.6511 124.585 34.6093 124.225 34.855C124.096 34.7505 123.934 34.8079 123.768 34.8654C123.568 34.9351 123.364 35.0048 123.213 34.7887L121.866 34.855ZM120.354 35.0117C120.563 35.0553 120.77 35.0971 121.078 34.9891C120.798 34.7556 120.185 34.8881 119.789 34.956V34.9891C119.868 34.9734 119.938 34.9664 120.004 34.9664C120.131 34.9664 120.242 34.9891 120.354 35.0117ZM119.397 34.003L119.735 34.0344C119.735 34.0031 119.681 34.003 119.681 33.9682C119.624 33.9682 119.568 33.9596 119.519 33.9596C119.469 33.9596 119.427 33.9682 119.397 34.003ZM119.286 33.3462L119.511 33.2103V33.0815L119.286 33.3462ZM126.03 31.6425C126.051 31.6407 126.065 31.6407 126.085 31.6407C126.115 31.6407 126.152 31.639 126.183 31.639C126.183 31.571 126.354 31.5396 126.41 31.4682C126.467 31.5048 126.467 31.5397 126.467 31.6076C126.746 31.3428 127.085 31.5048 127.474 31.5048L127.364 31.6076C128.314 31.6686 129.718 31.5049 130.617 31.2749C130.828 31.47 131.038 31.3969 131.267 31.3237C131.462 31.2627 131.672 31.1982 131.908 31.308L132.298 30.9788C132.634 31.0746 132.916 31.3428 133.307 31.1076C133.758 31.2749 134.319 31.1791 134.824 31.0432L134.993 30.8829H134.603C134.876 30.7836 135.158 30.6146 135.496 30.5223C135.55 30.6146 135.437 30.747 135.327 30.8498C135.667 30.8498 136.453 30.8829 136.897 30.8115C136.956 30.5502 136.503 30.4892 136.284 30.322C135.833 30.322 135.103 30.3533 134.655 30.5223C133.812 30.2871 133.476 30.5501 132.634 30.6146C132.298 30.747 131.348 30.8115 130.895 30.8115L130.953 30.9108L130.225 31.1076C130.225 30.8498 130.277 30.8828 130.784 30.7835C130.613 30.794 130.465 30.7836 130.321 30.7731C130.127 30.7592 129.941 30.7452 129.718 30.7835C129.718 30.7835 129.777 30.8115 129.777 30.8498C128.875 30.5867 127.531 30.8115 126.41 30.8115C126.183 30.8829 125.904 30.9787 125.904 31.1791C125.342 31.1791 125.342 31.4682 124.786 31.4403V31.639L125.065 31.5048C125.261 31.7626 125.669 31.6529 126.03 31.6425ZM127.596 20.5206C127.69 20.5258 127.784 20.5555 127.868 20.6496C127.833 20.606 127.819 20.559 127.8 20.5137C127.775 20.512 127.749 20.5119 127.725 20.5119C127.683 20.5119 127.639 20.5137 127.596 20.5206ZM127.112 20.6112V20.6217C127.15 20.6078 127.19 20.5991 127.228 20.5852C127.19 20.5939 127.146 20.6025 127.112 20.6112ZM132.169 20.5852C132.253 20.4231 132.247 20.3308 132.204 20.2681C132.071 20.2872 131.937 20.2855 131.805 20.282C131.943 20.3604 132.066 20.451 132.169 20.5852ZM130.195 19.4997C130.387 19.5084 130.577 19.5259 130.765 19.5608C131.098 19.6113 131.314 19.7053 131.533 19.8307C131.516 19.7645 131.516 19.6809 131.538 19.5712L131.77 19.5625C132.408 19.5991 131.805 18.9945 132.073 18.6461C132.237 18.4283 132.693 18.3395 132.869 18.5294C132.983 18.4597 133.204 18.3116 133.085 18.1757C133.023 18.106 133.007 18.0556 132.996 18.0085C131.89 18.019 130.777 18.0399 129.641 18.0399C129.502 18.2228 128.753 18.005 128.939 18.404C128.592 18.2664 128.528 18.512 128.366 18.6043C128.817 18.573 129.402 18.6218 129.923 18.6218C130.07 18.8709 130.347 18.8064 130.625 18.7419C130.789 18.7018 130.953 18.6653 131.094 18.6914V18.8395C131.186 18.8395 131.234 18.8395 131.282 18.7646C131.329 18.8395 131.42 18.8726 131.376 18.9476C131.23 18.9789 131.049 18.9544 130.866 18.9283C130.636 18.8969 130.406 18.8657 130.249 18.9476H130.157C130.157 19.127 130.578 19.1618 130.624 19.0904C130.624 19.2001 130.578 19.451 130.341 19.4162C130.26 19.3883 130.192 19.3831 130.115 19.3656C130.141 19.4092 130.166 19.4614 130.195 19.4997ZM126.786 19.5608L127.065 19.5955C127.065 19.5607 127.019 19.5607 127.019 19.5259C126.972 19.5259 126.923 19.5155 126.882 19.5155C126.842 19.5155 126.808 19.5259 126.786 19.5608ZM128.517 19.5608C128.695 19.5486 128.913 19.5328 129.143 19.5172C129.233 19.4492 129.328 19.3848 129.422 19.3256C129.131 19.3691 128.848 19.4702 128.517 19.5608ZM134.976 18.1513C135.233 18.7559 135.254 19.1096 135.768 19.2838C135.782 19.2768 135.796 19.2698 135.808 19.2645L135.829 19.2454C135.876 19.2001 135.888 19.1392 135.824 19.0521L135.775 19.0904L135.592 18.9476C135.666 18.9145 135.746 18.8552 135.827 18.7994C135.758 18.5259 135.763 18.2802 135.803 18.0485C135.145 18.0328 134.486 18.0085 133.824 18.0119C133.939 18.3639 134.146 18.2577 134.378 18.1496C134.49 18.0974 134.608 18.0451 134.725 18.0451C134.81 18.0451 134.894 18.0729 134.976 18.1513ZM126.69 18.8395L126.876 18.6914V18.5451L126.69 18.8395ZM131.594 16.8796L131.817 16.904C131.822 16.9423 131.847 16.9545 131.859 16.9823C131.941 16.9841 132.026 16.9754 132.115 16.9667C132.228 16.9545 132.345 16.9441 132.451 16.9563C132.451 16.8831 132.594 16.8482 132.638 16.7733C132.686 16.8099 132.686 16.8483 132.686 16.9197C132.922 16.6305 133.199 16.8099 133.53 16.8099L133.437 16.9197C133.868 16.9598 134.404 16.9196 134.93 16.836L134.624 16.7681C134.528 16.4771 134.336 16.2245 134.19 15.9597C133.674 15.9824 133.132 16.0486 132.638 16.0486C132.577 16.0713 132.519 16.1095 132.458 16.1426C132.657 16.2053 132.855 16.2698 133.054 16.3552C133.159 16.505 133.3 16.4406 133.439 16.3761C133.622 16.2925 133.807 16.2088 133.925 16.5921C133.852 16.5398 133.775 16.5921 133.697 16.6444C133.582 16.7211 133.463 16.7977 133.35 16.5538C133.179 16.7472 132.997 16.681 132.836 16.6166C132.634 16.5347 132.463 16.4528 132.387 16.8761C132.136 16.9458 132.124 16.6932 132.08 16.4719C131.756 16.5312 131.69 16.7698 131.282 16.7402V16.9563L131.42 16.8691C131.413 16.8656 131.415 16.8621 131.409 16.8552L131.437 16.8605L131.516 16.8099C131.535 16.8464 131.566 16.8535 131.594 16.8796ZM135.585 16.7107C135.789 16.6636 135.984 16.613 136.153 16.5538C136.333 16.7803 136.521 16.6898 136.723 16.6061C136.763 16.4145 136.848 16.1931 136.897 16.0207C136.704 16.0363 136.517 16.0486 136.385 16.0486L136.432 16.1566L136.31 16.2019C136.293 16.2715 136.254 16.3431 136.157 16.4162C136.045 16.4232 135.984 16.4267 135.923 16.3622L135.585 16.7107ZM140.805 15.512C140.852 15.782 140.948 16.0225 141.247 16.0364C141.261 16.0434 141.286 16.0521 141.305 16.0591C141.333 16.0538 141.369 16.0521 141.397 16.0486C141.442 15.7594 141.066 15.6879 140.88 15.5068C140.859 15.5068 140.829 15.512 140.805 15.512ZM81.5895 10.5121C81.7324 10.6584 82.154 10.7681 82.3892 10.7298L82.8543 10.6585C82.5512 10.5975 82.1871 10.4929 81.8334 10.4929C81.7515 10.4929 81.6697 10.4981 81.5895 10.5121ZM44.8287 10.0434C44.8304 10.0452 44.8304 10.0487 44.8356 10.0487C44.9053 10.0852 44.968 10.1236 45.0238 10.1671L45.529 10.0765C45.4802 9.9685 45.3896 9.82565 45.2468 9.85875C45.2224 9.85526 45.198 9.85354 45.1754 9.85354C45.0151 9.85354 44.8653 9.94763 44.8287 10.0434ZM139.427 9.17068C139.334 9.42677 139.334 9.60791 139.427 9.82568C139.378 9.4999 139.895 9.67934 139.801 9.39015C139.752 9.39015 139.662 9.4267 139.662 9.35527L139.801 9.20896C139.944 9.42672 140.131 9.28039 140.366 9.39015V9.71595C140.509 9.68807 140.697 9.7194 140.89 9.74902C141.258 9.80999 141.645 9.86751 141.768 9.53476C141.939 9.73162 142.108 9.66367 142.279 9.59398C142.388 9.55043 142.5 9.50688 142.611 9.53476L143.268 8.99119C142.568 9.13753 141.533 9.10097 140.596 9.06264V8.95631C140.223 9.1375 139.848 9.17068 139.427 9.17068ZM137.836 9.71595C138.024 9.8588 137.976 9.60788 138.071 9.57304C137.976 9.57304 137.93 9.64103 137.836 9.71595ZM138.118 9.49988C138.542 9.39013 138.775 9.49987 138.963 9.1375C138.895 9.18628 138.76 9.18458 138.615 9.1811C138.58 9.17936 138.543 9.1794 138.509 9.1794C138.279 9.1794 138.064 9.21417 138.118 9.49988ZM136.385 9.49988C136.385 9.42671 136.528 9.46506 136.528 9.39015H136.385V9.49988ZM137.554 9.39015L137.93 9.31699H137.509L137.554 9.39015ZM130.436 8.74035C130.578 8.84837 130.672 8.84837 130.814 8.74035C130.78 8.74035 130.667 8.66018 130.566 8.66018C130.516 8.66018 130.469 8.67938 130.436 8.74035ZM138.357 8.60616C138.5 8.73334 138.634 8.8605 138.868 8.70197C138.963 8.26992 139.801 8.66895 139.895 8.19509C139.624 8.36582 139.585 8.18985 139.529 8.0139C139.479 7.85188 139.413 7.69334 139.145 7.79613C139.334 8.23166 138.071 7.90588 137.93 8.44943C137.965 8.44072 137.996 8.4372 138.024 8.4372C138.162 8.4372 138.261 8.5208 138.357 8.60616ZM73.8666 8.44943H74.0496V8.41105H73.8666V8.44943ZM75.9711 8.26994C75.9241 8.30478 75.8318 8.34142 75.8753 8.41285C76.067 8.37453 76.4363 8.30484 76.5791 8.19509C76.5356 8.16198 76.4432 8.13575 76.337 8.13575C76.2133 8.13575 76.0722 8.17064 75.9711 8.26994ZM76.8126 7.97732V7.90586H76.6715L76.8126 7.97732ZM146.502 7.21949C147.057 7.18117 147.249 7.00163 147.484 6.7107H146.685V6.82054L146.406 6.74908C146.592 6.89194 146.218 7.14632 146.502 7.21949ZM59.9992 7.21949L60.1421 7.14623L60.095 7.10965C60.0759 7.10442 60.0602 7.10274 60.048 7.10274C59.9748 7.10274 60.041 7.18639 59.9992 7.21949ZM119.025 5.63579C119.005 5.65669 118.984 5.67069 118.964 5.69682H119.103C119.103 5.66721 119.063 5.66018 119.025 5.63579L119.035 5.62537H119.385C119.385 5.55394 119.289 5.48083 119.246 5.44599C119.148 5.52438 119.089 5.57136 119.035 5.62537H119.011C119.018 5.63234 119.018 5.6323 119.025 5.63579ZM138.899 39.6388L138.916 39.6528C138.908 39.6493 138.902 39.6441 138.899 39.6388ZM114.326 4.54174C114.296 4.57136 114.267 4.59235 114.239 4.60629C114.269 4.58364 114.298 4.56265 114.326 4.54174Z" fill="#3D8BFF"/>
<path d="M178.303 16.3463C178.341 16.3916 178.365 16.4092 178.355 16.4441C178.343 16.411 178.327 16.3794 178.303 16.3463ZM178.289 16.3289C178.294 16.3341 178.297 16.3411 178.303 16.3463C178.297 16.3411 178.292 16.3358 178.289 16.3289Z" fill="#3D8BFF"/>
<path d="M27.0762 41.219L27.4803 41.2782L27.2522 41.2886L27.0762 41.219Z" fill="#3D8BFF"/>
<path d="M34.4175 42.332L34.6997 42.1821C34.6509 42.3198 34.7728 42.4557 34.6596 42.5306C34.6561 42.5306 34.6509 42.5306 34.6474 42.5306C34.5324 42.5306 34.4262 42.4678 34.4175 42.332Z" fill="#3D8BFF"/>
<path d="M42.4802 40.0691C42.4367 40.0447 42.3931 40.0221 42.3513 40.0116C42.3966 40.0047 42.4558 39.9802 42.5168 39.9558C42.6684 39.8966 42.8321 39.8357 42.806 40.0569C42.7607 40.1144 42.712 40.1353 42.6632 40.1353C42.604 40.1353 42.5412 40.1022 42.4802 40.0691ZM42.2886 40.0046C42.3095 40.0029 42.3304 40.0064 42.3513 40.0116C42.3426 40.0134 42.3339 40.0133 42.3269 40.0133C42.3112 40.0133 42.299 40.0098 42.2886 40.0046Z" fill="#3D8BFF"/>
<path d="M43.2085 39.9609L43.3305 40.1648L43.2172 40.1683L43.2085 39.9609Z" fill="#3D8BFF"/>
<path d="M44.8598 43.3669C45.2587 43.2119 45.8284 43.1857 46.2012 43.6474C45.8475 43.5969 45.5079 43.6805 45.2291 43.9035C45.0514 43.7693 44.7692 43.7833 44.8598 43.3669Z" fill="#3D8BFF"/>
<path d="M48.6211 40.3964C49.2274 39.879 49.9521 40.6091 50.642 40.6422C50.5758 40.7798 50.4765 40.7205 50.3824 40.6595C50.3319 40.6264 50.2796 40.5933 50.2361 40.5951C50.135 40.8024 49.8058 41.1056 49.9887 41.4418L49.8737 41.447C49.7761 41.4818 49.6873 41.4975 49.6072 41.4975C49.1228 41.4975 48.8911 40.9261 48.6211 40.3964Z" fill="#3D8BFF"/>
<path d="M54.3862 40.8166L54.841 40.7939L54.7974 41.0744L54.3862 40.8166Z" fill="#3D8BFF"/>
<path d="M56.3843 41.123C56.2606 41.1369 56.1508 41.1508 56.1143 41.0114L56.8007 40.9766L56.6962 41.1926C56.6091 41.0968 56.4923 41.109 56.3843 41.123Z" fill="#3D8BFF"/>
<path d="M56.4277 41.5516C56.5392 41.5464 56.825 41.454 56.6072 41.6753L56.433 41.684L56.4277 41.5516Z" fill="#3D8BFF"/>
<path d="M56.8896 41.5952L57.1719 41.5813C57.1213 41.7189 57.0726 41.7973 56.9001 41.806L56.8896 41.5952Z" fill="#3D8BFF"/>
<path d="M62.5811 41.7414C62.8581 41.5829 63.0897 41.5724 63.3232 41.7048C63.2187 41.6438 63.0932 41.6995 62.9713 41.7518C62.8894 41.7901 62.8076 41.8268 62.7344 41.8268C62.6769 41.8268 62.6246 41.8041 62.5811 41.7414Z" fill="#3D8BFF"/>
<path d="M64.1437 39.7938C64.1995 39.6736 64.3632 39.5551 64.4294 39.6317L64.3319 39.9802C64.3214 39.9819 64.3127 39.9819 64.304 39.9819C64.1228 39.9819 64.1019 39.8879 64.1437 39.7938Z" fill="#3D8BFF"/>
<path d="M66.9448 41.7974L67.41 41.9193L67.0702 42.0134L66.9448 41.7974Z" fill="#3D8BFF"/>
<path d="M68.3823 39.5707L68.6767 39.5586L68.5844 39.9836C68.5165 39.8442 68.3387 39.785 68.3823 39.5707Z" fill="#3D8BFF"/>
<path d="M77.5527 42.6821L78.0196 42.8808L77.5667 42.9591L77.5527 42.6821Z" fill="#3D8BFF"/>
<path d="M77.7949 46.4382L78.1956 46.4939L78.0806 46.501L77.7949 46.4382Z" fill="#3D8BFF"/>
<path d="M78.8214 42.8426L78.8301 42.975L78.5984 42.9872C78.5915 42.853 78.7082 42.7608 78.8214 42.8426Z" fill="#3D8BFF"/>
<path d="M79.4048 46.637L80.0371 46.6823L79.8699 46.6892L79.4048 46.637Z" fill="#3D8BFF"/>
<path d="M83.3976 47.2101C83.3279 46.9349 83.0405 47.015 83.1398 46.6753L84.0718 46.9662C84.0109 47.1927 83.8733 47.2554 83.7078 47.2554C83.6102 47.2554 83.5039 47.2328 83.3976 47.2101Z" fill="#3D8BFF"/>
<path d="M93.1139 39.9156C93.0251 39.9034 92.9363 39.893 92.8614 39.9191L92.8491 39.6421L93.4781 39.6787C93.4624 39.8825 93.37 39.9278 93.2533 39.9278C93.2097 39.9278 93.161 39.9208 93.1139 39.9156Z" fill="#3D8BFF"/>
<path d="M101.488 47.3861L102.46 47.2625L102.358 47.5464L101.488 47.3861Z" fill="#3D8BFF"/>
<path d="M102.634 47.332L102.924 47.3756L102.81 47.379L102.634 47.332Z" fill="#3D8BFF"/>
<path d="M110.739 42.818L110.967 42.8076L110.979 43.0829C110.924 43.0202 110.695 43.0985 110.739 42.818Z" fill="#3D8BFF"/>
<path d="M111.31 42.7903L111.61 42.9105L111.321 43.001L111.31 42.7903Z" fill="#3D8BFF"/>
<path d="M119.471 38.0742L119.697 38.1404C119.706 38.2728 119.77 38.4035 119.657 38.4871C119.591 38.5132 119.542 38.5237 119.505 38.5237C119.33 38.5237 119.478 38.2484 119.471 38.0742Z" fill="#3D8BFF"/>
<path d="M124.428 43.9384C124.505 43.9593 124.491 43.6179 124.672 43.6092C124.942 43.3705 124.974 43.7468 125.099 43.9245L124.854 43.7346C124.794 43.8809 124.69 43.9611 124.754 44.0935C124.728 44.1057 124.702 44.1109 124.678 44.1109C124.584 44.1109 124.503 44.0308 124.428 43.9384ZM125.099 43.9245L125.204 44.0047C125.162 43.9942 125.129 43.9646 125.099 43.9245ZM124.338 43.8252C124.368 43.8618 124.397 43.9018 124.428 43.9384C124.408 43.9332 124.38 43.9001 124.338 43.8252Z" fill="#3D8BFF"/>
<path d="M129.681 41.0673C129.657 41.0621 129.629 41.0604 129.599 41.0621L129.596 40.9942L129.824 40.9819C129.8 41.0568 129.772 41.0743 129.735 41.0743C129.719 41.0743 129.7 41.0708 129.681 41.0673Z" fill="#3D8BFF"/>
<path d="M138.92 45.7519C139.281 45.6666 139.634 45.4993 139.814 45.7972C139.718 45.8669 139.62 45.8895 139.524 45.8895C139.319 45.8895 139.115 45.778 138.92 45.7519Z" fill="#3D8BFF"/>
<path d="M138.92 45.7519C138.871 45.7641 138.828 45.7625 138.779 45.7695C138.828 45.7625 138.871 45.7484 138.92 45.7519Z" fill="#3D8BFF"/>
<path d="M138.556 45.7922C138.608 45.7974 138.664 45.7887 138.718 45.78C138.664 45.7904 138.61 45.8095 138.557 45.8583L138.556 45.7922Z" fill="#3D8BFF"/>
<path d="M141.193 45.6648L140.733 45.6856C140.895 45.6107 141.291 45.3128 141.193 45.6648Z" fill="#3D8BFF"/>
<path d="M145.097 42.198C144.984 42.1353 144.932 42.273 144.815 42.28C144.496 41.604 143.935 41.9089 143.731 41.1528C144.021 41.205 144.054 40.7817 143.928 40.5884C144.371 40.2783 144.897 40.3967 145.425 40.6493C145.507 41.1336 146.331 41.658 145.67 42.1701C145.566 42.1144 145.468 42.1667 145.378 42.219C145.317 42.2538 145.259 42.2904 145.209 42.2904C145.167 42.2904 145.13 42.2659 145.097 42.198Z" fill="#3D8BFF"/>
<path d="M156.348 40.8862C156.362 41.1719 156.44 41.5796 156.331 41.7974L156.102 41.8096C155.627 41.4856 156.365 41.2399 156.348 40.8862Z" fill="#3D8BFF"/>
<path d="M158.837 37.9104C158.972 37.9993 159.064 37.8756 159.154 37.7519C159.264 37.6021 159.376 37.4523 159.573 37.6735C159.294 37.8199 159.376 38.2293 159.033 38.245L158.837 37.9104Z" fill="#3D8BFF"/>
<path d="M157.453 6.87622L157.576 7.08176L157.465 7.08697L157.453 6.87622Z" fill="#3D8BFF"/>
<path d="M162.224 39.069C162.108 38.7171 161.954 38.731 161.768 38.7449C161.627 38.7571 161.465 38.7676 161.289 38.6247C161.094 38.2223 160.886 37.5238 161.043 37.1805L160.916 36.9749C160.712 37.3965 160.033 37.5638 159.771 38.1439C159.855 37.515 160.529 37.2031 160.381 36.4348C160.759 36.5307 161.122 36.4279 161.46 36.3234C161.944 36.1736 162.374 36.0255 162.735 36.4662C162.932 37.0132 163.589 37.5359 163.156 38.1892C162.918 38.5829 162.777 39.0846 162.36 39.0846C162.319 39.0846 162.273 39.0795 162.224 39.069Z" fill="#3D8BFF"/>
<path d="M160.333 37.9053L160.23 38.1214C160.097 37.8496 160.333 37.9054 160.387 37.8357L160.465 38.1754L160.333 37.9053Z" fill="#3D8BFF"/>
<path d="M160.945 38.7189L160.933 38.5081L161.057 38.6352C161.015 38.6945 161.006 38.7398 160.982 38.7398C160.971 38.7398 160.961 38.7346 160.945 38.7189Z" fill="#3D8BFF"/>
<path d="M169.471 27.4211C169.637 27.3462 169.71 27.6215 169.715 27.7644L169.602 27.7679C169.543 27.693 169.421 27.6337 169.471 27.4211Z" fill="#3D8BFF"/>
<path d="M109.082 5.69666L109.349 5.60957C109.289 5.65138 109.272 5.74373 109.397 5.79948C109.307 5.76812 109.115 5.83254 109.082 5.69666ZM109.411 5.58862L109.349 5.60957C109.366 5.59563 109.389 5.58862 109.411 5.58862Z" fill="#3D8BFF"/>
<path d="M151.322 6.3499C151.04 6.28021 150.712 6.13207 150.764 5.87598H150.947C151.322 5.9143 151.79 6.06248 151.369 6.38477L151.322 6.3499Z" fill="#3D8BFF"/>
<path d="M148.794 6.24194H148.983C148.983 6.28027 148.887 6.34998 148.794 6.34998V6.24194Z" fill="#3D8BFF"/>
<path d="M138.397 6.67749C138.258 6.85693 138.493 6.89175 138.211 6.89175L138.397 6.67749Z" fill="#3D8BFF"/>
<path d="M136.284 7.83427C136.293 7.84472 136.315 7.85166 136.342 7.86733C136.476 7.83423 136.667 7.79593 136.714 7.65308C136.808 8.12345 136.153 7.94405 135.868 8.12349C135.908 7.93534 136.242 7.90918 136.284 7.83427Z" fill="#3D8BFF"/>
<path d="M136.618 16.2661C136.618 16.3741 136.385 16.3741 136.246 16.4455C136.341 16.3741 136.432 16.1929 136.618 16.2661Z" fill="#3D8BFF"/>
<path d="M135.31 8.0138C135.359 8.07129 135.463 8.04687 135.549 8.02422C135.624 8.00158 135.685 7.9807 135.685 8.0138C135.685 8.05213 135.636 8.12354 135.728 8.12354L135.31 8.23157V8.0138Z" fill="#3D8BFF"/>
<path d="M134.279 7.47363H134.467V7.54498H134.279V7.47363Z" fill="#3D8BFF"/>
<path d="M134.09 7.65308C133.716 7.79593 133.576 7.90572 133.155 7.90572L134.09 7.65308Z" fill="#3D8BFF"/>
<path d="M132.594 7.68789C132.638 7.65305 132.777 7.50673 132.922 7.47363C132.85 7.5799 132.725 7.75063 132.65 7.75063C132.624 7.75063 132.605 7.73144 132.594 7.68789Z" fill="#3D8BFF"/>
<path d="M131.843 18.1128H132.077V18.1841H131.843V18.1128Z" fill="#3D8BFF"/>
<path d="M131.469 7.86743H131.559L131.608 7.90582L131.469 7.86743Z" fill="#3D8BFF"/>
<path d="M124.629 7.1462L124.911 7.10962V7.1462H124.629Z" fill="#3D8BFF"/>
<path d="M98.6362 8.77686C98.7791 8.77686 98.9672 8.80991 99.0578 8.88308C99.0265 8.94231 98.9689 8.96676 98.9062 8.96676C98.7825 8.96676 98.6362 8.87267 98.6362 8.77686Z" fill="#3D8BFF"/>
<path d="M93.166 8.84817H93.2967C93.4848 8.84817 93.5789 8.66871 93.6277 8.52237C94.0963 8.52237 94.8455 8.01368 95.2653 8.44922C95.0075 8.8081 94.5092 8.88124 94.004 8.88124C93.713 8.88124 93.4186 8.85688 93.166 8.84817Z" fill="#3D8BFF"/>
<path d="M89.4116 9.82563L89.4587 9.78735L89.6938 9.93367L89.4116 9.82563Z" fill="#3D8BFF"/>
<path d="M80.187 8.95625L80.3717 8.7019C80.3717 8.94929 80.4954 8.87786 80.6452 8.80643C80.7567 8.75068 80.8839 8.69847 80.9849 8.77687C80.9222 8.94063 80.701 8.99814 80.4902 8.99814C80.3769 8.99814 80.2672 8.98238 80.187 8.95625Z" fill="#3D8BFF"/>
<path d="M69.9292 8.63041V8.44922L70.0233 8.63041H69.9292Z" fill="#3D8BFF"/>
<path d="M69.8354 8.99121L69.9295 9.13752L69.6943 9.20898C69.7902 9.17065 69.7901 9.06264 69.8354 8.99121Z" fill="#3D8BFF"/>
</svg>
