<svg width="34" height="34" viewBox="0 0 34 34" fill="none" xmlns="http://www.w3.org/2000/svg">
<rect width="34" height="34" rx="2" fill="#E6E7EE"/>
<path d="M13 22H9C8.46957 22 7.96086 22.2107 7.58579 22.5858C7.21071 22.9609 7 23.4696 7 24C7 24.5304 7.21071 25.0391 7.58579 25.4142C7.96086 25.7893 8.46957 26 9 26H11C11.5304 26 12.0391 25.7893 12.4142 25.4142C12.7893 25.0391 13 24.5304 13 24V22ZM25 20H21C20.4696 20 19.9609 20.2107 19.5858 20.5858C19.2107 20.9609 19 21.4696 19 22C19 22.5304 19.2107 23.0391 19.5858 23.4142C19.9609 23.7893 20.4696 24 21 24H23C23.5304 24 24.0391 23.7893 24.4142 23.4142C24.7893 23.0391 25 22.5304 25 22V20Z" stroke="#6C6E86" stroke-width="2" stroke-linecap="round" stroke-linejoin="round"/>
<path d="M13 22V10L25 8V20" stroke="#6C6E86" stroke-width="2" stroke-linecap="round" stroke-linejoin="round"/>
</svg>
