<svg width="34" height="34" viewBox="0 0 34 34" fill="none" xmlns="http://www.w3.org/2000/svg">
<rect width="34" height="34" rx="2" fill="#E6E7EE"/>
<path d="M24 8H10C8.89543 8 8 8.89543 8 10V24C8 25.1046 8.89543 26 10 26H24C25.1046 26 26 25.1046 26 24V10C26 8.89543 25.1046 8 24 8Z" stroke="#6C6E86" stroke-width="2" stroke-linecap="round" stroke-linejoin="round"/>
<path d="M13.5 15C14.3284 15 15 14.3284 15 13.5C15 12.6716 14.3284 12 13.5 12C12.6716 12 12 12.6716 12 13.5C12 14.3284 12.6716 15 13.5 15Z" stroke="#6C6E86" stroke-width="2" stroke-linecap="round" stroke-linejoin="round"/>
<path d="M26 20L21 15L10 26" stroke="#6C6E86" stroke-width="2" stroke-linecap="round" stroke-linejoin="round"/>
</svg>
