<svg width="111" height="111" viewBox="0 0 111 111" fill="none" xmlns="http://www.w3.org/2000/svg">
<path d="M55.1823 0C24.7896 0 0 24.6198 0 55.1823C0 85.2354 24.7896 110.365 55.1823 110.365C85.575 110.365 110.365 85.2354 110.365 55.1823C110.365 24.6198 85.575 0 55.1823 0ZM55.1823 20.0354C74.5385 20.0354 90.3292 35.6562 90.3292 55.1823C90.3292 74.199 74.5385 90.3292 55.1823 90.3292C35.826 90.3292 20.0354 74.199 20.0354 55.1823C20.0354 35.6562 35.826 20.0354 55.1823 20.0354Z" fill="#34495E"/>
<path d="M80.3118 11.5461C56.2014 -2.5466 25.6389 5.94298 11.716 30.0534C-2.20697 53.6544 6.11283 84.7263 30.0535 98.3096C53.9941 112.402 84.7264 103.743 98.6493 80.3117C112.402 56.2013 104.252 25.6388 80.3118 11.5461ZM60.2764 46.1836C65.0305 49.2399 66.7285 55.1826 64.0118 60.2763C61.2951 64.8607 55.1826 66.219 50.2587 63.8419C45.5045 60.7857 43.8066 54.843 46.5232 50.2586C49.2399 45.1648 55.3524 43.6367 60.2764 46.1836Z" fill="#34495E"/>
<path d="M25.7669 14.2339C14.3768 22.607 7.21038 35.1195 5.50889 48.2106L45.625 53.8171C46.005 50.7567 47.3982 48.7305 49.6441 46.8852L25.7669 14.2339ZM105.553 61.3724L65.4372 55.7659C65.0572 58.8264 63.493 60.8505 61.2471 62.6958L85.1264 95.1767C96.6854 86.976 103.852 74.4636 105.553 61.3724Z" fill="#606F7F"/>
<path d="M55.1829 35.147C44.1464 35.147 35.1475 44.1459 35.1475 55.1824C35.1475 66.2188 44.1464 75.2178 55.1829 75.2178C66.2193 75.2178 75.2183 66.2188 75.2183 55.1824C75.2183 44.1459 66.2193 35.147 55.1829 35.147ZM55.1829 50.0886C57.8995 50.0886 60.2766 52.1261 60.2766 55.1824C60.2766 57.7293 58.0693 60.2761 55.1829 60.2761C52.2964 60.2761 50.0891 57.7293 50.0891 55.1824C50.0891 52.1261 52.4662 50.0886 55.1829 50.0886Z" fill="#2BDE92"/>
</svg>
