<svg width="69" height="48" viewBox="0 0 69 48" fill="none" xmlns="http://www.w3.org/2000/svg">
<path d="M45 0C31.7815 0 21 10.7077 21 24C21 37.0708 31.7815 48 45 48C58.2185 48 69 37.0708 69 24C69 10.7077 58.2185 0 45 0ZM45 8.71385C53.4185 8.71385 60.2862 15.5077 60.2862 24C60.2862 32.2708 53.4185 39.2862 45 39.2862C36.5815 39.2862 29.7138 32.2708 29.7138 24C29.7138 15.5077 36.5815 8.71385 45 8.71385Z" fill="#39435C"/>
<path d="M55.9293 5.02156C45.4432 -1.10767 32.1509 2.58464 26.0955 13.0708C20.0401 23.3354 23.6586 36.8493 34.0709 42.757C44.4832 48.8862 57.8493 45.12 63.9047 34.9293C69.8863 24.4431 66.3416 11.1508 55.9293 5.02156ZM47.2155 20.0862C49.2832 21.4154 50.0216 24 48.8401 26.2154C47.6586 28.2093 45.0001 28.8 42.8586 27.7662C40.7909 26.4369 40.0524 23.8523 41.234 21.8585C42.4155 19.6431 45.074 18.9785 47.2155 20.0862Z" fill="#39435C"/>
<path d="M32.2066 6.19079C27.2528 9.83244 24.136 15.2744 23.396 20.968L40.8434 23.4064C41.0086 22.0753 41.6145 21.1941 42.5914 20.3915L32.2066 6.19079ZM66.9075 26.6924L49.4601 24.254C49.2948 25.585 48.6146 26.4654 47.6378 27.2679L58.0234 41.3946C63.0507 37.8279 66.1675 32.386 66.9075 26.6924Z" fill="#46516C"/>
<path d="M45.0002 15.2864C40.2002 15.2864 36.2864 19.2002 36.2864 24.0002C36.2864 28.8002 40.2002 32.7141 45.0002 32.7141C49.8002 32.7141 53.7141 28.8002 53.7141 24.0002C53.7141 19.2002 49.8002 15.2864 45.0002 15.2864ZM45.0002 21.7848C46.1818 21.7848 47.2156 22.671 47.2156 24.0002C47.2156 25.1079 46.2556 26.2156 45.0002 26.2156C43.7448 26.2156 42.7848 25.1079 42.7848 24.0002C42.7848 22.671 43.8187 21.7848 45.0002 21.7848Z" fill="#2BDE92"/>
<path d="M35 0C21.7815 0 11 10.7077 11 24C11 37.0708 21.7815 48 35 48C48.2185 48 59 37.0708 59 24C59 10.7077 48.2185 0 35 0ZM35 8.71385C43.4185 8.71385 50.2862 15.5077 50.2862 24C50.2862 32.2708 43.4185 39.2862 35 39.2862C26.5815 39.2862 19.7138 32.2708 19.7138 24C19.7138 15.5077 26.5815 8.71385 35 8.71385Z" fill="#45546F"/>
<path d="M45.9293 5.02156C35.4432 -1.10767 22.1509 2.58464 16.0955 13.0708C10.0401 23.3354 13.6586 36.8493 24.0709 42.757C34.4832 48.8862 47.8493 45.12 53.9047 34.9293C59.8863 24.4431 56.3416 11.1508 45.9293 5.02156ZM37.2155 20.0862C39.2832 21.4154 40.0216 24 38.8401 26.2154C37.6586 28.2093 35.0001 28.8 32.8586 27.7662C30.7909 26.4369 30.0524 23.8523 31.234 21.8585C32.4155 19.6431 35.074 18.9785 37.2155 20.0862Z" fill="#45546F"/>
<path d="M22.2066 6.19079C17.2528 9.83244 14.136 15.2744 13.396 20.968L30.8434 23.4064C31.0086 22.0753 31.6145 21.1941 32.5914 20.3915L22.2066 6.19079ZM56.9075 26.6924L39.4601 24.254C39.2948 25.585 38.6146 26.4654 37.6378 27.2679L48.0234 41.3946C53.0507 37.8279 56.1675 32.386 56.9075 26.6924Z" fill="#566885"/>
<path d="M35.0002 15.2864C30.2002 15.2864 26.2864 19.2002 26.2864 24.0002C26.2864 28.8002 30.2002 32.7141 35.0002 32.7141C39.8002 32.7141 43.7141 28.8002 43.7141 24.0002C43.7141 19.2002 39.8002 15.2864 35.0002 15.2864ZM35.0002 21.7848C36.1818 21.7848 37.2156 22.671 37.2156 24.0002C37.2156 25.1079 36.2556 26.2156 35.0002 26.2156C33.7448 26.2156 32.7848 25.1079 32.7848 24.0002C32.7848 22.671 33.8187 21.7848 35.0002 21.7848Z" fill="#2BDE92"/>
<path d="M24 0C10.7815 0 0 10.7077 0 24C0 37.0708 10.7815 48 24 48C37.2185 48 48 37.0708 48 24C48 10.7077 37.2185 0 24 0ZM24 8.71385C32.4185 8.71385 39.2862 15.5077 39.2862 24C39.2862 32.2708 32.4185 39.2862 24 39.2862C15.5815 39.2862 8.71385 32.2708 8.71385 24C8.71385 15.5077 15.5815 8.71385 24 8.71385Z" fill="#5B6D89"/>
<path d="M34.9293 5.02156C24.4432 -1.10767 11.1509 2.58464 5.0955 13.0708C-0.959886 23.3354 2.65857 36.8493 13.0709 42.757C23.4832 48.8862 36.8493 45.12 42.9047 34.9293C48.8863 24.4431 45.3416 11.1508 34.9293 5.02156ZM26.2155 20.0862C28.2832 21.4154 29.0217 24 27.8401 26.2154C26.6586 28.2093 24.0001 28.8 21.8586 27.7662C19.7909 26.4369 19.0524 23.8523 20.234 21.8585C21.4155 19.6431 24.074 18.9785 26.2155 20.0862Z" fill="#5B6D89"/>
<path d="M11.2066 6.19079C6.25282 9.83244 3.13599 15.2744 2.39598 20.968L19.8434 23.4064C20.0086 22.0753 20.6145 21.1941 21.5914 20.3915L11.2066 6.19079ZM45.9075 26.6924L28.4601 24.254C28.2948 25.585 27.6146 26.4654 26.6378 27.2679L37.0234 41.3946C42.0507 37.8279 45.1675 32.386 45.9075 26.6924Z" fill="#7389AA"/>
<path d="M24.0002 15.2864C19.2002 15.2864 15.2864 19.2002 15.2864 24.0002C15.2864 28.8002 19.2002 32.7141 24.0002 32.7141C28.8002 32.7141 32.7141 28.8002 32.7141 24.0002C32.7141 19.2002 28.8002 15.2864 24.0002 15.2864ZM24.0002 21.7848C25.1818 21.7848 26.2156 22.671 26.2156 24.0002C26.2156 25.1079 25.2556 26.2156 24.0002 26.2156C22.7448 26.2156 21.7848 25.1079 21.7848 24.0002C21.7848 22.671 22.8187 21.7848 24.0002 21.7848Z" fill="#2BDE92"/>
</svg>
