<svg width="61" height="60" viewBox="0 0 61 60" fill="none" xmlns="http://www.w3.org/2000/svg">
<path d="M30.5703 0C14.0472 0 0.570312 13.3846 0.570312 30C0.570312 46.3385 14.0472 60 30.5703 60C47.0934 60 60.5703 46.3385 60.5703 30C60.5703 13.3846 47.0934 0 30.5703 0ZM30.5703 10.8923C41.0934 10.8923 49.678 19.3846 49.678 30C49.678 40.3385 41.0934 49.1077 30.5703 49.1077C20.0472 49.1077 11.4626 40.3385 11.4626 30C11.4626 19.3846 20.0472 10.8923 30.5703 10.8923Z" fill="#45546F"/>
<path d="M44.2323 6.27701C31.1246 -1.38453 14.5092 3.23086 6.93996 16.3386C-0.629271 29.1693 3.89381 46.0616 16.9092 53.4462C29.9246 61.1078 46.6323 56.4001 54.2015 43.6616C61.6784 30.5539 57.2476 13.9386 44.2323 6.27701ZM33.34 25.1078C35.9246 26.7693 36.8477 30.0001 35.3707 32.7693C33.8938 35.2616 30.5707 36.0001 27.8938 34.7078C25.3092 33.0462 24.3861 29.8155 25.863 27.3232C27.34 24.5539 30.663 23.7232 33.34 25.1078Z" fill="#45546F"/>
<path d="M14.5783 7.7383C8.38606 12.2904 4.49003 19.0928 3.56501 26.2098L25.3742 29.2578C25.5808 27.594 26.3382 26.4924 27.5592 25.4892L14.5783 7.7383ZM57.9544 33.3653L36.1452 30.3173C35.9386 31.9811 35.0882 33.0815 33.8672 34.0847L46.8493 51.7431C53.1334 47.2847 57.0294 40.4823 57.9544 33.3653Z" fill="#566885"/>
<path d="M30.57 19.1074C24.57 19.1074 19.6777 23.9997 19.6777 29.9997C19.6777 35.9997 24.57 40.892 30.57 40.892C36.57 40.892 41.4623 35.9997 41.4623 29.9997C41.4623 23.9997 36.57 19.1074 30.57 19.1074ZM30.57 27.2305C32.047 27.2305 33.3393 28.3382 33.3393 29.9997C33.3393 31.3843 32.1393 32.769 30.57 32.769C29.0008 32.769 27.8008 31.3843 27.8008 29.9997C27.8008 28.3382 29.0931 27.2305 30.57 27.2305Z" fill="#2BDE92"/>
</svg>
