<svg width="61" height="60" viewBox="0 0 61 60" fill="none" xmlns="http://www.w3.org/2000/svg">
<path d="M30.9072 0C14.3842 0 0.907227 13.3846 0.907227 30C0.907227 46.3385 14.3842 60 30.9072 60C47.4303 60 60.9072 46.3385 60.9072 30C60.9072 13.3846 47.4303 0 30.9072 0ZM30.9072 10.8923C41.4303 10.8923 50.0149 19.3846 50.0149 30C50.0149 40.3385 41.4303 49.1077 30.9072 49.1077C20.3842 49.1077 11.7995 40.3385 11.7995 30C11.7995 19.3846 20.3842 10.8923 30.9072 10.8923Z" fill="#39435C"/>
<path d="M44.5692 6.27701C31.4615 -1.38453 14.8461 3.23086 7.27687 16.3386C-0.292357 29.1693 4.23072 46.0616 17.2461 53.4462C30.2615 61.1078 46.9692 56.4001 54.5384 43.6616C62.0153 30.5539 57.5846 13.9386 44.5692 6.27701ZM33.6769 25.1078C36.2615 26.7693 37.1846 30.0001 35.7076 32.7693C34.2307 35.2616 30.9076 36.0001 28.2307 34.7078C25.6461 33.0462 24.723 29.8155 26.2 27.3232C27.6769 24.5539 31 23.7232 33.6769 25.1078Z" fill="#39435C"/>
<path d="M14.9152 7.7383C8.72297 12.2904 4.82694 19.0928 3.90192 26.2098L25.7112 29.2578C25.9177 27.594 26.6751 26.4924 27.8961 25.4892L14.9152 7.7383ZM58.2913 33.3653L36.4821 30.3173C36.2755 31.9811 35.4252 33.0815 34.2041 34.0847L47.1862 51.7431C53.4703 47.2847 57.3663 40.4823 58.2913 33.3653Z" fill="#46516C"/>
<path d="M30.907 19.1074C24.907 19.1074 20.0146 23.9997 20.0146 29.9997C20.0146 35.9997 24.907 40.892 30.907 40.892C36.907 40.892 41.7993 35.9997 41.7993 29.9997C41.7993 23.9997 36.907 19.1074 30.907 19.1074ZM30.907 27.2305C32.3839 27.2305 33.6762 28.3382 33.6762 29.9997C33.6762 31.3843 32.4762 32.769 30.907 32.769C29.3377 32.769 28.1377 31.3843 28.1377 29.9997C28.1377 28.3382 29.43 27.2305 30.907 27.2305Z" fill="#2BDE92"/>
</svg>
