<svg width="60" height="60" viewBox="0 0 60 60" fill="none" xmlns="http://www.w3.org/2000/svg">
<path d="M30 0C13.4769 0 0 13.3846 0 30C0 46.3385 13.4769 60 30 60C46.5231 60 60 46.3385 60 30C60 13.3846 46.5231 0 30 0ZM30 10.8923C40.5231 10.8923 49.1077 19.3846 49.1077 30C49.1077 40.3385 40.5231 49.1077 30 49.1077C19.4769 49.1077 10.8923 40.3385 10.8923 30C10.8923 19.3846 19.4769 10.8923 30 10.8923Z" fill="#5B6D89"/>
<path d="M43.662 6.27701C30.5543 -1.38453 13.9389 3.23086 6.36965 16.3386C-1.19958 29.1693 3.32349 46.0616 16.3389 53.4462C29.3543 61.1078 46.062 56.4001 53.6312 43.6616C61.1081 30.5539 56.6773 13.9386 43.662 6.27701ZM32.7696 25.1078C35.3543 26.7693 36.2773 30.0001 34.8004 32.7693C33.3235 35.2616 30.0004 36.0001 27.3235 34.7078C24.7389 33.0462 23.8158 29.8155 25.2927 27.3232C26.7696 24.5539 30.0927 23.7232 32.7696 25.1078Z" fill="#5B6D89"/>
<path d="M14.008 7.7383C7.81574 12.2904 3.91971 19.0928 2.9947 26.2098L24.8039 29.2578C25.0105 27.594 25.7679 26.4924 26.9889 25.4892L14.008 7.7383ZM57.3841 33.3653L35.5749 30.3173C35.3683 31.9811 34.5179 33.0815 33.2969 34.0847L46.279 51.7431C52.563 47.2847 56.4591 40.4823 57.3841 33.3653Z" fill="#7389AA"/>
<path d="M29.9997 19.1074C23.9997 19.1074 19.1074 23.9997 19.1074 29.9997C19.1074 35.9997 23.9997 40.892 29.9997 40.892C35.9997 40.892 40.892 35.9997 40.892 29.9997C40.892 23.9997 35.9997 19.1074 29.9997 19.1074ZM29.9997 27.2305C31.4767 27.2305 32.769 28.3382 32.769 29.9997C32.769 31.3843 31.569 32.769 29.9997 32.769C28.4305 32.769 27.2305 31.3843 27.2305 29.9997C27.2305 28.3382 28.5228 27.2305 29.9997 27.2305Z" fill="#2BDE92"/>
</svg>
