<svg width="16" height="20" viewBox="0 0 16 20" fill="none" xmlns="http://www.w3.org/2000/svg">
<path d="M1 1L15 10L1 19V1Z" fill="#FAFDFF"/>
<path d="M1 1L1.27038 0.579411C1.11652 0.480504 0.920943 0.473499 0.760406 0.561144C0.599869 0.648789 0.5 0.817096 0.5 1H1ZM15 10L15.2704 10.4206C15.4135 10.3286 15.5 10.1701 15.5 10C15.5 9.82987 15.4135 9.67141 15.2704 9.57941L15 10ZM1 19H0.5C0.5 19.1829 0.599869 19.3512 0.760406 19.4389C0.920943 19.5265 1.11652 19.5195 1.27038 19.4206L1 19ZM0.729621 1.42059L14.7296 10.4206L15.2704 9.57941L1.27038 0.579411L0.729621 1.42059ZM14.7296 9.57941L0.729621 18.5794L1.27038 19.4206L15.2704 10.4206L14.7296 9.57941ZM1.5 19V1H0.5V19H1.5Z" fill="#FAFDFF"/>
</svg>
