<svg width="165" height="53" viewBox="0 0 165 53" fill="none" xmlns="http://www.w3.org/2000/svg">
<path d="M164.048 27.3061C163.391 27.2572 162.813 27.4114 162.56 26.4854L162.888 26.1477C163.48 26.1217 164.421 26.0978 165 26.6797C164.719 26.8903 164.411 26.6981 164.214 26.4995C164.001 26.7774 164.087 27.1118 164.104 27.3072L164.048 27.3061Z" fill="#1ED689"/>
<path d="M159.401 27.5775L159.634 27.571C159.696 27.5667 159.707 27.7024 159.707 27.7697L159.401 27.5775Z" fill="#1ED689"/>
<path d="M156.145 30.3359L156.53 30.7224L155.547 31.0264C155.561 30.4847 156.049 30.6714 156.145 30.3359Z" fill="#1ED689"/>
<path d="M155.14 31.0916L155.317 31.0938L155.379 31.1556L155.14 31.0916Z" fill="#1ED689"/>
<path d="M77.428 44.2673L77.4667 44.1924L77.5384 44.3162C77.5126 44.2988 77.461 44.2869 77.428 44.2673Z" fill="#1ED689"/>
<path d="M10.3977 44.719L10.4164 44.6875C10.4723 44.719 10.5282 44.7374 10.5812 44.7776L10.3977 44.719Z" fill="#1ED689"/>
<path d="M154.795 44.1675C154.843 44.0329 154.963 44.0969 155.028 44.098C155.088 44.1002 155.098 44.2261 155.099 44.2945L154.795 44.1675Z" fill="#1ED689"/>
<path d="M102.545 47.3982C102.767 47.2604 103.139 47.446 102.921 47.725L102.545 47.3982Z" fill="#1ED689"/>
<path d="M102.091 47.9801C102.142 47.9855 102.177 48.0214 102.237 48.0051C102.217 48.0127 102.2 48.0159 102.182 48.0159C102.148 48.0159 102.119 48.0018 102.091 47.9801Z" fill="#1ED689"/>
<path d="M101.913 47.6208L102.085 47.6154L102.091 47.6784L101.92 47.6871L101.913 47.6208Z" fill="#1ED689"/>
<path d="M101.734 47.6295L101.913 47.6208C101.911 47.6251 101.857 47.6837 101.863 47.7532C101.943 47.7999 102.01 47.9182 102.091 47.9801C101.897 47.9573 101.749 47.8379 101.734 47.6295Z" fill="#1ED689"/>
<path d="M100.231 47.2734C100.866 47.1844 101.127 46.7132 101.59 46.6307L101.481 46.7023C101.553 46.8315 101.67 46.8228 101.68 46.964C101.27 47.0226 100.992 47.37 100.596 47.37C100.486 47.37 100.366 47.3428 100.231 47.2734Z" fill="#1ED689"/>
<path d="M99.5439 47.2604C99.3647 47.2767 99.1998 47.293 99.1453 47.0303L100.024 46.9445C100.097 47.1356 99.9325 47.2138 99.9368 47.3462C99.8235 47.2355 99.6801 47.2485 99.5439 47.2604Z" fill="#1ED689"/>
<path d="M98.9347 48.1028L99.3376 47.9628L99.3592 48.1604L98.9347 48.1028Z" fill="#1ED689"/>
<path d="M98.982 46.5461C98.7267 46.5472 98.4098 46.5483 98.2564 46.2584C98.3611 46.1249 98.4744 46.0522 98.5948 46.1119C98.5919 46.4647 98.7554 46.4234 98.916 46.3833C99.0608 46.3453 99.2042 46.3084 99.2243 46.5591C99.1583 46.5439 99.0752 46.545 98.982 46.5461Z" fill="#1ED689"/>
<path d="M95.0232 43.6171L95.1552 43.8147L94.8125 43.8885L95.0232 43.6171Z" fill="#1ED689"/>
<path d="M94.9716 45.1577C95.092 45.1533 95.1522 45.149 95.2138 45.2109L94.9845 45.2858L94.9716 45.1577Z" fill="#1ED689"/>
<path d="M94.0297 43.7147L94.3982 43.9047L93.6326 43.9275L94.0297 43.7147Z" fill="#1ED689"/>
<path d="M93.8102 45.3248C93.8518 45.3465 93.912 45.34 93.9679 45.3356C94.0669 45.3269 94.1615 45.3183 94.173 45.4409L93.76 45.4529L93.8102 45.3248Z" fill="#1ED689"/>
<path d="M90.3518 46.4212L90.587 46.4115L90.5941 46.4799L90.3518 46.4212Z" fill="#1ED689"/>
<path d="M84.842 49.1092C84.7517 48.714 84.5581 48.4524 85.0685 48.308L84.8793 48.1756C85.1646 47.9704 84.8276 47.5101 85.1129 47.369C85.404 47.42 85.5445 47.1757 85.6592 46.9315C85.804 46.6243 85.9101 46.316 86.2299 46.6036C86.8808 46.5917 87.3626 47.369 87.6522 48.0247C87.0357 48.4492 86.4421 48.4644 86.2242 49.398C86.0048 49.4045 85.8069 49.4338 85.6191 49.4338C85.3539 49.4338 85.1073 49.3752 84.842 49.1092Z" fill="#1ED689"/>
<path d="M85.9619 44.7418L86.0794 44.7397L86.326 44.8688L85.9619 44.7418Z" fill="#1ED689"/>
<path d="M85.7494 44.7027L85.844 44.7472L85.7035 44.7548C85.7207 44.7364 85.7365 44.7244 85.7494 44.7027Z" fill="#1ED689"/>
<path d="M85.5488 44.7614L85.7035 44.7548C85.6748 44.782 85.6449 44.8059 85.6148 44.8059C85.5918 44.8059 85.5703 44.794 85.5488 44.7614Z" fill="#1ED689"/>
<path d="M85.7208 44.6908C85.7925 44.5931 85.7839 44.643 85.7494 44.7027L85.7208 44.6908Z" fill="#1ED689"/>
<path d="M83.464 46.0152L82.2897 46.0554C82.7528 45.9729 83.0482 45.9588 83.464 46.0152Z" fill="#1ED689"/>
<path d="M82.8274 49.031L83.0367 48.6988L83.3651 49.1537L82.8274 49.031Z" fill="#1ED689"/>
<path d="M81.656 46.1607C81.5671 46.1205 81.4768 46.0782 81.398 46.0804L82.1092 46.0587C82.059 46.1965 81.9873 46.241 81.9055 46.241C81.8295 46.241 81.7435 46.2009 81.656 46.1607Z" fill="#1ED689"/>
<path d="M80.4042 46.1042L80.9906 46.0912C80.8974 46.2052 80.7468 46.3029 80.6192 46.3029C80.5232 46.3029 80.44 46.2475 80.4042 46.1042Z" fill="#1ED689"/>
<path d="M77.471 42.0561L77.8223 42.0507L77.8294 42.1191L77.4753 42.1245L77.471 42.0561Z" fill="#1ED689"/>
<path d="M39.3204 47.2853L39.4982 47.2766L39.7448 47.4037L39.3204 47.2853Z" fill="#1ED689"/>
<path d="M31.6252 49.2426L31.8589 49.2275L31.8646 49.2969L31.6309 49.3045L31.6252 49.2426Z" fill="#1ED689"/>
<path d="M29.5718 48.9333C29.4328 48.8747 29.308 48.8161 29.2349 48.9138C29.3611 48.701 29.536 48.7672 29.7195 48.8324C29.8328 48.8725 29.9504 48.9127 30.0622 48.8877C29.992 48.9746 29.9145 49.005 29.8342 49.005C29.7468 49.005 29.6564 48.9691 29.5718 48.9333Z" fill="#1ED689"/>
<path d="M27.427 49.1613C27.3181 49.2937 27.1159 49.1504 26.8836 49.0082C26.6499 48.8638 26.3861 48.7195 26.161 48.8606C25.8642 48.5023 25.4542 48.5479 25.0685 48.5935C24.6813 48.6402 24.3157 48.6858 24.1092 48.3265L24.2082 48.117L23.9558 47.927C23.8354 47.9302 23.6605 47.9346 23.5458 48.0051L23.5357 47.8716L23.7766 47.8651C24.8548 48.0377 25.7839 47.9378 26.994 48.2385C27.1475 47.8499 27.4342 47.9302 27.6923 48.0106C27.8773 48.0692 28.0479 48.1256 28.1439 48.0106C27.9647 48.5577 28.6874 48.6207 28.8867 48.9898C28.7361 49.0799 28.6071 49.0126 28.4938 48.9453C28.3519 48.8617 28.2329 48.7781 28.1225 49.0028L28.1841 49.0734C28.1784 49.3372 28.0436 49.4425 27.8844 49.4425C27.7195 49.4425 27.5303 49.3307 27.427 49.1613ZM28.2042 47.8694C28.1899 47.9324 28.1698 47.978 28.1439 48.0106C28.1568 47.9661 28.177 47.9205 28.2042 47.8694Z" fill="#1ED689"/>
<path d="M21.7378 47.5296C22.0963 47.5785 22.6769 47.4319 23.12 47.8814C23.0354 47.8944 22.9551 47.9009 22.8777 47.9009C22.4777 47.9009 22.1508 47.7381 21.7378 47.5296Z" fill="#1ED689"/>
<path d="M21.1957 47.408L21.2502 47.3418C21.362 47.2701 21.4294 47.4069 21.5584 47.5264L21.1957 47.408Z" fill="#1ED689"/>
<path d="M20.8172 46.4179L20.9333 46.4136L21.177 46.4744L20.8172 46.4179Z" fill="#1ED689"/>
<path d="M18.1159 47.3006C17.8665 47.0509 17.5596 47.1312 17.2901 47.2116C16.9302 47.3201 16.6391 47.4276 16.6506 46.7372C16.9589 46.8599 17.4206 46.7839 17.5066 47.1161L17.6614 46.8425C17.8206 46.8751 17.9898 46.874 18.1532 46.8729C18.5403 46.8718 18.8988 46.8696 19.0608 47.3364C19.2988 46.9337 19.7318 47.0704 20.2179 47.2061C20.4745 47.2789 20.7455 47.3505 21.0093 47.3429L20.7484 47.6827C20.6681 47.6925 20.5864 47.6969 20.5032 47.6969C19.7347 47.6969 18.8629 47.3364 18.1159 47.3006Z" fill="#1ED689"/>
<path d="M75.3058 7.83377L76.2908 7.60471C76.2292 7.84897 76.3539 7.97489 76.4313 8.10191L75.3058 7.83377Z" fill="#1ED689"/>
<path d="M55.1567 52.3628C54.9933 52.5006 54.9689 52.9729 54.599 52.7742C54.4871 52.1174 53.7831 52.1391 53.5078 51.6723C52.9902 51.1588 54.0326 50.9352 53.4089 50.4803L53.1135 51.1578C52.8512 51.0221 52.6576 51.0752 52.4812 51.1295C52.2403 51.2023 52.0325 51.2772 51.7256 50.8592L51.9493 50.7224C51.9378 50.5878 51.9307 50.5248 51.8131 50.4608C52.0124 49.3231 50.7764 50.0895 50.5915 49.2276C50.418 49.3676 50.1929 49.2449 49.9836 49.1223C49.79 49.0072 49.6094 48.8932 49.5018 48.9931L49.4574 48.4622C49.4287 48.0649 49.8746 47.7153 49.6681 47.3929L49.5663 47.5872L49.3083 47.331C48.8193 46.443 48.5139 46.7947 48.1454 47.1476C47.8874 47.3951 47.5992 47.6426 47.1948 47.4624C47.463 47.8521 46.7145 48.1409 47.2135 48.4622C47.2536 48.9236 46.9611 48.9366 46.5984 48.8747C46.2628 49.0897 46.7518 49.271 46.6443 49.411C46.2571 49.6911 45.8184 49.4295 45.6334 50.0418C45.652 49.5695 45.2908 49.4447 44.9839 49.322C45.0284 49.1212 44.885 48.8595 45.0441 48.6544C44.9266 48.5914 44.852 48.4579 44.7402 48.5317C44.7058 48.1322 44.1451 47.7457 44.4735 47.4038C44.1365 46.9478 43.8928 47.5514 43.7308 47.7566C43.401 46.9174 42.9479 47.2149 42.5077 47.5134C42.2554 47.6828 42.0073 47.8532 41.7894 47.8119C41.7034 47.7664 41.5901 47.7815 41.4869 47.7946C41.2976 47.8206 41.137 47.8478 41.2274 47.4993C41.1112 47.4982 40.9994 47.5688 40.8818 47.572C40.5807 47.4504 39.9183 47.3386 39.8165 46.8023C39.4409 47.052 39.1742 46.7698 38.9261 46.4875C38.6164 46.1358 38.3325 45.7841 37.8981 46.4636L37.5038 45.9404C37.1941 45.1512 36.8256 45.6896 36.4901 45.9035C35.68 46.7904 37.3203 46.6818 37.1984 47.2887C37.0263 47.343 36.9547 47.2214 36.8285 47.1551C36.5016 47.4407 36.9733 48.2234 37.1081 48.3482L36.374 48.0399C36.2191 48.4231 36.0256 48.2896 35.8205 48.155C35.6327 48.0301 35.4348 47.9053 35.2585 48.2006C34.7638 47.8792 34.0039 47.9759 33.4304 48.1908C33.3028 48.3471 33.1695 48.2321 33.0361 48.1181C32.8827 47.9856 32.7307 47.8521 32.5959 48.1441C32.4382 47.8945 32.3049 47.978 32.1773 48.0627C32.0382 48.155 31.9063 48.2473 31.7557 47.901C31.4202 47.9097 31.1421 47.7859 30.8553 47.6621C30.5313 47.5221 30.1972 47.382 29.7627 47.4342L29.7556 47.2952C29.5592 46.8186 29.3355 46.9489 29.0716 47.0781C28.934 47.1454 28.7849 47.2138 28.6243 47.1964L28.6085 47.0596C28.4867 47.0032 28.3576 46.8696 28.2429 46.9435C28.1153 47.255 27.8529 47.2518 27.6364 47.2485C27.4314 47.2453 27.268 47.2431 27.2895 47.4949L27.5934 47.6252C27.3038 47.7446 27.0945 47.6545 26.8823 47.5666C26.8464 47.5514 26.8106 47.5362 26.7747 47.5221C26.8321 47.5253 26.8837 47.4906 26.9253 47.3777C26.8063 47.1921 26.6514 47.1975 26.5023 47.204C26.3862 47.2094 26.2757 47.2138 26.1911 47.1302C25.9617 47.2062 25.4069 46.9543 25.0871 46.6286L24.1881 47.1888C23.7566 47.305 23.6949 46.9945 23.6132 46.6851C23.543 46.4148 23.4569 46.1445 23.0999 46.1564L23.3809 45.9447L22.8762 45.5604C22.2482 45.4551 21.6675 45.1001 21.1084 44.9861C20.8646 45.0448 20.6395 45.0751 20.4502 44.9981C20.3212 45.0339 20.195 45.0849 20.0674 45.1729L20.1305 45.2391C19.8954 46.6471 18.7067 45.8818 17.7934 46.3051C17.498 46.0457 16.9934 46.0902 16.4958 46.1336C16.2449 46.1564 15.9983 46.1781 15.7789 46.1618C15.1954 45.5778 14.2132 45.8068 13.8003 45.0925C13.6239 45.0936 13.5852 45.4312 13.4103 45.4269C13.1665 45.1207 12.9529 45.1826 12.7206 45.2423C12.5156 45.2977 12.2962 45.3509 12.0324 45.1446L12.2317 44.7983L11.5851 44.7549L11.598 44.8841C11.2008 45.0969 10.7578 44.7126 10.557 44.4509L10.4164 44.6875C10.0206 44.4682 9.61219 44.4846 9.22363 44.4998C8.7218 44.5204 8.24719 44.541 7.86724 44.0623C7.18045 44.3489 7.32673 44.7397 6.96398 45.3542C5.26923 45.5289 3.77521 45.3096 2.04892 45.1609L1.94281 45.3607L1.74066 45.0328C1.68187 45.0361 1.68758 45.1045 1.62593 45.1034L1.12698 44.718C0.866028 44.4542 1.22161 43.7138 0.67533 43.5304L0.75851 43.1276C0.731268 42.7248 0.146247 42.8801 0 42.5544C0.425837 41.9389 0.255249 41.3429 0.078892 40.6188C0.17639 40.3463 0.245206 39.8111 0.628029 40.1324C0.963538 39.8567 0.927671 39.4637 1.0266 39.188C1.17715 39.1522 1.19292 39.265 1.21729 39.3779C1.2388 39.4789 1.27035 39.5788 1.40942 39.5766C1.8453 39.8317 2.08906 39.1532 1.96145 39.0338C2.23674 38.8243 2.56077 38.4129 2.72136 38.2088C3.71068 38.0492 3.21028 36.9951 3.79671 36.2427C4.43618 36.0929 4.29565 35.1669 4.68421 34.8239C5.47996 34.4656 5.57175 33.3996 6.44924 33.3062C7.60774 33.7394 6.68293 32.5658 7.52887 32.0719C7.40413 32.0068 7.39553 31.8743 7.28226 31.9514C7.63211 31.1339 7.70239 29.8627 8.53972 29.2472L8.1583 28.9237C8.78487 27.9075 7.98627 26.1228 8.93401 25.3673C8.68883 24.6399 9.56915 25.212 9.51036 24.5552C9.45014 24.5541 9.38132 24.4239 9.26375 24.4271C8.8078 23.1798 10.0982 23.0669 10.3893 22.3265C10.299 21.9237 10.2072 21.5275 9.95199 21.2778C10.4309 20.5939 9.07881 20.7024 9.72402 19.948C9.47311 19.9545 9.32541 19.7536 9.2021 19.5539C9.06302 19.3259 8.95691 19.0979 8.77482 19.1739C8.74185 18.7451 8.96412 18.769 9.16915 18.7918C9.34694 18.8124 9.51326 18.832 9.49032 18.5562C9.60789 18.6702 9.69103 18.6518 9.76559 18.6344C9.85592 18.6116 9.93336 18.5899 10.0466 18.8037C10.3018 18.4042 11.0302 18.5768 11.489 18.427L11.4546 17.9667C11.7098 18.2219 11.879 18.084 12.1643 18.0102C12.3837 18.4694 12.8067 17.9309 13.1594 17.9179L12.9644 17.6584C13.0963 17.6085 13.2511 17.6411 13.3988 17.6736C13.6913 17.7388 13.9609 17.8039 13.991 17.2285C14.12 17.1927 14.2706 17.3024 14.4182 17.4131C14.6046 17.551 14.7825 17.6899 14.9029 17.5358C15.009 17.348 15.1194 17.2991 15.2355 17.3013L15.485 16.9398L14.8455 16.6847C15.1509 15.7804 15.7603 16.118 16.1818 15.7152C16.1259 15.4091 15.9538 15.433 15.7832 15.4579C15.7001 15.471 15.6141 15.4818 15.5452 15.4547C15.8349 15.0063 16.3725 14.355 16.8887 14.2388C16.731 13.4474 15.9639 13.6406 15.6456 12.9784L16.1446 12.4932C15.528 12.3151 15.0362 11.8103 14.3968 11.7159C14.3466 10.8876 14.824 9.61744 15.4133 10.4946L15.7158 10.9961C15.8692 9.92248 17.0564 10.0289 17.5454 10.0419C17.7776 8.84231 16.8285 9.61201 16.6005 9.03013C16.9159 8.04115 17.2371 8.96065 17.5783 9.04858L17.4106 9.28849C18.3942 9.76181 19.752 9.6652 20.3685 8.35163C20.9091 9.06053 21.5944 8.88464 22.2611 8.70986C22.7371 8.58611 23.206 8.46127 23.6032 8.65994C23.4569 8.32449 23.2175 8.27781 22.9694 8.14971C23.8813 7.46361 24.8692 7.89567 25.9288 8.32665C26.9855 8.75763 28.1139 9.18753 29.3025 8.50903L33.3601 8.58069C33.3157 8.28867 33.5136 8.00532 33.7028 8.08674L34.1889 8.10193L33.5207 8.58286C33.6526 8.889 33.8949 8.86619 34.1344 8.84339C34.2563 8.83145 34.3767 8.81952 34.4857 8.84992C34.8197 7.98579 35.1825 8.28215 35.6599 7.87831C35.951 8.00532 36.9245 8.80649 37.5999 8.16056L38.2666 7.6753L38.2451 8.17033C38.3913 8.66536 38.711 8.09869 38.9032 7.93476C38.9835 8.05852 39.0595 8.26586 39.2172 8.18444C39.2387 7.97167 39.4653 8.17576 39.7606 8.37876C40.1549 8.65016 40.6725 8.91939 41.0109 8.21701L41.4969 8.22895C41.4281 8.74027 41.7679 8.7381 42.0375 8.73484C42.069 8.73376 42.102 8.73376 42.1307 8.73484C42.578 8.99322 42.8132 8.41568 43.13 8.00967C44.0376 7.59388 45.0843 8.42218 45.9216 8.63713C42.8404 8.93458 39.3448 9.90729 36.4055 9.62612C34.6821 10.0506 32.725 9.51863 30.851 10.5163C30.6115 10.3904 30.3707 10.1819 30.0452 10.2547L29.6997 10.7464C29.466 10.7519 29.2007 10.7432 28.9197 10.7345C27.9547 10.7074 26.7977 10.6802 26.1066 11.1818C27.2407 11.3468 28.4996 11.2328 29.7398 11.1199C30.9786 11.0059 32.1988 10.893 33.2626 11.0569C31.2266 11.8016 28.9154 11.438 26.8808 12.1881C27.083 12.6017 27.526 12.3151 27.6665 12.9394C27.8343 12.402 28.1225 12.4367 28.4193 12.4715C28.5541 12.4867 28.6902 12.5018 28.8179 12.4649L28.977 12.7146C29.3039 11.8581 29.8961 12.6528 30.266 12.9882C33.059 13.2032 36.0643 13.1272 39.0838 13.0522C42.8533 12.9578 46.6457 12.8634 50.071 13.3345C50.0036 13.7112 50.2718 13.8306 50.365 14.0901C50.6073 14.1726 50.7019 13.7611 50.8711 13.5972C54.2075 13.6146 58.3426 13.6515 61.7091 14.7849C62.4375 14.2714 63.0239 14.4874 63.6147 14.7035C64.0921 14.8771 64.571 15.0519 65.1245 14.8424L72.9028 15.2256C74.2835 13.8871 75.941 13.7525 77.5096 13.8198L77.5296 13.3226C77.7519 13.823 77.9182 13.5191 78.1046 13.2151C78.2279 13.011 78.3612 12.8069 78.5247 12.846C79.5541 13.4159 80.3958 13.1358 81.236 12.8536C81.9687 12.6082 82.7014 12.364 83.5617 12.6853C84.0362 12.6115 84.5653 12.6625 85.1188 12.7146C86.2228 12.8156 87.42 12.9187 88.4638 12.0285C86.9641 11.6149 85.4284 11.7278 84.0219 11.8418C83.0383 11.9211 82.1178 12.0003 81.3178 11.8993C81.2346 12.0285 81.0969 12.1458 81.1399 12.3944C80.9937 12.2391 80.7528 11.5487 80.4402 11.4119C80.5578 11.4141 80.6295 11.2534 80.7026 11.1503C80.4187 10.8376 80.0316 10.8594 79.6459 10.88C79.4538 10.8897 79.2631 10.9006 79.0853 10.8713L79.0939 10.6281C76.9432 10.3404 74.4269 10.9125 71.7672 10.994L72.2805 10.5065L68.5541 10.1906C70.788 9.81936 72.9329 9.07028 75.2542 9.07028C75.4163 8.37224 76.0384 8.4189 76.4313 8.10191C76.6966 7.37999 77.3963 7.60473 77.6486 7.65032C77.5526 7.68072 77.4752 7.77626 77.4192 7.86419C78.3827 8.18879 79.2674 8.17576 80.1492 8.16382C80.5851 8.15839 81.021 8.15297 81.464 8.18771L81.484 7.68832C81.6002 8.39288 81.9514 8.21158 82.2984 8.03137C82.5436 7.90218 82.7859 7.77301 82.9365 7.96516C83.3637 7.70353 83.9573 7.72633 84.5753 7.74804C85.1947 7.76975 85.8399 7.79037 86.3675 7.52874C87.0959 7.59062 87.9577 7.42669 88.8294 7.26385C90.213 7.00222 91.6195 6.74168 92.5429 7.39087L92.887 6.90235C95.0592 6.67221 97.1942 6.71997 99.3047 6.76665C101.417 6.81442 103.503 6.86219 105.573 6.63096L105.558 6.88064C106.462 6.62552 107.437 6.65267 108.412 6.67873C109.386 6.70695 110.359 6.73299 111.265 6.48005C111.25 6.42577 111.231 6.38345 111.211 6.34871C111.958 6.90127 112.573 6.76775 113.185 6.63422C113.841 6.49092 114.496 6.34761 115.306 7.05107C117.203 6.87738 118.645 7.43755 120.641 7.63838L120.634 7.88374C121.666 7.20741 122.546 7.73717 123.513 8.26586C124.155 8.61759 124.836 8.96932 125.626 8.96715C125.774 9.30043 126.019 9.34603 126.254 9.47413C126.743 9.01167 127.271 9.31998 127.829 9.62829C128.204 9.83564 128.596 10.043 128.999 10.0169L129.303 10.5196C128.999 10.6596 128.623 10.5185 128.25 10.3774C127.876 10.2362 127.503 10.0962 127.202 10.2351L127.817 11.2317C126.865 10.5977 126.021 9.22445 124.757 10.4403L124.769 10.1863C124.584 10.196 124.367 10.1179 124.15 10.0397C123.636 9.85409 123.114 9.66954 122.959 10.6531C121.784 10.2612 120.275 10.2351 119.064 10.589C119.183 11.6573 120.215 11.6421 120.972 11.6117C121.814 11.5444 122.697 11.8896 123.226 12.1458C123.427 11.9059 123.61 11.4933 123.896 11.6605L123.556 12.1512C124.071 12.0828 124.591 12.1859 125.117 12.288C126.006 12.4628 126.904 12.6375 127.781 11.9808C127.272 12.6321 126.274 12.4519 125.625 13.1771C126.249 13.138 126.874 13.2954 127.525 13.4528C128.485 13.6841 129.5 13.9175 130.647 13.518C130.5 13.2227 130.2 13.2466 129.912 13.2715C129.509 13.3074 129.129 13.341 129.224 12.4997C131.212 12.8677 133.422 13.1934 135.426 11.8657C135.3 11.5878 135.058 11.6008 134.83 11.6128C134.507 11.6301 134.215 11.6475 134.327 10.8539C136.109 11.2947 137.814 10.8496 139.537 10.4067C140.772 10.0875 142.017 9.77049 143.308 9.77701C142.188 9.91705 140.869 10.5163 139.686 10.9495C139.782 11.2545 139.987 11.2295 140.194 11.2067C140.295 11.1948 140.397 11.1829 140.488 11.21C140.499 11.5845 140.199 11.743 140.29 12.199C140.422 12.2153 140.562 12.2467 140.697 12.2652C140.718 12.2163 140.734 12.1718 140.76 12.1176C141.222 11.9721 141.668 11.6236 142.129 12.2109L142.485 11.5357C142.392 11.8038 142.64 12.0014 142.597 12.2022C142.711 12.1284 142.884 12.06 142.81 11.8559C142.851 11.8548 142.895 11.8581 142.941 11.8613C143.162 11.8776 143.421 11.895 143.489 11.5053C143.499 11.641 143.504 11.7094 143.57 11.7713L143.995 11.2263L143.866 11.0244L144.101 11.0211C144.117 10.5619 144.58 10.4088 144.805 10.272L144.591 10.5369C144.985 10.2633 145.351 10.4555 145.661 10.6455L145.676 10.1179L145.794 10.1146C145.929 10.8496 145.95 10.4827 146.034 10.1157C146.085 9.89426 146.158 9.67172 146.292 9.69451L146.333 10.1602L146.627 10.1537C146.801 10.0777 146.613 9.9507 146.538 9.82152C146.735 10.0831 146.768 9.67605 146.94 9.67497C146.994 9.60223 146.785 9.87362 146.968 10.0082C147.084 10.0039 147.262 9.99304 147.31 9.79763L147.343 10.9288L147.456 10.9256C147.38 11.4597 147.173 11.0678 146.98 11.5368C146.749 11.6757 146.957 12.0014 147.013 12.0036C147.01 12.668 147.077 12.7353 147.314 13.5267L147.599 13.3226C147.717 13.5614 147.778 13.7101 147.83 13.835C148.538 14.0174 149.247 14.1965 149.951 14.355C150.322 14.5232 150.573 15.0671 151.068 14.8663C151.068 13.4626 152.213 13.9348 152.443 12.9122L153.717 13.43L153.377 13.9175C153.485 14.7078 152.823 15.6403 152.782 16.6293C153.624 15.9877 153.643 17.6378 153.518 18.63L153.677 18.8797L154.021 18.389C153.786 18.8005 153.795 19.2955 154.133 19.6353L154.629 19.3878C154.506 19.7601 154.764 20.7556 155.223 20.8881L155.583 19.9067C155.425 20.4777 155.77 20.7372 155.862 21.1551L156.018 21.1562C156.179 21.8988 155.512 21.6784 155.488 22.3797L156.431 23.144C156.16 23.9245 155.345 24.6497 155.849 25.6115L156.664 25.6267L156.708 24.3848C156.784 24.5118 156.864 24.7224 157.026 24.6399L157.369 24.1536C157.408 24.4 157.269 24.5237 157.187 24.6464L157.789 25.8927C158.14 25.8569 158.525 25.0817 158.158 24.6616L157.69 24.1557C157.779 24.0341 157.923 23.9147 157.877 23.6672C158.363 23.4631 158.42 23.9126 158.439 24.3631C158.46 24.8809 158.436 25.3987 158.961 24.9232C158.39 26.3986 159.014 28.3939 159.424 29.8909C159.475 30.6346 159.259 31.1698 158.87 31.6148C158.45 31.8819 157.956 31.8548 157.462 31.8276C156.843 31.794 156.225 31.7592 155.753 32.3042L155.759 32.4594C156.343 32.4497 156.96 32.048 157.61 32.428C157.558 32.4898 157.695 32.6885 157.571 32.6918C156.978 33.0218 156.394 33.2259 155.801 33.3561L155.841 34.2854C155.682 34.4863 155.518 34.6741 155.35 34.8521C155.396 34.94 155.488 35.0139 155.528 35.0909C155.783 36.0777 155.223 37.0917 154.808 37.8418C154.469 38.0427 154.228 38.7266 153.803 38.5323C152.521 38.0362 150.99 38.8113 149.814 38.9101C149.265 39.3997 148.297 39.1565 147.745 39.6407C147.192 39.3204 146.206 39.5495 145.755 39.8285C144.327 40.4028 142.901 40.3072 141.324 40.5613C141.044 40.697 140.677 41.2473 140.333 40.7208C139.788 41.269 138.791 40.6361 138.446 41.4373C138.149 41.0194 137.913 41.167 137.685 41.3125C137.448 41.4634 137.22 41.6143 136.945 41.1464C137.057 41.7337 136.74 41.7196 136.414 41.7044C136.153 41.6935 135.887 41.6827 135.833 41.9823C135.359 41.3396 134.976 41.5958 134.582 41.8509C134.256 42.0615 133.924 42.2722 133.527 41.9812C133.149 42.1093 132.827 42.0941 132.514 42.0811C132.303 42.0713 132.096 42.0615 131.88 42.0974C131.734 42.4274 131.472 42.1701 131.232 42.1158C130.95 42.7607 130.458 42.7096 129.944 42.6575C129.552 42.6185 129.145 42.5794 128.809 42.8497C128.475 43.0636 128.64 43.589 128.091 43.4066C127.865 43.5434 127.146 43.4316 127.439 44.0873L126.322 44.1209C126.254 44.7831 125.859 44.9981 125.479 45.4063C125.07 45.4258 124.449 45.8362 124.005 45.4529C123.927 46.1369 123.622 45.9447 123.296 45.7526C123.05 45.6071 122.789 45.4616 122.607 45.6972L122.673 45.8188L122.329 45.8991C121.861 45.6223 121.405 45.733 120.954 45.8448C120.683 45.9121 120.413 45.9784 120.146 45.9621L120.478 46.3562L119.868 46.9022C119.438 47.3853 118.986 46.9293 118.621 46.7437L118.444 47.5438C117.666 47.369 117.032 46.8534 116.338 47.0727C115.72 46.6862 115.168 47.1736 115.039 47.8402L114.907 47.648L114.704 48.0551C114.625 47.0542 113.865 47.8792 113.568 47.1486C112.911 47.039 112.227 46.6569 111.911 46.3301L111.961 46.266C111.774 46.1379 111.624 45.809 111.465 46.0153C111.215 46.5505 110.673 46.3692 110.282 46.6482C109.348 46.139 108.336 46.6981 107.426 47.1248C107.12 47.0726 106.813 46.8783 106.725 47.2822L106.852 47.4722C106.825 47.458 106.715 47.4873 106.596 47.5177C106.413 47.5644 106.213 47.61 106.273 47.4993C105.869 47.6448 105.206 47.4559 104.895 48.0019C104.539 47.9455 104.922 47.5959 104.564 47.6144C104.386 47.5438 104.268 47.5547 104.306 47.2919L104.944 47.2008C104.743 46.7318 104.484 46.8251 104.215 46.9207C103.993 46.9988 103.765 47.077 103.56 46.8392C103.506 46.9109 103.394 46.9717 103.461 47.0477C103.463 47.1085 103.527 47.1769 103.59 47.1725C103.542 47.2344 103.41 47.1617 103.243 47.0889C103.04 46.9999 102.786 46.912 102.572 47.0672C102.387 46.9413 101.735 46.8979 102.05 46.418C101.982 46.3171 101.906 46.3203 101.832 46.3247C101.759 46.3268 101.683 46.3301 101.619 46.2313C101.496 45.5984 101.711 45.7612 101.963 45.9241C102.132 46.0337 102.319 46.1445 102.427 46.0077C102.244 45.8818 102.109 45.7482 101.929 45.6896L102.321 45.4106L101.996 45.0838C101.282 45.7016 100.516 44.9959 99.8711 45.8112C99.6302 45.7504 99.4409 45.5572 99.289 45.8991C98.6251 45.7189 97.6701 45.6093 97.111 46.0218C97.0565 45.3574 96.4973 45.7091 96.0672 45.5224C96.1862 45.5865 96.1976 45.7232 96.3152 45.6505C96.1919 45.8405 96.0371 45.8123 95.8837 45.7851C95.7073 45.7537 95.5323 45.7222 95.4004 46.0077C95.2642 45.809 94.6348 46.0348 94.6606 45.631C95.2413 45.9925 95.5152 45.7157 95.8005 45.4377C96.0629 45.1826 96.3353 44.9286 96.8643 45.1696C96.3611 44.5638 95.8693 44.6919 95.3618 44.82C94.9402 44.9275 94.5072 45.035 94.0484 44.7158L94.5202 44.6311L94.3839 44.4325C94.6348 44.4846 94.8729 44.3815 95.0951 44.2794C95.4019 44.1372 95.6758 43.9961 95.9037 44.262C96.0227 44.1741 96.146 44.2447 96.2693 44.3163C96.4342 44.4119 96.6049 44.5074 96.7841 44.2327L96.516 43.7757C96.2106 43.6509 95.9023 43.5293 95.6715 43.6053C95.5267 43.2774 95.8306 43.3328 95.7503 43.0657C95.6313 43.1764 95.5152 43.0831 95.399 42.9908C95.2944 42.9061 95.1897 42.8225 95.0836 42.8888L95.0363 42.3503L94.6864 42.3655C94.5287 42.5696 93.9968 42.5783 93.8534 43.0527C93.6684 42.5924 93.4433 42.7324 93.2125 42.8725C92.9816 43.0125 92.7407 43.1515 92.5257 42.6901C92.0382 42.5034 91.4116 42.8584 90.7707 42.8779L90.7607 42.7422C90.7134 42.6184 90.6288 42.6261 90.5427 42.6337C90.4926 42.638 90.4395 42.6423 90.3936 42.6206C90.4424 42.5544 90.5686 42.5544 90.494 42.4165C90.428 42.2884 90.3033 42.219 90.1241 42.2287C89.9348 42.7683 89.0674 42.2602 89.1248 42.993C88.8036 42.7292 88.438 43.2068 88.0809 43.2199C86.964 43.3208 85.9603 44.0134 84.5982 43.9885C84.4549 43.6704 84.3057 43.589 84.1538 43.6009L84.1524 43.6845C84.0821 43.6682 84.019 43.6595 83.9559 43.6563C83.6276 43.8267 83.2806 44.2327 82.9308 43.7648C82.7573 43.8419 82.7716 44.0373 82.8419 44.1698C82.7372 44.3749 82.1192 44.0558 82.287 44.6485C81.8597 44.4672 81.6202 44.4021 81.4095 44.0786C81.4769 43.9461 81.5185 43.8245 81.55 43.7073C80.2338 44.1774 78.7942 44.2186 77.4823 43.8126C77.316 43.919 77.1483 44.0026 76.9834 44.0699C77.164 44.1274 77.3033 44.1979 77.428 44.2673L77.3676 44.388C77.3777 44.5465 77.5196 44.5399 77.6601 44.5345C77.759 44.5291 77.8594 44.5258 77.9139 44.578C78.5448 45.7623 77.1239 45.7352 76.883 46.4061C74.8685 46.3355 76.6866 48.3417 75.9725 49.0354C75.8378 48.8367 75.7331 49.0419 75.6213 49.0484L75.8191 49.3035L75.7159 49.4349C75.6098 49.6433 75.9123 49.703 75.8621 49.8322C75.8019 49.8377 75.6915 49.9017 75.6786 49.778C75.4793 50.1753 74.9216 49.8615 75.2026 50.4575C74.6893 50.6627 74.5273 50.1373 74.2118 49.8854C74.0226 50.6193 73.8061 50.2643 73.5365 49.9104C73.3631 49.6846 73.168 49.4577 72.9458 49.5163C72.7752 49.5945 72.606 49.7932 72.5286 49.5294L72.6332 49.3958L72.5099 49.2677C72.3264 48.6761 71.9837 48.8433 71.6482 49.0115C71.3858 49.1418 71.1263 49.2732 70.9528 49.0419C70.9027 49.1103 70.8467 49.1157 70.8496 49.1744C70.8654 49.3795 71.2396 49.6325 70.8998 49.778C71.264 49.9028 70.9213 50.1112 70.9399 50.3088L70.3693 49.855L70.3176 49.9278C70.0294 50.7322 69.4861 50.6193 68.9054 51.3618C68.5469 51.4411 68.091 51.5909 67.8243 51.2587C67.4759 51.2739 66.7661 51.2956 66.6787 51.6322C66.4392 51.4769 66.3331 51.6398 66.2256 51.8048C66.1094 51.9828 65.9919 52.1619 65.7008 51.9253C65.5216 52.34 65.2463 52.3378 64.9825 52.3356C64.7287 52.3345 64.485 52.3334 64.3416 52.6928C64.1208 52.1489 63.9301 52.2108 63.7064 52.2737C63.553 52.315 63.3838 52.3584 63.1788 52.2054C62.6454 52.15 61.659 51.6397 61.3579 50.8494L61.0711 50.9949C60.9407 50.7789 60.7786 50.7995 60.6223 50.819C60.4431 50.8429 60.271 50.8657 60.152 50.5552C59.947 50.2925 59.9628 49.6857 59.6402 49.4327C59.5513 49.0387 59.6316 48.5729 59.9226 48.4915C59.8409 48.2266 60.1047 47.8869 59.7305 47.6296C59.785 47.6079 59.8581 47.6144 59.927 47.6198C60.0703 47.6317 60.2079 47.6426 60.1879 47.4222C60.1262 47.4211 60.0646 47.3527 60.0029 47.3582L60.208 47.0184C59.9527 46.7611 59.9886 47.1638 59.8194 47.2257C59.5785 46.862 59.3305 46.9793 59.0853 47.0955C58.8459 47.2084 58.6078 47.3213 58.3784 46.9999C58.2336 47.4092 57.3777 47.0357 57.1884 47.5753C57.3519 47.8282 57.4752 47.7512 57.5913 47.6741C57.7146 47.5916 57.8279 47.5101 57.9741 47.8152C58.1576 48.612 57.4551 48.6967 57.1253 48.9724C56.4428 49.3274 56.7224 48.3808 56.1274 48.3395C55.6298 48.7477 55.2155 48.7586 55.2814 49.5576C55.5338 49.7519 55.7833 49.9408 56.0199 49.9397C56.4141 50.3902 56.3912 50.1253 56.3181 50.666C56.44 50.7224 56.4872 50.5889 56.6106 50.5846L56.622 50.7876C56.5274 51.0611 56.7611 51.0481 56.9403 51.0448C56.0801 51.4031 57.1941 51.9709 56.5905 52.5256C56.5117 52.2542 56.2507 52.0653 56.093 52.2683L56.103 53L55.1567 52.3628ZM70.8682 44.8103C71.7973 45.124 72.8497 44.9764 73.8046 44.896C73.7229 44.6301 73.7731 44.5649 73.9466 44.4878C73.9523 44.5541 73.9638 44.6919 74.0197 44.6919C74.1401 44.3565 74.5273 44.4911 74.6033 44.2512C74.2047 44.2197 73.8018 44.1947 73.4003 44.2371C73.1824 43.7486 73.0103 43.9852 72.8311 44.223C72.7035 44.3902 72.5716 44.5573 72.4181 44.4694C71.8862 44.6301 71.3715 44.7321 70.8682 44.8103ZM68.5813 43.9179L68.7978 43.64C68.8767 43.6802 68.9427 43.741 69.0057 43.8028C69.1878 43.7323 69.3714 43.6563 69.5549 43.5901L69.6567 43.348C69.8301 43.4088 70.0696 43.3154 70.2775 43.2872C70.5772 42.765 70.9299 42.5967 71.5134 42.7162L71.5264 42.2189L70.1714 42.1983C70.1671 42.22 70.1786 42.2515 70.1642 42.2711L69.5649 42.1495C69.1692 42.4317 69.899 42.6716 69.5204 43.0885C69.2566 42.7563 68.891 42.6402 68.8007 42.2461C68.4322 41.9769 68.2716 42.2407 68.1283 42.5305C68.1741 42.5783 68.2229 42.6022 68.2673 42.6608C68.22 42.6478 68.1741 42.651 68.1297 42.6521C68.1082 42.6532 68.0881 42.6543 68.068 42.6543C67.9892 42.8117 67.9103 42.9561 67.797 43.0049C67.8271 43.0038 67.8601 43.0342 67.8989 43.0668C67.939 43.0983 67.9849 43.1298 68.0436 43.1298L68.1412 43.5955C68.2014 43.5705 68.2458 43.5597 68.2802 43.5597C68.4466 43.5597 68.3791 43.8072 68.5813 43.9179ZM75.9396 43.2275C76.1002 43.7192 76.3554 43.5065 76.612 43.2948C76.754 43.1775 76.8959 43.0603 77.0235 43.0625C77.068 43.0408 77.1124 43.0212 77.1569 43.0028C77.1683 43.0038 77.1813 43.0049 77.1942 43.0038C77.1827 43.0038 77.1697 43.0028 77.1583 43.0017C77.9684 42.6662 78.8143 42.8106 79.6373 42.955C80.3055 43.0733 80.9578 43.1906 81.5658 43.0516C81.4324 42.4567 80.9665 41.979 80.945 41.2256C80.76 41.0943 80.5062 40.9032 80.337 41.0411C80.5291 41.1746 80.3083 41.3733 80.2625 41.509C80.0789 41.3852 79.5829 41.3917 79.6287 40.9618C79.6201 40.964 79.6144 40.964 79.6101 40.964C79.4667 41.4395 79.1269 41.3776 78.8057 41.3168C78.5835 41.2734 78.3684 41.2311 78.2365 41.37L78.3713 41.5622C78.0243 41.6414 77.6788 41.7207 77.2558 41.6653C77.187 41.4959 77.0493 41.3537 76.8988 41.2202C76.5848 41.2506 76.2751 41.2723 75.9582 41.3092C76.0815 41.5806 76.298 41.5741 76.5145 41.5676C76.7296 41.56 76.9446 41.5535 77.0722 41.8205C77.0866 42.372 76.9834 42.5012 76.8357 42.5056C76.8773 42.7346 76.9404 42.9713 77.1454 43.0006C77.1081 42.9995 77.0723 42.9984 77.0364 42.9984C76.6378 42.9984 76.2794 43.1135 75.9396 43.2275ZM70.2345 41.7261C70.1915 41.7836 70.1972 41.8694 70.2072 41.9508C70.3506 41.9573 70.4854 41.9302 70.5758 41.7087C70.5743 41.6892 70.5657 41.6805 70.5628 41.662L70.2345 41.7261ZM139.888 36.005C140.548 36.8485 141.605 36.7497 142.534 36.5901C143.11 36.3741 142.81 35.65 143.441 35.4351C143.701 35.6913 143.982 36.2189 144.267 36.1396L144.35 35.6674C144.416 35.7369 144.647 35.6609 144.548 35.8682C144.423 35.8661 144.441 36.0061 144.385 36.0756C144.864 36.4848 145.381 36.3513 145.886 36.2199C146.246 36.1255 146.601 36.0311 146.93 36.1353C147.453 36.0452 147.953 35.6989 148.389 35.954C148.547 35.8519 148.706 35.789 148.867 35.7162C147.195 35.6457 145.593 35.3232 144.028 34.9053C144.021 34.9422 144.005 34.9704 144.002 35.0106C143.616 35.3591 142.937 34.9824 142.673 34.6513L142.787 34.559C142.618 34.5101 142.446 34.4613 142.278 34.4103C142.085 34.4461 141.888 34.5264 141.709 34.5785C141.679 34.7175 141.679 34.8706 141.675 35.0312C141.64 34.8564 141.574 34.7197 141.487 34.6143C141.332 34.6219 141.199 34.5536 141.091 34.3636C141.002 34.3332 140.915 34.3082 140.82 34.2941C140.961 34.4005 141.078 34.5438 141.147 34.7642L140.532 35.181L140.853 35.5067L140.958 35.3688C141.081 35.4329 141.147 35.5002 141.157 35.6913C140.883 35.8411 140.254 36.1223 139.93 35.7955C139.874 35.865 139.88 35.9312 139.888 36.005ZM153.722 34.6686L153.557 34.8054L153.689 35.0063C153.832 34.7935 154.084 34.7989 154.331 34.8358C154.682 34.4852 155.042 34.0118 155.366 33.786C155.372 33.6699 155.409 33.5472 155.454 33.4213C155.145 33.4723 154.834 33.5081 154.512 33.5179L155.131 33.1662C154.813 32.9729 155.011 32.7699 155.122 32.5398L154.933 32.5387C154.949 32.4345 154.985 32.3737 155.011 32.2912L154.104 32.2738C154.129 32.3737 154.165 32.4497 154.233 32.4421L153.782 32.7645C153.81 33.4245 154.377 34.2995 153.554 34.4928C152.82 34.0466 152.031 34.2757 151.363 34.9183L151.445 35.0008C152.027 34.7935 152.607 34.5481 153.139 34.5481C153.342 34.5481 153.537 34.5829 153.722 34.6686ZM155.293 32.2543C155.282 32.276 155.29 32.314 155.282 32.3422C155.428 32.4182 155.578 32.4584 155.73 32.4584C155.715 32.3487 155.659 32.2488 155.561 32.1566C155.475 32.1902 155.386 32.2239 155.293 32.2543ZM153.836 31.0916C154.073 31.11 154.028 31.7429 154.074 32.1392C154.589 31.769 155.395 31.503 156.199 31.4162C156.602 31.3076 156.917 31.1339 156.8 30.3404C157.145 29.8877 157.867 29.3633 157.855 28.3754C157.815 28.3635 157.786 28.3298 157.753 28.281L157.746 28.2853C157.729 28.0943 157.201 28.103 157.408 27.7675C157.484 27.7512 157.555 27.7632 157.621 27.7849C157.469 26.7036 157.594 24.6638 156.796 26.3693C156.609 26.8632 155.715 26.9707 156.249 27.85L156.4 28.1019C156.364 28.142 156.327 28.1724 156.288 28.2104C156.773 28.1909 157.352 28.1648 156.907 28.8509C156.655 28.8531 156.096 28.8922 155.788 28.6403C154.903 29.2743 153.841 29.6391 153.547 31.1622C153.646 31.135 153.726 31.0786 153.79 31.0786C153.806 31.0786 153.822 31.0829 153.836 31.0916ZM152.275 25.5464L152.93 25.3097L152.785 25.0655C152.673 25.0459 152.596 25.0361 152.542 25.0361C152.331 25.0361 152.461 25.1892 152.275 25.5464ZM140.086 22.5957L140.151 22.6641L139.994 22.8997C140.941 23.9082 142.103 23.817 143.286 23.7258C143.709 23.6922 144.134 23.6596 144.552 23.677C146.808 22.8867 148.904 23.22 151.215 23.55C151.376 22.9713 151.033 22.7162 150.94 22.3026C149.102 20.9467 147.659 19.6038 145.328 20.468C144.555 20.7068 143.54 20.5461 142.614 20.8273C142.614 20.8642 142.605 20.8859 142.613 20.9282C142.588 20.9065 142.564 20.874 142.542 20.8457C142.353 20.9076 142.171 20.9923 141.99 21.1009C142.005 21.2474 142.03 21.3853 142.121 21.4732C141.953 21.7837 141.834 21.4949 141.679 21.3516C141.584 21.4363 141.487 21.5253 141.4 21.6328C141.417 21.8792 141.497 22.143 141.685 21.9552L141.64 22.0855C141.45 22.2071 141.183 22.3515 141.081 22.0649C141.067 22.0898 141.05 22.104 141.035 22.1289C141.002 22.0898 140.955 22.0681 140.916 22.041C140.86 22.1039 140.819 22.1669 140.827 22.2472L140.698 22.1159L140.532 22.2538C140.654 22.3178 140.665 22.4459 140.737 22.5751C140.575 22.789 140.32 22.5936 140.191 22.3938L140.086 22.5957ZM139.041 22.827L139.159 22.9952C139.266 22.9681 139.375 22.9171 139.478 22.84C139.399 22.7922 139.315 22.7596 139.232 22.7596C139.166 22.7596 139.101 22.7792 139.041 22.827ZM74.4398 21.7012C74.8499 21.7913 75.2599 21.6958 75.5668 21.4396C75.442 21.4667 75.3144 21.4027 75.1868 21.3386C75.0793 21.2854 74.9717 21.2322 74.8671 21.2322C74.718 21.2322 74.5731 21.3386 74.4398 21.7012ZM75.5668 21.4396C75.6973 21.4113 75.822 21.2897 75.9281 20.9793C75.8478 21.1747 75.7173 21.3223 75.5668 21.4396ZM77.1139 19.7634L75.8191 19.7406C76.1919 20.5331 76.6235 19.9176 77.1139 19.7634ZM151.244 18.5899L151.265 18.0948C151.03 17.9689 150.784 17.9211 150.639 17.5846C150.179 16.9528 149.624 17.0896 149.06 17.2872C148.784 17.2774 148.498 17.3501 148.2 17.5423C148.475 17.5119 148.775 17.3881 149.06 17.2872C149.865 17.3154 150.584 18.0547 151.244 18.5899ZM67.2981 17.3566L63.9143 16.5566C63.2863 16.0463 62.5364 16.613 62.6741 15.0422C62.3902 14.8761 62.2081 15.2864 62.0059 15.5296C60.7227 14.7176 59.5513 14.9195 58.3913 15.1214C57.5511 15.269 56.7153 15.4156 55.8478 15.1757L55.8292 15.6664C53.9495 15.8835 51.5765 15.6761 49.6423 16.0539L49.6323 16.3025C53.1207 16.3677 56.2349 16.4198 59.5355 16.4773C61.1557 17.425 62.7056 17.3458 64.2957 17.2655C64.7388 17.2427 65.1861 17.2209 65.6378 17.2209C66.1812 17.2209 66.7332 17.2535 67.2981 17.3566ZM135.71 12.8601C136.532 12.6278 137.839 12.4031 138.169 12.1599L135.71 12.8601ZM111.568 11.1981L109.287 11.3381C110.14 11.4901 110.93 12.0991 111.568 11.1981ZM108.475 11.3902L109.287 11.3381C109.176 11.3186 109.065 11.3077 108.953 11.3077C108.796 11.3077 108.637 11.3305 108.475 11.3902ZM116.125 11.0276L116.612 11.0396L116.622 10.7931L116.13 10.7812L116.125 11.0276ZM73.4204 10.2796L76.3525 10.081L74.5789 9.80199L73.4204 10.2796ZM26.6658 47.4841C26.703 47.495 26.7389 47.508 26.7747 47.5221C26.7403 47.5199 26.703 47.5047 26.6658 47.4841ZM26.336 47.4591C26.4105 47.331 26.5109 47.3918 26.6127 47.4526C26.6299 47.4635 26.6486 47.4743 26.6658 47.4841C26.564 47.4537 26.4564 47.4385 26.336 47.4591ZM106.852 47.4722C106.856 47.4743 106.858 47.4765 106.858 47.4808L106.852 47.4722ZM77.1454 43.0006C77.1497 43.0017 77.154 43.0017 77.1583 43.0017L77.1569 43.0028C77.1526 43.0017 77.1483 43.0017 77.1454 43.0006ZM80.3657 11.3902C80.3915 11.3935 80.4159 11.4011 80.4402 11.4119C80.4173 11.4108 80.393 11.4043 80.3657 11.3902ZM111.06 6.22929C111.116 6.24449 111.169 6.27706 111.211 6.34871C111.161 6.3118 111.111 6.27271 111.06 6.22929ZM110.883 6.22169C110.85 6.22386 110.817 6.22603 110.785 6.22603L110.794 5.98068C110.884 6.07296 110.973 6.15547 111.06 6.22929C111.004 6.21518 110.944 6.21843 110.883 6.22169Z" fill="#1ED689"/>
<path d="M45.9216 8.63713C46.1754 8.61107 46.4322 8.58279 46.686 8.5665C46.5583 8.65009 46.415 8.68375 46.263 8.68375C46.1526 8.68375 46.0378 8.66644 45.9216 8.63713Z" fill="#1ED689"/>
<path d="M16.4457 4.81137C16.7984 4.2664 17.2143 4.77011 17.524 5.03934C17.4537 5.02088 17.3361 5.08168 17.2013 5.14356C17.0838 5.19784 16.9533 5.25211 16.8329 5.25211C16.6666 5.25211 16.5188 5.15116 16.4457 4.81137ZM17.524 5.03934C17.544 5.04476 17.5598 5.05779 17.5713 5.0795C17.5555 5.06648 17.5397 5.05345 17.524 5.03934Z" fill="#1ED689"/>
<path d="M20.3916 3.64326C20.5937 3.0375 20.9665 3.10046 21.3379 3.16126C21.5214 3.19274 21.7078 3.22422 21.8727 3.1732L22.0261 3.42722L22.3702 2.93545C21.8182 2.37311 21.2791 2.38615 20.7199 2.397C20.2711 2.40677 19.8066 2.41763 19.3133 2.13211C19.8955 1.56543 19.6216 0.444017 19.2302 0.150906C20.8647 0.550405 23.2606 0.219299 24.5682 0.738214C24.7603 0.579717 24.7474 0.288768 24.7575 0C25.05 0.0607934 25.3669 0.0564466 25.7009 0.0531898C26.3691 0.0466762 27.0989 0.0401712 27.8244 0.550401L26.3332 1.26364C26.5985 1.4395 26.7347 1.97796 27.1261 1.77604C26.8723 2.00835 26.2601 1.52091 25.7999 1.47315C25.8802 1.45252 25.9533 1.39499 26.012 1.26037L26.0164 1.0172C25.7067 0.677408 25.0958 0.999833 24.7087 1.23758C24.8163 1.70438 24.9525 2.0952 25.103 2.44476C24.7403 2.06046 24.2184 1.01394 23.8657 1.9671C23.7753 1.99315 23.6735 1.97796 23.5732 1.96168C23.3696 1.9302 23.1674 1.8987 23.0512 2.19832L24.1324 3.45871C23.9503 4.07642 23.5703 4.64852 23.1344 4.18606C23.1488 3.89512 23.1846 3.60853 23.0011 3.44026C22.9265 3.46414 22.8419 3.45002 22.7588 3.43483C22.5896 3.40443 22.4233 3.37513 22.3387 3.67692C22.4376 3.92769 22.7014 4.0547 22.634 4.42597C21.9688 3.5868 21.0755 3.32627 20.3916 3.64326Z" fill="#1ED689"/>
<path d="M18.585 3.72914C18.1993 3.48271 17.8266 3.2352 17.4753 3.34376C17.8667 3.08104 18.3269 3.09949 18.7872 3.11794C19.2474 3.1364 19.7063 3.15487 20.0963 2.89541C20.0246 3.26126 20.2912 3.3914 20.3916 3.64326C20.1177 4.01019 19.8454 4.14167 19.5772 4.14167C19.2389 4.14167 18.9076 3.9354 18.585 3.72914Z" fill="#1ED689"/>
<path d="M25.9658 6.46687C25.7708 5.88825 25.9171 4.27722 25.0855 3.97216L25.431 3.48257C25.3694 3.17969 25.2031 3.20466 25.0339 3.22746C24.9493 3.2394 24.8632 3.25242 24.7916 3.22202L25.1271 2.51964C26.3143 5.11856 28.7144 4.49976 30.5999 4.31847C30.1367 4.84933 29.5489 4.81242 28.961 4.77551C28.2886 4.73209 27.6176 4.69083 27.1401 5.50069C28.4076 6.3442 30.2601 6.09234 31.6781 5.8242C32.3276 5.83614 33.6266 5.86002 34.2761 5.86979C33.066 6.38327 31.8172 6.36373 30.3604 6.29751C29.9532 6.23563 29.4944 6.46578 29.0184 6.69593C28.4248 6.98361 27.8054 7.27238 27.2433 6.98687C27.1401 7.26696 27.0225 7.37335 26.8978 7.37335C26.5852 7.37335 26.2311 6.70787 25.9658 6.46687Z" fill="#1ED689"/>
<path d="M25.103 2.44476C25.1188 2.4567 25.126 2.47519 25.1489 2.48496L25.1271 2.51964C25.1199 2.49576 25.1145 2.46322 25.103 2.44476Z" fill="#1ED689"/>
<path d="M25.5085 1.50142C25.5945 1.44605 25.6938 1.46772 25.7999 1.47315C25.7339 1.49812 25.6604 1.50359 25.5873 1.50359C25.5615 1.50359 25.5343 1.5025 25.5085 1.50142Z" fill="#1ED689"/>
<path d="M19.3648 8.33195C19.263 8.31675 19.1612 8.30046 19.0709 8.32652C19.0795 8.03992 19.1211 7.75116 18.9375 7.58072L18.2666 8.06706L18.2852 7.57311L19.5957 7.34189L19.4451 7.09762C19.4365 6.79148 19.633 6.82296 19.8294 6.85445C19.9269 6.87073 20.0258 6.88594 20.1004 6.86097L19.5856 7.597L19.8953 8.09638C19.8107 8.30265 19.6874 8.35257 19.5527 8.35257C19.491 8.35257 19.4279 8.34172 19.3648 8.33195Z" fill="#1ED689"/>
<path d="M18.6909 5.59849C19.0379 4.61059 19.6329 4.83422 20.2194 5.05786C20.6108 5.20767 20.9993 5.3564 21.309 5.14905L22.1076 5.26305C21.2402 5.39983 20.5692 6.10112 19.7906 6.10221C19.4523 6.10221 19.0938 5.96867 18.6909 5.59849Z" fill="#1ED689"/>
<path d="M22.1076 5.26305C22.4532 5.2066 22.823 5.22611 23.2445 5.42586L22.1076 5.26305Z" fill="#1ED689"/>
<path d="M20.7328 7.36698L20.7514 6.87413C21.4697 6.67655 21.9343 7.22369 22.5193 7.39955C22.3888 7.76323 22.2153 7.88591 22.0203 7.88591C21.6217 7.88591 21.1314 7.3735 20.7328 7.36698Z" fill="#1ED689"/>
<path d="M23.5816 5.1871L23.9214 4.69424C23.9988 4.82017 24.0776 5.02644 24.2382 4.94719L24.0561 5.44113L23.5816 5.1871Z" fill="#1ED689"/>
<path d="M33.7486 11.0623C33.8762 10.5151 34.2318 10.5455 34.6003 10.5748C34.8942 10.5987 35.1981 10.6226 35.4003 10.3523C37.313 10.5933 39.8522 10.1026 42.0804 9.9745C39.2873 10.3306 36.8772 11.0623 33.8719 11.0623C33.8303 11.0623 33.7902 11.0623 33.7486 11.0623Z" fill="#1ED689"/>
<path d="M35.2081 6.13477C34.9901 6.10328 34.7722 6.07071 34.5901 6.12282L34.6002 5.87639C34.8998 5.57785 35.2841 5.61151 35.6683 5.64625C35.8605 5.66254 36.0526 5.67991 36.2347 5.65602C36.13 6.07506 35.8877 6.17277 35.6024 6.17277C35.4762 6.17277 35.3414 6.15431 35.2081 6.13477Z" fill="#1ED689"/>
<path d="M40.9534 5.49325C40.9147 6.08164 40.8043 5.95137 40.6709 5.8211C40.5519 5.70494 40.4129 5.58987 40.2853 5.97635C40.3225 5.6029 40.7283 5.69625 40.9534 5.49325Z" fill="#1ED689"/>
<path d="M42.5723 5.52029L42.5823 5.27494L44.0476 5.29558L44.0404 5.54633L42.5723 5.52029Z" fill="#1ED689"/>
<path d="M43.2217 9.74539L45.1616 10.0287L42.555 10.2263L43.2217 9.74539Z" fill="#1ED689"/>
<path d="M45.497 9.78448L45.5056 9.54457L49.4012 9.60536L49.3911 9.85505L45.497 9.78448Z" fill="#1ED689"/>
<path d="M47.1575 8.82054C47.2421 8.65987 47.5102 8.12575 47.8314 8.33853L47.8098 8.83574L47.1575 8.82054Z" fill="#1ED689"/>
<path d="M50.203 9.87029L50.6963 9.88006L49.7141 10.107L50.203 9.87029Z" fill="#1ED689"/>
<path d="M49.7571 8.86611L51.7143 8.6555L51.7014 8.90192L49.7571 8.86611Z" fill="#1ED689"/>
<path d="M52.1916 8.91499C52.3479 8.61428 52.5859 8.64468 52.8239 8.67616C52.9429 8.69027 53.0633 8.70655 53.1737 8.67941C53.0576 8.76734 52.7479 9.12777 52.4798 9.12777C52.3723 9.12777 52.2719 9.07023 52.1916 8.91499Z" fill="#1ED689"/>
<path d="M52.6376 9.91053L52.6506 9.66628L53.4606 9.6793L53.4535 9.92898L52.6376 9.91053Z" fill="#1ED689"/>
<path d="M60.3713 11.096C59.8995 10.9191 59.4163 10.7421 58.9432 10.766L54.2575 10.1885C56.8685 9.86171 59.7217 10.9028 62.5062 11.0765C62.2423 11.336 61.9556 11.4304 61.6516 11.4304C61.2473 11.4304 60.8143 11.2632 60.3713 11.096Z" fill="#1ED689"/>
<path d="M55.5941 9.21898L55.5956 8.97255L56.2537 8.98123L56.2436 9.23093L55.5941 9.21898Z" fill="#1ED689"/>
<path d="M66.0795 11.6192C65.9347 11.5965 65.7999 11.5737 65.6938 11.5845L67.0488 11.1546C66.9613 11.5617 66.7161 11.6572 66.4451 11.6572C66.3247 11.6572 66.1985 11.6377 66.0795 11.6192ZM65.6938 11.5845L65.5691 11.6236C65.6035 11.6008 65.6451 11.5889 65.6938 11.5845Z" fill="#1ED689"/>
<path d="M65.6234 10.3936L67.9045 10.1819C67.46 10.2318 66.8636 10.6541 66.293 10.6541C66.0607 10.6541 65.8341 10.5857 65.6234 10.3936Z" fill="#1ED689"/>
<path d="M78.037 42.0886L78.5202 42.0973L77.69 42.5783C77.6499 42.2895 77.8477 42.004 78.037 42.0886Z" fill="#1ED689"/>
<path d="M79.332 42.1103L79.8238 42.1212L78.8373 42.3492L79.332 42.1103Z" fill="#1ED689"/>
<path d="M87.4615 5.49746C87.7439 5.6451 88.0235 5.79167 88.2242 5.58107L88.2143 5.82749L86.422 6.04569C86.607 5.05672 87.0371 5.27817 87.4615 5.49746Z" fill="#1ED689"/>
<path d="M88.7618 5.56378C88.8951 5.6224 89.0643 5.68211 89.2092 5.351L89.3655 5.60178L88.5324 6.08161C88.4823 5.41723 88.5969 5.49104 88.7618 5.56378Z" fill="#1ED689"/>
<path d="M90.339 5.62012C92.0265 4.41511 93.3714 5.62771 94.8339 5.70153L90.339 5.62012Z" fill="#1ED689"/>
<path d="M103.92 5.89703C101.911 5.92309 99.8869 5.94805 97.8036 5.7483C97.2043 5.24567 96.3827 5.39658 95.5339 5.71465L95.1396 5.70488C95.64 5.66254 96.149 5.47798 96.6996 4.98512C97.2917 4.99598 98.3212 4.93193 98.9506 5.52358C100.293 5.54746 101.582 5.49861 102.879 5.44867C104.694 5.38028 106.525 5.3119 108.543 5.44543L108.518 5.94045C106.983 5.85795 105.456 5.87749 103.92 5.89703Z" fill="#1ED689"/>
<path d="M97.5711 3.50869C97.5625 3.21015 97.7589 3.24055 97.9554 3.27095C98.0557 3.28615 98.1561 3.30244 98.2292 3.27638L98.3812 3.52824L97.5711 3.50869Z" fill="#1ED689"/>
<path d="M99.6802 3.54987L99.6874 3.30343L100.665 3.32298L100.649 3.56723L99.6802 3.54987Z" fill="#1ED689"/>
<path d="M119.393 6.37795L119.726 5.88834L121.318 6.9088L119.393 6.37795Z" fill="#1ED689"/>
<path d="M123.735 7.44724L123.742 7.19973L124.231 7.20624L124.225 7.45376L123.735 7.44724Z" fill="#1ED689"/>
<path d="M147.711 21.7478C147.788 21.8759 147.865 22.0854 148.027 22.0062L147.665 22.9898C147.578 22.4915 147.182 22.1104 147.711 21.7478Z" fill="#1ED689"/>
<path d="M158.022 11.5237C157.536 11.1915 157.244 11.2154 156.839 11.2393C156.668 11.2491 156.476 11.2588 156.244 11.2426C156.565 10.0082 157.57 10.6042 158.234 10.2818C158.744 10.3361 158.543 11.2827 158.661 11.7799C158.397 12.2728 157.93 11.8103 157.672 12.2554C157.627 11.8852 157.898 11.7669 158.022 11.5237Z" fill="#1ED689"/>
</svg>
