<svg width="155" height="28" viewBox="0 0 155 28" fill="none" xmlns="http://www.w3.org/2000/svg">
<path d="M-1.37726e-06 12.246C0.6407 12.4691 0.0492846 13.0613 0.232527 13.438C0.00379822 14.071 0.641967 14.2952 1.05267 14.7372C1.24097 15.8701 0.79489 16.3319 0.21231 17.2766C0.745605 17.3873 -0.0315866 17.6547 0.425872 17.8567C0.667235 17.8885 1.0135 17.6192 1.21065 17.9429C0.778457 18.3022 1.60744 18.8453 1.67316 19.209C1.86145 19.1744 1.89683 19.3354 2.08639 19.3023C1.8248 19.7861 2.13061 20.1705 2.42758 20.5535C2.93054 20.5078 3.01903 21.073 3.46385 20.9696C3.8101 21.1061 3.36781 21.2101 3.34128 21.361C3.34759 22.0635 3.90109 22.785 3.95923 23.5493L4.33075 23.5397C4.17404 23.7259 4.1197 24.0717 4.39394 24.2526C5.03337 24.0717 4.62013 24.7331 5.14711 24.8895C5.47694 25.1271 5.89018 24.8178 6.21875 25.0583C6.2137 25.4643 5.52876 25.1824 5.2457 25.4042C4.9184 25.5273 4.82108 25.0126 4.52031 25.3316L4.54558 25.5875C5.27727 25.967 5.79037 25.0607 6.37169 25.6284C7.06799 25.8559 7.78323 25.2243 8.40245 25.5456L8.37971 25.6923C9.86458 25.2402 11.8157 25.6539 13.3031 25.1541C14.836 25.1185 16.0682 25.4547 17.4595 25.1974L17.5973 25.4619C18.8901 25.3965 20.4811 25.4191 21.6551 25.3364C21.9761 25.6235 22.6243 25.3941 22.9542 25.6259C23.4432 25.6308 24.0081 25.8953 24.6198 25.9088C25.2592 25.7746 25.6952 26.0728 26.2904 26.1912L26.1767 26.1257C26.691 25.9742 27.6173 26.2773 27.8827 26.5616L27.8953 26.462C28.8342 26.7107 30.1094 26.3903 30.9497 26.8805C31.7711 26.7242 32.542 27.2105 33.5871 27.2158L36.4204 27.4654L36.2156 27.249C36.2776 27.2009 36.3408 27.2105 36.2902 27.1528C35.7822 27.2514 35.1149 27.2278 34.6979 26.7795C34.8205 26.3932 35.187 26.7848 35.4069 26.5544C35.6861 26.7314 36.131 26.6255 36.5379 26.7723C36.7211 26.3903 37.2532 26.8497 37.6487 26.6886C38.4676 26.1714 39.8539 27.4322 40.2393 26.207C40.5262 25.9338 41.0127 25.9362 41.4184 26.0776C41.757 27.0296 42.7478 25.8155 43.2545 26.4769C44.6863 26.6813 46.2799 26.2922 47.3326 26.2046C48.3473 26.3658 49.6035 26.5519 50.6599 26.4606C50.9594 26.8473 51.4586 26.4461 51.7505 26.5274C51.7177 26.3706 51.9628 26.3475 52.0399 26.2537L52.4987 26.4533C52.5378 26.207 52.807 26.0319 53.1103 26.0627C53.3681 25.9915 54.1667 25.9694 54.4751 25.9545C54.7038 25.6789 54.8138 26.1455 55.0754 26.0175C56.0939 26.5346 57.393 26.0656 58.2713 26.3066L58.5316 26.59C58.7414 26.0555 59.0637 26.6982 59.3758 26.6862C61.6606 26.9238 63.565 26.8733 65.817 26.968C66.004 27.2894 66.3743 26.8733 66.6308 26.8473C67.892 26.9815 68.7576 26.9262 70.0517 26.8622C70.336 26.9892 70.7884 26.8353 71.0968 26.8204C71.7476 26.9863 72.5791 26.7699 73.2211 26.9459C74.2308 26.754 75.0952 26.6886 76.1125 26.8473C76.5207 26.5875 77.0742 26.9531 77.4836 26.6886C78.3442 27.388 79.6648 26.4644 80.6707 27.0272C81.6526 26.628 82.8519 27.1629 83.8616 26.9632C85.3894 26.9767 86.6342 27.2134 88.2328 26.8276C92.6786 26.9459 97.0498 26.0493 101.504 26.8805C103.128 26.6477 104.689 27.2206 106.213 26.8733C108.762 26.9964 111.581 27.3447 113.999 27.1455C114.734 26.7684 115.185 27.3745 116.045 27.3644C116.896 28.1624 117.83 27.3019 118.949 27.5713C118.433 27.3697 119.148 27.0897 118.942 26.8694C119.873 27.1629 120.974 26.7771 121.486 27.793C122.04 27.7512 122.528 27.756 122.849 27.2846C123.456 26.1835 125.609 27.6295 125.529 25.8953L126.287 25.7241C126.104 25.3537 126.233 24.9621 126.17 24.6037L126.503 24.4277C125.818 24.4609 126.566 24.0337 126.045 23.8769C126.59 23.1284 128.272 24.0693 128.711 23.2492C128.275 22.9509 127.275 23.4536 127.524 22.6666C127.694 22.3833 127.95 21.9547 128.409 22.111C131.527 21.7824 133.331 23.0851 136.158 21.8686L136.738 22.088C136.655 22.5805 135.755 22.1283 135.951 22.759C135.166 23.0779 134.654 23.5791 133.737 23.5864C135.375 24.0645 136.767 22.643 138.521 22.7772C139.506 22.7368 140.619 22.2947 141.567 22.0903C142.259 22.3684 143.092 22.1567 143.791 22.3328C144.868 22.1432 146.224 22.4415 147.179 22.5877C148.941 22.275 150.99 21.7319 152.145 23.2761C153.065 22.5127 153.969 21.844 154.078 20.7983C154.775 20.6703 154.16 19.9488 154.908 19.8699C154.575 19.2801 155.396 18.764 154.732 18.3383C154.419 18.3565 154.099 18.066 153.829 17.8837C153.594 17.0539 153.884 16.0216 152.661 15.6363C152.082 15.8248 151.852 15.3481 151.603 15.0182C151.987 14.9109 151.84 14.6915 152.131 14.4144C151.318 14.5304 151.471 13.5822 151.018 13.3369L151.165 13.2003C150.925 13.1758 151.1 12.8395 151.18 12.7438C151.041 12.4788 150.86 11.6966 150.188 12.0824C149.874 12.1006 149.7 12.4408 149.476 12.6659C148.799 12.3446 149.882 11.6994 149.013 11.4013C148.803 11.1795 148.496 10.8384 148.891 10.634C148.072 9.68342 147.097 8.91377 145.789 8.68102C145.692 8.51453 145.688 8.16147 145.388 8.13549C145.032 8.80417 144.538 8.09362 144.02 8.28696L144.051 8.0898L143.951 8.32981C143.25 8.10569 142.794 7.90656 142.095 8.08734C141.66 8.14276 141.453 7.85841 141.382 7.55055C140.67 7.06905 139.316 7.4875 139.273 6.6144C138.926 6.11948 138.601 7.00021 138.243 6.55677C138.279 6.71304 137.968 6.73521 137.944 6.87707C137.493 6.27341 136.857 7.16769 136.499 6.37439C136.288 6.90404 135.867 6.09978 135.506 6.46823C135.383 6.45333 135.271 6.39656 135.167 6.28831C134.923 6.65528 134.428 6.3042 134.053 6.36245C133.679 6.01604 132.937 6.44471 132.5 6.14781L132.32 5.72308C132.29 5.92036 131.979 5.94338 131.875 5.82652L131.801 5.5162C131.302 5.6173 131.332 5.41522 130.849 5.36719L130.831 5.11215L130.488 5.32286C130.344 5.10255 130.256 4.89566 130.029 4.76969L129.433 5.05933C129.378 4.65283 128.918 4.84998 128.601 4.87313C128.588 4.97707 128.472 4.95822 128.505 5.11462C128.16 4.97411 127.706 5.131 127.508 4.85724C127.389 4.4436 127.457 4.04092 127.529 3.58873C127.268 3.31547 126.915 3.22557 126.655 2.94222L125.861 2.55209C125.903 3.06684 125.449 2.86242 125.169 3.089L124.964 2.81192C124.485 3.11351 124.323 3.75756 123.685 3.53343C123.669 3.63922 123.477 3.67148 123.4 3.76236C123.244 3.23801 122.112 4.18143 122.084 3.21215C121.663 3.17028 121.24 3.12213 120.918 2.88692C120.511 2.74309 119.496 3.34145 119.468 2.73299C120.35 2.22071 119.051 1.93255 119.193 1.43369C119.159 0.92904 118.437 0.850227 118.038 1.01278L117.896 1.14553C117.68 0.974849 117.498 0.951208 117.172 1.06807C116.91 1.54477 116.586 1.31202 116.099 1.66311C116.856 1.89844 115.42 2.45111 116.242 2.64211C115.615 2.37217 115.388 3.76766 114.804 2.83878C114.797 2.88927 114.727 2.93261 114.677 2.87486L114.963 2.60739C114.666 2.57426 114.639 2.37218 114.738 2.12736C114.265 2.02639 114.126 1.76421 113.678 1.85989C113.577 2.1052 113.709 2.42267 113.331 2.48338C112.99 2.34521 112.707 2.56699 112.446 2.28856C112.471 2.13697 112.553 1.99412 112.59 1.79734L112.423 1.67518L111.599 2.24903C111.361 1.8147 110.82 1.75645 110.407 1.66311L110.441 1.46829C110.028 1.3736 109.764 1.49194 109.495 1.27015C109.543 1.32545 109.418 1.35525 109.352 1.40056C108.895 1.19897 108.231 1.13112 108.133 0.616375C107.922 0.385971 106.909 0.986796 106.298 0.623641C104.769 0.199898 103.957 2.54347 102.579 1.28751C101.983 1.16917 102.567 1.6886 102.014 1.72949C101.635 1.43135 101.298 1.24897 100.976 0.959828C100.768 1.50154 100.333 0.790133 99.9386 0.95367C99.7301 0.731885 99.2562 1.02768 99.0629 1.05945C98.5751 1.413 98.4626 0.999356 98.1201 0.856508L98.1808 0.817964L97.8699 0.474511L97.4643 0.741985C97.4579 0.388435 97.0712 0.138326 96.6984 0.199899C95.9352 0.373535 95.4233 -0.236897 94.7991 0.199899C94.6108 0.234502 94.5476 -0.131115 94.3328 0.0512634C94.5501 0.221942 94.2291 0.696298 93.8247 0.905521L93.7603 0.95367C93.3938 0.958473 93.6996 0.537565 93.342 0.498035L92.6722 0.482271C92.8264 1.05219 92.7784 1.70596 92.4296 2.32415C92.3828 2.61995 92.6571 2.80947 92.6128 3.10625C92.0341 2.89456 91.6031 2.89702 91.1115 2.53867C90.8323 2.76378 91.3984 3.02349 90.994 3.24048C89.959 3.22558 88.7926 3.25784 88.0129 2.76378L87.8625 2.94998C87.9611 3.06302 88.2138 3.0384 88.1216 3.23321C87.6262 3.27853 87.3002 3.40167 86.9072 3.5609C86.2007 3.38431 85.5411 3.67148 85.0318 3.05822C84.822 3.94228 84.3418 2.77868 83.7289 3.17263C83.3169 2.6681 82.9517 3.44009 82.4968 2.83164L82.4728 2.9831L80.5961 3.23802C80.4786 2.81908 79.316 3.20008 78.9103 3.05822C78.7739 2.79358 78.5578 2.97067 78.3164 2.94998C77.2233 2.17256 76.2212 2.67044 74.9574 2.53867C74.8867 2.23081 74.6023 2.09277 74.4545 1.87246C74.1373 1.94117 74.1676 2.50407 73.7367 2.15569C73.2855 2.66034 71.8752 2.66514 71.0475 2.47562C70.5761 2.01863 69.8192 2.89937 69.5589 2.21825C69.2139 2.12257 69.3112 2.64212 68.8967 2.54828C68.7046 2.22601 68.1321 2.72093 67.8945 2.33425C67.8553 1.82911 67.4737 2.29472 67.1793 2.21111L67.0339 2.34521C67.0782 2.45592 67.3183 2.48043 67.2336 2.62475C66.9126 2.7431 66.6384 2.50641 66.3389 2.47562C65.7449 3.12214 64.8174 2.81908 64.006 2.88927C63.9985 2.93508 63.9833 3.03606 63.9151 3.07645C62.8978 2.20865 61.2815 3.10145 59.995 3.11734C59.4642 2.60505 59.0624 3.21696 58.4495 3.20723C58.3395 3.1443 58.4217 2.99801 58.4394 2.90429C58.0944 2.76132 57.7532 2.97301 57.6142 3.06684C57.4853 3.09615 57.412 3.20009 57.2932 3.18519L57.0733 3.01007L57.0329 3.25538C56.2936 2.92535 55.5998 3.40401 54.8302 2.91771C54.4182 2.77142 53.593 3.34392 53.708 2.65172C53.3807 2.76378 53.1204 3.24528 52.6718 2.99567L52.2598 3.25304L51.9932 3.02116L51.5825 3.28087C51.3942 3.31314 51.0011 3.47334 50.7244 3.29343C50.435 3.20969 49.8461 3.80572 49.611 3.37471C49.5921 3.11733 49.9383 3.25538 49.9762 3.01007C49.7172 3.07928 50.0508 2.567 49.6136 2.61219C48.8111 2.27884 48.5862 2.50641 47.9038 2.5867C47.838 2.62956 47.4653 2.64446 47.2138 2.66034L47.1784 2.50887C46.1017 2.74544 47.5385 3.70707 46.2508 3.72444C45.6076 3.90669 44.8203 3.46941 44.4766 4.08908C43.5035 4.03711 42.5835 4.03846 41.4411 4.32527C41.3337 4.21222 41.3943 3.86347 41.0683 3.98182L40.8042 4.10877L41.0633 4.38585L40.113 4.58781L40.1736 4.18857C40.0573 4.17367 40.0093 4.07024 39.9563 4.01741C39.7566 4.4989 39.0653 4.22182 38.6609 4.48683L38.3993 4.20212L38.3741 4.35359C37.8673 4.44841 38.0202 3.90916 37.4629 3.95238L37.4933 3.39441C37.0333 3.19233 36.735 3.52236 36.385 3.78355L36.3193 3.82788L36.0791 3.4497C35.9477 3.47815 35.6836 3.60363 35.585 3.4449L35.3841 2.81674C34.9721 2.72573 34.9077 3.47569 34.4818 3.07645L34.7042 2.84888C34.5362 3.13224 33.9776 2.81428 33.7918 3.20243C32.6671 3.34146 31.5664 4.08033 30.3975 3.34626L29.4231 3.34626C29.1401 3.56805 28.5714 3.30587 28.1986 3.31548C28.0103 2.99038 27.7512 3.06057 27.5238 2.98791C27.2546 3.11352 27.3191 3.47335 26.902 3.43L26.6455 2.7479C26.1084 2.63732 26.0389 3.08174 25.4702 2.82203C24.8737 3.11352 23.9588 2.70849 23.2195 3.08655C22.7633 2.88693 22.1302 3.0235 21.535 2.95713C20.8981 2.68781 20.3193 2.52612 19.7646 2.1605C18.9495 2.68005 17.8829 1.30722 17.1803 2.2419L16.8807 2.20335C16.3247 2.24904 16.1099 3.54354 15.2619 2.7431C14.7476 2.88927 13.9616 3.20969 13.2829 2.88693C13.4422 3.76003 11.8954 3.14431 12.2669 3.84365C11.7147 3.47816 11.3166 4.44977 10.5028 4.15681C10.3865 4.49644 10.0175 4.15927 9.80012 4.33537C9.84561 4.44361 9.71545 4.47674 9.63836 4.57057L9.23146 4.42859C9.4425 4.65419 9.18722 4.72451 8.9825 4.85726L8.20787 4.7245C8.1826 4.87314 8.10676 4.96698 7.91215 5.04431C7.75419 4.87844 7.53682 4.70332 7.15391 4.81539L6.92138 5.09013C6.52205 4.94629 6.28572 4.87068 5.90913 4.93619C4.92975 4.93127 5.14459 5.85978 4.20186 6.01852C4.34591 6.64188 3.4714 6.75012 3.31344 7.33604C2.35176 7.58861 3.06199 8.47415 2.07756 8.52464C2.28734 9.10478 1.37492 9.46313 1.17273 9.94561C0.878279 9.8668 0.813811 10.2607 0.62805 10.2905C0.68492 10.2953 0.671019 10.3988 0.660902 10.4469C-0.0290848 10.1722 0.260329 11.0072 0.0505509 11.1896C-0.133958 11.5749 0.366484 11.8851 -1.37726e-06 12.246Z" fill="#1ED689"/>
<path d="M16.7063 2.897C16.7733 2.85132 16.8415 2.81191 16.906 2.81671L16.9224 2.71807C16.7961 2.70367 16.7228 2.80317 16.7063 2.897Z" fill="#1ED689"/>
<path d="M54.235 27.0392L53.9001 27.2105C54.0379 27.1244 54.2135 27.1884 54.235 27.0392Z" fill="#1ED689"/>
<path d="M59.4049 2.59883C59.2873 2.58442 58.8893 2.39195 58.7743 2.7306C59.0523 2.91298 59.1787 2.52383 59.4049 2.59883Z" fill="#1ED689"/>
<path d="M61.1499 2.78612L61.1891 2.54119L61.0109 2.51668C60.9262 2.65818 61.0463 2.67061 61.1499 2.78612Z" fill="#1ED689"/>
<path d="M61.2978 1.88832C61.452 2.05468 61.5 1.75889 61.572 1.71074C61.4393 1.74929 61.2687 1.68143 61.2978 1.88832Z" fill="#1ED689"/>
<path d="M66.9038 27.3843C67.0301 27.3978 67.0428 27.2996 67.111 27.2539L66.929 27.2318L66.9038 27.3843Z" fill="#1ED689"/>
<path d="M68.1343 27.362L67.4772 27.2437L67.462 27.3375L68.1343 27.362Z" fill="#1ED689"/>
<path d="M81.636 27.4915C81.8774 27.516 81.9532 27.4174 82.0379 27.2808C81.8925 27.0595 81.5488 27.2784 81.636 27.4915Z" fill="#1ED689"/>
<path d="M83.0844 28C83.4572 27.9856 83.7074 27.9129 84.06 28C84.2103 27.8119 83.9311 27.6849 83.7491 27.6652C83.4483 27.632 83.1223 27.7489 83.0844 28Z" fill="#1ED689"/>
<path d="M90.4949 2.9226L90.5024 2.8822L90.0172 2.87494L90.0108 2.92789L90.4949 2.9226Z" fill="#1ED689"/>
<path d="M114.213 3.08408L114.601 2.56945C114.295 2.58669 113.742 2.9783 114.213 3.08408Z" fill="#1ED689"/>
<path d="M117.183 27.1355C117.571 27.0186 118.245 26.9916 118.6 26.7266C118.305 26.6453 117.239 26.4288 116.743 26.8324C116.761 27.0874 117.227 26.8853 117.183 27.1355Z" fill="#1ED689"/>
<path d="M126.599 24.195C126.713 24.2541 126.731 24.1517 126.858 24.1199L126.555 24.0892C126.487 24.1272 126.55 24.1373 126.599 24.195Z" fill="#1ED689"/>
<path d="M132.113 23.4152L132.103 23.4609L132.468 23.5042L132.473 23.4537L132.113 23.4152Z" fill="#1ED689"/>
</svg>
